<svg width="236" height="454" viewBox="0 0 236 454" fill="none" xmlns="http://www.w3.org/2000/svg">
<g clip-path="url(#clip0_324_209)">
<path fill-rule="evenodd" clip-rule="evenodd" d="M87.1132 122.043L87.1128 122.043C86.6896 122.553 86.2787 123.047 85.826 123.5C84.8049 124.408 83.7918 125.323 82.78 126.238L82.7799 126.238L82.7798 126.238L82.7796 126.238C80.2242 128.548 77.6764 130.851 75.026 133C61.626 143.5 48.226 154 34.926 164.5L9.12598 184.9L9.12586 184.9C8.7259 185.2 8.32595 185.5 8.02598 185.8C7.32598 186.4 6.52598 186.8 5.62598 186C4.82598 185.3 5.02598 184.3 5.52598 183.6C6.12598 182.6 6.92598 181.6 7.72598 180.8C8.20935 180.361 8.69271 179.919 9.17671 179.477L9.17678 179.477L9.17686 179.477L9.17698 179.477C11.9972 176.9 14.8387 174.304 17.826 172C39.426 155.4 61.126 138.9 83.626 123.5C84.826 122.6 86.126 121.8 87.426 121C87.426 121 87.526 121.1 87.826 121.2C87.5789 121.482 87.3442 121.765 87.1132 122.043ZM166.026 142.9C165.676 143.1 165.326 143.325 164.976 143.55C164.626 143.775 164.276 144 163.926 144.2C149.326 152.8 134.926 161.7 120.826 171.2C99.2261 185.6 77.8261 200.4 57.4261 216.4C53.6261 219.4 49.9261 222.4 46.2261 225.4C45.6261 225.9 45.1261 226.3 44.5261 226.7C43.7261 227.3 42.9261 227.6 42.1261 226.9C41.3261 226.2 41.5261 225.2 42.0261 224.5C42.6261 223.5 43.3261 222.5 44.2261 221.7L44.3459 221.59C46.8092 219.324 49.3692 216.968 52.0261 215C82.4261 192 113.626 170.5 146.926 152C150.726 149.867 154.615 147.911 158.504 145.956C160.448 144.978 162.393 144 164.326 143C164.826 142.8 165.326 142.6 165.726 142.4C165.826 142.5 165.926 142.7 166.026 142.9ZM99.926 129.5C100.626 129 101.226 128.4 101.826 127.8C101.726 127.7 101.626 127.6 101.326 127.5C100.626 128 99.926 128.525 99.226 129.05C98.526 129.575 97.826 130.1 97.126 130.6C93.0918 133.509 89.0545 136.418 85.0158 139.327L85.0151 139.328C65.7284 153.224 46.4088 167.144 27.226 181.2C21.8311 185.104 16.7385 189.311 11.6263 193.534L11.6262 193.534C9.53676 195.26 7.44401 196.988 5.32601 198.7C3.82601 199.9 2.52601 201.3 1.22601 202.7C0.726013 203.2 0.226013 203.8 0.026013 204.5C-0.073987 205 0.126013 205.7 0.426013 206C0.726013 206.3 1.52601 206.4 1.92601 206.2C2.72601 205.8 3.42601 205.3 4.12601 204.7C6.54336 202.716 8.93467 200.705 11.3234 198.697C15.5554 195.139 19.7794 191.588 24.126 188.2C34.7347 179.955 45.3766 171.81 56.0135 163.669L56.0143 163.668L56.015 163.668C63.8265 157.689 71.6352 151.712 79.426 145.7C86.3253 140.301 93.1247 134.901 99.924 129.502L99.926 129.5ZM100.426 143C99.3259 144 98.2259 145 97.0259 145.9C93.6955 148.486 90.3597 151.071 87.0223 153.657L87.0149 153.663C76.0245 162.18 65.0164 170.711 54.1259 179.3C47.6803 184.392 41.3177 189.568 34.9847 194.719C31.4925 197.559 28.0092 200.392 24.5259 203.2L24.5258 203.2C23.7259 203.9 22.9259 204.6 22.0259 205.1C21.5259 205.4 20.4259 205.4 20.1259 205.1C19.7259 204.7 19.6259 203.7 19.9259 203.2C20.3259 202.4 20.9259 201.6 21.6259 200.9C22.3147 200.269 22.9952 199.629 23.677 198.989L23.6771 198.989C25.3708 197.397 27.0721 195.798 28.9259 194.3C48.9259 178.5 69.1259 163 90.2259 148.7C92.521 147.143 94.9504 145.586 97.294 144.083L97.2942 144.083C97.8097 143.753 98.3211 143.425 98.8259 143.1C99.2259 142.9 99.6259 142.7 100.026 142.4C100.102 142.515 100.164 142.6 100.217 142.673L100.217 142.673C100.302 142.791 100.364 142.877 100.426 143ZM107.355 156.444C107.542 156.231 107.732 156.016 107.926 155.8C107.626 155.6 107.526 155.5 107.526 155.5L107.526 155.5C106.026 156.6 104.526 157.7 103.026 158.7C86.326 169.8 70.226 181.7 54.326 193.8C49.6261 197.3 45.0262 200.9 40.4262 204.5L40.426 204.5C39.526 205.2 38.726 206 38.026 206.8C37.426 207.5 37.126 208.4 37.826 209.2C38.526 210.1 39.426 210 40.226 209.5C41.326 208.9 42.426 208.2 43.426 207.4C45.176 206 46.901 204.575 48.626 203.15C50.351 201.725 52.076 200.3 53.826 198.9C65.926 189.4 78.126 179.9 90.326 170.5L105.326 158.5C106.032 157.951 106.676 157.218 107.355 156.444Z" fill="black"/>
<path d="M97.047 450.708C82.5854 455.123 69.7971 454.884 57.2853 448.921C43.5088 442.422 36.6003 431.685 36.0267 416.84C35.3208 401.462 37.4126 385.96 41.9676 371.265C51.1436 342.14 60.6523 313.215 70.161 284.291C73.3092 274.184 76.79 264.277 80.2709 254.37C93.0581 217.003 107.443 180.372 124.29 144.549C136.124 119.292 149.555 94.7729 165.713 72.1258C177.399 55.3887 190.215 39.7866 205.159 25.9217C213.632 17.8941 222.903 10.8007 233.236 5.7075C260.968 -7.91828 289.453 5.41516 297.128 35.1913C300.768 48.7142 300.277 62.6904 298.322 76.4623C295.693 94.3589 290.334 111.515 284.044 128.335C263.836 181.388 241.165 233.634 214.7 284.271C197.658 317.033 181.015 350.262 163.373 382.888C156.423 395.913 148.409 408.068 140.461 420.491C129.842 436.965 115.17 447.369 97.047 450.708Z" fill="#4CA96D"/>
<mask id="mask0_324_209" style="mask-type:alpha" maskUnits="userSpaceOnUse" x="35" y="0" width="265" height="454">
<path d="M97.047 450.708C82.5854 455.123 69.7971 454.884 57.2853 448.921C43.5088 442.422 36.6003 431.685 36.0267 416.84C35.3208 401.462 37.4126 385.96 41.9676 371.265C51.1436 342.14 60.6523 313.215 70.161 284.291C73.3092 274.184 76.79 264.277 80.2709 254.37C93.0581 217.003 107.443 180.372 124.29 144.549C136.124 119.292 149.555 94.7729 165.713 72.1258C177.399 55.3887 190.215 39.7866 205.159 25.9217C213.632 17.8941 222.903 10.8007 233.236 5.7075C260.968 -7.91828 289.453 5.41516 297.128 35.1913C300.768 48.7142 300.277 62.6904 298.322 76.4623C295.693 94.3589 290.334 111.515 284.044 128.335C263.836 181.388 241.165 233.634 214.7 284.271C197.658 317.033 181.015 350.262 163.373 382.888C156.423 395.913 148.409 408.068 140.461 420.491C129.842 436.965 115.17 447.369 97.047 450.708Z" fill="#4CA96D"/>
</mask>
<g mask="url(#mask0_324_209)">
<path d="M28.08 225.566C31.6978 223.677 35.2399 221.244 38.9711 220.171C56.5395 214.956 74.3041 209.16 91.9858 204.761C141.61 192.871 191.543 181.216 240.328 165.285C276.907 153.269 312.753 139.969 347.217 122.704C351.612 120.43 355.698 117.922 359.784 115.413C362.08 113.985 363.991 111.779 363.031 108.864C361.996 105.405 359.163 104.967 356.172 105.383C344.752 106.971 333.059 108.597 321.752 111.001C285.618 118.243 249.484 125.485 212.397 127.87C185.756 129.634 159.003 130.583 132.225 127.377C126.87 126.736 121.439 125.551 116.28 124.328C116.204 123.784 116.128 123.241 116.09 122.969C117.374 122.236 118.93 121.465 120.252 121.004C136.302 116.832 152.081 112.698 168.207 109.069C225.95 95.7736 282.273 78.2406 334.636 50.1712C352.415 40.4924 370.156 30.5416 385.193 17.0866C410.357 -5.26045 427.31 -32.8406 435.817 -65.3443C441.29 -85.7846 434.21 -102.816 418.459 -116.425C419.502 -114.907 420.544 -113.389 421.315 -111.833C424.246 -106.697 427.684 -101.909 430.109 -96.4255C433.381 -88.8425 433.7 -80.5716 431.768 -72.542C429.601 -64.2027 427.435 -55.8634 423.795 -48.1508C410.249 -17.9954 390.705 6.89619 361.794 24.2208C325.994 45.8294 288.464 62.9666 249.317 76.4483C221.016 86.2043 192.065 93.279 163.152 100.626C149.473 103.914 135.87 107.745 122.539 111.539C118.808 112.613 115.152 114.23 111.535 116.119C108.695 117.622 106.203 119.632 106.694 123.167C106.914 126.739 109.626 128.302 112.806 129.246C116.258 130.152 119.71 131.058 123.086 131.42C145.09 134.181 167.297 134.419 189.428 134.113C219.868 133.761 249.892 130.417 279.69 125.442C299.736 122.1 319.397 117.98 339.133 114.404C341.58 114.064 343.756 113.762 347.291 113.27C344.987 116.639 342.072 117.599 339.428 118.521C316.369 128.102 293.348 137.956 269.904 146.759C222.706 164.132 174.087 177.268 125.241 188.772C102.159 194.199 79.1519 200.17 56.1452 206.141C49.4608 207.902 42.8897 210.479 36.3187 213.056C33.1692 214.325 30.3293 215.829 27.4895 217.333C23.9096 219.493 20.4431 222.47 20.8139 227.13C21.1848 231.791 25.1356 234.29 28.9352 235.702C33.3165 237.31 37.9696 238.881 42.819 239.869C51.8984 241.379 60.9779 242.888 70.2536 243.815C102.583 247.081 135.002 247.007 167.466 245.265C202.415 243.454 236.986 238.924 271.52 234.122C284.3 232.345 297.118 230.839 310.17 229.024C314.248 228.457 318.403 228.434 322.557 228.411C322.633 228.954 322.67 229.226 322.746 229.77C320.178 231.236 317.338 232.739 314.695 233.661C295.14 240.538 275.933 247.921 256.227 253.71C228.009 262.069 199.678 269.612 171.036 276.92C156.036 280.669 140.65 283.64 125.227 286.339C92.476 292.002 59.6498 297.121 27.2468 303.29C11.861 306.261 -3.06383 310.554 -17.9886 314.847C-22.8075 316.071 -27.4373 318.655 -31.4476 321.707C-39.5062 327.54 -39.1876 335.811 -30.9762 341.044C-26.134 343.974 -20.8614 346.012 -15.3547 347.741C1.67146 352.58 19.0596 354.043 36.6818 355.196C75.5369 357.553 114.217 354.669 152.754 348.756C172.566 345.724 192.378 342.692 211.956 339.969C217.394 339.213 222.636 339.039 228.15 338.826C228.498 339.332 228.573 339.876 228.921 340.382C226.663 342.082 224.676 343.744 222.38 345.172C209.307 352.811 195.077 358.115 180.772 362.876C133.384 378.89 84.5528 386.512 35.1848 392.268C0.809951 396.216 -33.799 400.475 -68.0226 405.511C-92.7291 409.223 -117.095 415.383 -139.58 427.102C-148.643 431.689 -157.049 437.015 -164.337 444.404C-168.702 448.891 -172.176 453.809 -172.628 460.524C-172.801 465.26 -171.721 467.05 -166.524 468.545C-171.344 459.791 -166.896 453.906 -160.975 448.648C-150.885 439.484 -138.944 433.666 -126.346 428.588C-110.87 422.279 -94.5102 418.341 -78.3465 414.984C-41.1246 407.591 -3.60747 404.314 34.0682 400.184C84.8714 394.783 135.062 386.972 183.311 369.176C196.762 364.256 209.481 358.053 222.51 352.083C226.671 350.119 230.41 347.104 233.604 344.166C238.007 339.95 236.201 334.935 230.302 334.369C225.256 333.962 220.286 334.099 215.12 334.818C193.676 338.077 172.271 341.607 150.789 344.595C113.031 350.122 75.2038 353.165 37.2402 351.237C21.325 350.402 5.33428 349.022 -10.2567 344.538C-15.7255 343.081 -21.036 340.77 -25.8782 337.841C-32.1934 334.284 -31.9826 329.82 -25.4872 326.699C-18.4858 323.231 -10.8649 320.231 -3.32686 318.629C20.0651 313.436 43.5705 309.058 67.076 304.681C94.9321 299.699 122.902 295.532 150.682 290.006C184.951 283.301 218.607 274.186 252.037 263.44C272.483 256.993 292.815 249.731 313.148 242.469C317.657 241.01 322.015 238.464 326.139 236.228C328.2 235.109 330.225 233.719 331.901 231.823C335.02 228.34 333.637 224.375 329.332 223.311C326.461 222.601 323.122 222.511 320.131 222.927C302.147 225.151 284.359 226.793 266.451 229.56C221.698 236.615 176.877 241.184 131.564 242.219C105.316 242.82 78.9171 242.333 52.7665 237.655C46.7916 236.545 40.7032 234.62 34.9246 232.929C32.3261 232.182 30.3921 230.233 27.9521 228.632C27.9972 226.963 27.9216 226.419 28.08 225.566Z" fill="black"/>
</g>
</g>
<defs>
<clipPath id="clip0_324_209">
<rect width="236" height="454" fill="white"/>
</clipPath>
</defs>
</svg>
