<svg width="232" height="512" viewBox="0 0 232 512" fill="none" xmlns="http://www.w3.org/2000/svg">
<g clip-path="url(#clip0_322_206)">
<path d="M91.84 479.527C85.125 488.937 77.4402 497.167 68.3462 503.409C62.8829 507.227 57.0935 510.083 50.6518 511.017C47.3066 511.497 44.0414 511.401 40.7775 510.524C37.4458 509.582 34.2385 508.628 30.9068 507.687C26.1635 506.32 21.8399 503.917 17.9581 500.759C14.2794 497.794 10.6007 494.829 7.3183 491.327C1.50916 485.17 -3.19106 477.977 -7.00885 470.057C-9.7005 464.507 -11.6685 458.601 -13.4555 452.605C-14.7257 448.403 -15.9281 444.265 -17.1982 440.063C-20.9754 427.879 -22.029 415.278 -21.6585 402.462C-21.3582 391.144 -19.917 379.995 -18.6001 368.859C-14.7787 338.585 -11.0138 308.389 -7.0004 278.168C-3.70694 253.13 -2.24361 227.923 -2.85901 202.57C-3.36117 184.234 -3.91994 165.975 -4.4221 147.639C-4.84919 131.851 -4.84675 115.949 -3.33048 100.178C-1.58529 82.538 1.11988 65.156 6.12901 48.3933C8.5942 39.9094 11.8495 31.9137 16.6064 24.6892C21.1933 17.6949 26.7613 12.0213 33.3778 7.7326C41.4761 2.37142 50.2907 1.33935 59.3392 2.48437C69.5851 3.72145 79.3991 6.63493 89.0076 10.918C101.8 16.6543 113.176 25.0894 123.668 35.0335C129.557 40.615 134.111 47.5382 138.144 55.0109C143.191 64.227 146.972 74.0679 149.792 84.4318C155.352 104.955 158.008 125.984 158.325 147.533C158.544 166.252 156.989 184.725 154.045 203.054C150.828 222.688 146.979 242.245 142.926 261.608C138.702 281.983 134.67 302.41 131.666 323.159C128.239 346.506 124.497 369.814 121.002 393.097C120.42 396.847 119.974 400.726 119.516 404.463C117.732 417.635 115.305 430.587 110.891 442.959C107.656 452.018 104.027 460.832 98.9525 468.799C96.619 472.584 94.1956 476.023 91.84 479.527Z" fill="black"/>
<mask id="mask0_322_206" style="mask-type:alpha" maskUnits="userSpaceOnUse" x="-22" y="2" width="181" height="510">
<path d="M91.84 479.527C85.125 488.937 77.4402 497.167 68.3462 503.409C62.8829 507.227 57.0935 510.083 50.6518 511.017C47.3066 511.497 44.0414 511.401 40.7775 510.524C37.4458 509.582 34.2385 508.628 30.9068 507.687C26.1635 506.32 21.8399 503.917 17.9581 500.759C14.2794 497.794 10.6007 494.829 7.3183 491.327C1.50916 485.17 -3.19106 477.977 -7.00885 470.057C-9.7005 464.507 -11.6685 458.601 -13.4555 452.605C-14.7257 448.403 -15.9281 444.265 -17.1982 440.063C-20.9754 427.879 -22.029 415.278 -21.6585 402.462C-21.3582 391.144 -19.917 379.995 -18.6001 368.859C-14.7787 338.585 -11.0138 308.389 -7.0004 278.168C-3.70694 253.13 -2.24361 227.923 -2.85901 202.57C-3.36117 184.234 -3.91994 165.975 -4.4221 147.639C-4.84919 131.851 -4.84675 115.949 -3.33048 100.178C-1.58529 82.538 1.11988 65.156 6.12901 48.3933C8.5942 39.9094 11.8495 31.9137 16.6064 24.6892C21.1933 17.6949 26.7613 12.0213 33.3778 7.7326C41.4761 2.37142 50.2907 1.33935 59.3392 2.48437C69.5851 3.72145 79.3991 6.63493 89.0076 10.918C101.8 16.6543 113.176 25.0894 123.668 35.0335C129.557 40.615 134.111 47.5382 138.144 55.0109C143.191 64.227 146.972 74.0679 149.792 84.4318C155.352 104.955 158.008 125.984 158.325 147.533C158.544 166.252 156.989 184.725 154.045 203.054C150.828 222.688 146.979 242.245 142.926 261.608C138.702 281.983 134.67 302.41 131.666 323.159C128.239 346.506 124.497 369.814 121.002 393.097C120.42 396.847 119.974 400.726 119.516 404.463C117.732 417.635 115.305 430.587 110.891 442.959C107.656 452.018 104.027 460.832 98.9525 468.799C96.619 472.584 94.1956 476.023 91.84 479.527Z" fill="black"/>
</mask>
<g mask="url(#mask0_322_206)">
<path d="M172.948 -5.08344C172.167 -3.86867 171.679 -2.89656 170.989 -2.11693C168.713 0.810513 166.37 3.67377 164.094 6.60122C151.493 23.2078 141.284 41.5604 133.716 61.6342C123.152 89.8194 114.655 118.79 110.72 149.216C104.566 197.615 105.778 245.695 116.165 293.346C123.008 324.601 130.959 355.602 139.939 386.144C147.828 413.176 154.801 440.513 160 468.384C161.479 476.044 162.834 483.716 163.263 491.553C163.494 495.292 163.352 499.069 163.143 502.781C163.039 504.638 162.504 506.608 161.892 508.374C160.292 512.724 157.068 514.753 153.025 513.529C150.846 512.897 148.565 511.779 146.703 510.405C143.78 508.286 141.027 505.938 138.5 503.282C118.017 481.001 101.346 455.424 89.1555 426.271C81.6701 408.356 76.3668 389.511 72.1601 370.271C64.9245 337.21 61.5313 303.619 60.7374 269.624C59.6555 224.796 64.4591 180.722 74.0749 137.299C79.2526 113.917 84.8254 90.7789 90.1952 67.4486C94.2111 50.0053 97.9107 32.5229 100.21 14.756C102.005 0.944452 102.92 -12.9201 101.823 -26.8656C101.369 -32.6409 100.599 -38.4554 99.0934 -44.0537C97.7568 -49.101 95.9341 -53.9573 92.856 -58.0479C91.1083 -60.3561 89.0776 -62.2808 86.3675 -63.285C83.7816 -64.3017 81.2278 -64.1148 78.7626 -62.801C76.3541 -61.5639 74.3738 -59.6602 72.54 -57.4872C67.1739 -50.8402 63.5912 -43.0243 60.9341 -34.5921C57.3341 -23.012 55.2702 -11.0191 53.3982 1.0254C49.6998 24.8968 47.6506 49.0277 46.5504 73.2757C45.2963 101.941 42.8336 130.373 39.1733 158.713C37.1943 174.176 35.4639 189.613 33.4172 205.012C28.9804 238.613 28.3736 272.324 31.5404 306.222C34.2628 335.266 38.952 363.828 45.2461 392.085C48.5777 407.367 52.3389 422.534 56.0435 437.778C62.3855 464.256 68.2415 490.925 72.3116 517.988C74.7718 534.138 76.554 550.428 76.5958 566.894C76.6463 577.892 76.0642 588.813 74.0248 599.525C73.2729 603.506 72.3178 607.294 70.5947 610.875C69.4046 613.267 68.0114 615.467 66.0767 617.153C62.9087 619.886 59.3482 620.814 55.5304 620.063C51.5883 619.326 48.1681 617.257 45.0764 614.588C39.2993 609.634 35.1516 603.096 31.7055 595.919C27.4484 587.191 24.582 577.825 22.326 568.257C19.5876 556.536 17.9002 544.638 17.0153 532.587C13.8399 489.817 8.56242 447.4 2.4148 405.071C-1.64177 376.588 -4.08238 347.941 -4.21779 319.132C-4.34704 293.589 -2.46525 268.126 0.308841 242.857C5.48902 196.403 12.3295 150.349 21.1354 104.593C25.3163 82.8739 28.9888 61.0638 31.4528 39.0208C32.9776 24.9526 34.0619 10.858 33.6324 -3.36784C33.4072 -11.0121 32.6281 -18.5295 31.0466 -25.8948C29.1734 -34.5795 26.2146 -42.7286 21.6276 -50.0744C18.3366 -55.2794 14.264 -59.2696 8.99152 -61.7898C1.54056 -65.7228 -5.29748 -64.2514 -11.0586 -57.8484C-15.7896 -52.6852 -18.9292 -46.405 -21.008 -39.3799C-23.5864 -30.7427 -24.4479 -21.7818 -24.7334 -12.6661C-25.1371 -0.272951 -24.4786 12.0839 -23.6282 24.4925C-22.0934 47.1965 -19.1913 69.7626 -16.2892 92.3286C-14.4701 106.698 -12.5834 121.132 -10.9452 135.59C-8.10586 162.138 -7.44739 188.835 -8.09967 215.594C-9.03993 253.03 -11.0534 290.361 -13.7561 327.691C-14.9462 344.424 -17.5935 360.948 -20.1732 377.536C-22.4796 392.819 -24.9103 408.115 -26.2001 423.579C-27.3644 438.25 -27.6474 452.973 -25.6819 467.612C-23.9515 480.854 -20.7515 493.665 -14.9965 505.507C-12.3726 510.992 -9.27353 516.146 -5.12221 520.341C-3.01271 522.47 -0.676746 524.293 1.98783 525.515C3.54595 526.21 5.13854 526.546 6.88004 525.589C6.59697 525.972 6.5059 526.408 6.15514 526.727C5.09177 527.544 3.83765 527.529 2.67459 527.078C0.664775 526.217 -1.41273 525.29 -3.20716 523.981C-7.73263 520.604 -11.036 516.04 -13.943 510.938C-19.7571 500.734 -23.4567 489.536 -25.8222 477.778C-29.2979 460.665 -29.5871 443.443 -28.3281 425.994C-27.2192 410.619 -25.0371 395.349 -22.5953 380.194C-19.3313 359.561 -16.508 338.902 -15.3339 317.983C-14.5327 304.272 -13.8558 290.573 -13.1223 276.798C-11.8645 252.96 -10.7987 229.07 -10.6141 205.128C-10.2917 172.582 -12.704 140.311 -16.9919 108.089C-19.9297 86.662 -22.3703 65.1852 -24.7543 43.6317C-26.6041 27.2776 -27.4595 10.8232 -27.4447 -5.7192C-27.4324 -13.5294 -27.0362 -21.2365 -25.883 -28.878C-24.6276 -36.8137 -22.5932 -44.4022 -18.6843 -51.2571C-16.5884 -54.8763 -14.2216 -58.2389 -11.2457 -61.0241C-5.35041 -66.5177 1.2501 -67.8232 8.37491 -64.8511C15.3643 -62.0074 20.5987 -56.7856 24.6553 -49.8122C29.2189 -41.9671 32.1542 -33.3187 33.9364 -24.1988C35.8526 -14.1697 36.3339 -4.06656 36.1936 6.0993C35.9302 22.6668 34.153 39.1031 31.9352 55.513C29.283 75.1613 25.6141 94.6283 21.9453 114.095C13.5935 158.456 6.95854 203.14 2.1082 248.213C-0.540354 272.688 -2.17231 297.344 -1.91753 322.095C-1.64305 348.688 0.620333 375.081 4.19445 401.413C7.29965 424.172 10.2805 446.943 13.2048 469.79C15.7722 489.693 17.0965 509.72 18.6694 529.723C19.5555 540.992 20.8823 552.287 23.1358 563.418C25.5468 574.959 28.8059 586.131 34.1338 596.525C36.8599 601.716 39.9368 606.588 43.8284 610.667C46.0844 613.066 48.6234 615.082 51.4911 616.496C59.1229 620.34 65.7481 617.754 69.2077 609.17C70.4668 606.061 71.3307 602.708 72.0138 599.444C74.4396 587.273 74.719 574.892 74.3657 562.434C73.9202 544.021 71.4513 526.168 68.4852 508.364C63.8957 481.071 57.5881 454.234 50.9752 427.499C44.9568 403.544 39.4923 379.462 35.3164 355.037C30.29 325.373 27.309 295.432 26.8709 265.163C26.589 243.256 28.5779 221.545 31.1994 199.912C34.5076 172.672 37.6915 145.445 40.6158 118.102C41.8551 105.98 42.5185 93.7023 43.1252 81.5015C44.2316 60.5185 45.4624 39.5229 48.0826 18.671C49.7983 5.43541 51.7625 -7.82526 54.6191 -20.8921C56.4627 -29.3132 58.6338 -37.5544 62.1599 -45.2935C64.87 -51.4594 68.1782 -57.1888 72.9535 -61.7884C73.4741 -62.3379 74.0624 -62.8233 74.5941 -63.232C82.2986 -69.6182 89.2646 -66.2752 93.8209 -60.914C97.1365 -56.9894 99.3322 -52.1707 100.917 -47.1485C103.368 -39.09 104.462 -30.7526 104.821 -22.199C105.433 -8.84347 104.474 4.45766 102.702 17.7699C100.313 35.1909 96.7046 52.2382 92.7798 69.2464C87.1713 93.5237 81.4385 117.814 76.0786 142.066C70.0922 169.505 65.7662 197.344 64.2302 225.612C61.754 269.805 63.7639 313.687 72.0677 357.147C75.1274 372.953 78.9218 388.543 83.6885 403.751C91.6256 429.003 103.08 451.983 117.645 473.087C123.518 481.652 129.685 489.974 136.611 497.581C140.457 501.878 144.292 506.034 149.1 509.027C150.613 509.939 152.115 510.71 153.775 511.111C156.779 511.872 158.939 510.66 159.995 507.359C160.665 505.516 161.007 503.494 161.168 501.561C161.605 496.761 161.409 491.882 160.671 487.271C159.183 477.909 157.695 468.546 155.777 459.298C150.418 432.579 143.228 406.47 135.552 380.553C127.416 352.765 120.252 324.595 113.89 296.273C105.53 259.279 102.957 221.772 104.599 183.697C106.706 137.198 117.35 93.3159 134.715 51.2396C140.136 38.1267 146.89 26.0153 154.896 14.7002C159.969 7.51476 165.651 0.906711 172.033 -4.77803C172.089 -4.85474 172.281 -4.80311 172.948 -5.08344Z" fill="#FBE8DE"/>
</g>
<path d="M129.089 162.415C127.412 162.615 125.824 162.915 124.147 163.115C112.411 164.615 100.762 166.715 89.555 170.815C86.2017 172.015 82.9366 173.515 79.7597 175.215C77.7301 176.315 75.7887 177.715 74.112 179.415C69.1703 184.315 69.6997 191.215 75.4357 194.915C77.9066 196.515 80.7304 197.515 83.3778 198.715C84.172 199.115 84.9662 199.315 85.7604 200.015C85.1427 200.215 84.525 200.415 83.9073 200.615C78.789 202.015 73.5825 203.415 68.729 205.915C66.3464 207.115 64.052 208.515 61.8459 210.115C60.5222 211.015 59.375 212.315 58.4043 213.615C55.5804 217.515 55.4922 222.315 58.0513 226.515C59.375 228.715 61.2282 230.415 63.1696 231.815C66.6111 234.315 70.2292 236.115 74.0238 237.615C83.1131 241.315 92.5554 243.915 101.998 246.215C111.793 248.515 121.676 250.615 131.472 252.815C132.089 252.915 132.619 253.115 133.237 253.715C132.442 254.115 131.736 254.415 130.942 254.815C125.03 257.515 119.294 260.615 114.176 264.915C111.793 266.915 109.587 269.215 107.557 271.615C105.704 273.815 104.557 276.715 104.292 279.815C103.851 284.215 105.263 288.015 107.91 291.215C110.116 293.915 112.852 295.715 115.764 297.215C120.794 299.715 126.089 301.115 131.472 302.015C146.209 304.415 161.034 304.315 175.771 302.715C186.625 301.515 197.303 299.415 207.716 295.815C211.599 294.415 215.482 292.815 219.011 290.515C221.57 288.915 223.865 287.015 225.894 284.515C230.924 278.015 231.454 270.215 227.483 263.015C225.894 260.215 223.953 257.915 221.659 255.815C218.482 252.915 215.129 250.515 211.422 248.615C207.186 246.415 202.862 244.415 198.627 242.315C198.009 242.015 197.391 241.715 196.332 241.215C197.215 240.715 197.656 240.415 198.185 240.115C202.951 237.615 207.716 235.215 212.305 232.515C216.893 229.815 221.129 226.515 224.747 222.215C226.512 220.115 228.101 217.815 229.336 215.415C232.689 208.815 232.866 201.915 229.954 194.915C228.101 190.515 225.365 186.915 222.188 183.615C218.747 180.015 214.864 177.115 210.893 174.415C210.275 174.015 209.569 173.515 208.775 172.915C209.481 172.415 210.01 172.115 210.54 171.815C216.276 168.615 220.776 163.915 224.041 157.615C226.6 152.615 228.63 147.315 229.513 141.615C230.395 136.815 229.336 132.515 226.689 128.615C223.688 124.215 219.894 120.915 215.305 119.015C212.305 117.715 209.216 116.515 206.039 115.715C198.185 113.815 190.243 112.015 182.389 110.615C165.887 107.615 149.297 105.815 132.619 106.015C123.177 106.115 113.734 106.915 104.469 109.315C100.497 110.315 96.6146 111.515 93.0848 113.715C90.7022 115.215 88.2313 116.815 86.2899 118.915C80.2892 125.015 80.201 133.115 85.9369 139.515C87.6136 141.415 89.555 143.215 91.5846 144.515C95.6439 147.115 99.7915 149.615 104.027 151.515C111.705 155.015 119.559 158.015 127.236 161.115C127.854 161.415 128.471 161.615 129.089 161.915C129.089 162.115 129.089 162.215 129.089 162.415Z" fill="#F7D046"/>
</g>
<defs>
<clipPath id="clip0_322_206">
<rect width="232" height="512" fill="white"/>
</clipPath>
</defs>
</svg>
