<svg width="433" height="473" viewBox="0 0 433 473" fill="none" xmlns="http://www.w3.org/2000/svg">
<path fill-rule="evenodd" clip-rule="evenodd" d="M137.113 131.043L137.113 131.043C136.69 131.553 136.279 132.047 135.826 132.5C134.805 133.408 133.792 134.323 132.78 135.238L132.78 135.238L132.78 135.238L132.78 135.238C130.224 137.548 127.676 139.851 125.026 142C111.626 152.5 98.226 163 84.926 173.5L59.126 193.9L59.1259 193.9C58.7259 194.2 58.326 194.5 58.026 194.8C57.326 195.4 56.526 195.8 55.626 195C54.826 194.3 55.026 193.3 55.526 192.6C56.126 191.6 56.926 190.6 57.726 189.8C58.2093 189.361 58.6927 188.919 59.1767 188.477L59.1768 188.477L59.1769 188.477L59.177 188.477C61.9972 185.9 64.8387 183.304 67.826 181C89.426 164.4 111.126 147.9 133.626 132.5C134.826 131.6 136.126 130.8 137.426 130C137.426 130 137.526 130.1 137.826 130.2C137.579 130.482 137.344 130.765 137.113 131.043ZM216.026 151.9C215.676 152.1 215.326 152.325 214.976 152.55C214.626 152.775 214.276 153 213.926 153.2C199.326 161.8 184.926 170.7 170.826 180.2C149.226 194.6 127.826 209.4 107.426 225.4C103.626 228.4 99.926 231.4 96.226 234.4C95.626 234.9 95.126 235.3 94.526 235.7C93.726 236.3 92.926 236.6 92.126 235.9C91.326 235.2 91.526 234.2 92.026 233.5C92.626 232.5 93.326 231.5 94.226 230.7L94.3458 230.59C96.8091 228.323 99.3691 225.968 102.026 224C132.426 201 163.626 179.5 196.926 161C200.726 158.867 204.615 156.911 208.504 154.956C210.448 153.978 212.393 153 214.326 152C214.826 151.8 215.326 151.6 215.726 151.4C215.826 151.5 215.926 151.7 216.026 151.9ZM149.926 138.5C150.626 138 151.226 137.4 151.826 136.8C151.726 136.7 151.626 136.6 151.326 136.5C150.626 137 149.926 137.525 149.226 138.05C148.526 138.575 147.826 139.1 147.126 139.6C143.092 142.509 139.055 145.418 135.016 148.327L135.015 148.328C115.728 162.224 96.4088 176.144 77.226 190.2C71.8311 194.104 66.7385 198.311 61.6263 202.534L61.6262 202.534C59.5368 204.26 57.444 205.988 55.326 207.7C53.826 208.9 52.526 210.3 51.226 211.7C50.726 212.2 50.226 212.8 50.026 213.5C49.926 214 50.126 214.7 50.426 215C50.726 215.3 51.526 215.4 51.926 215.2C52.726 214.8 53.426 214.3 54.126 213.7C56.5434 211.716 58.9347 209.705 61.3234 207.697C65.5554 204.139 69.7794 200.588 74.126 197.2C84.7347 188.955 95.3766 180.81 106.013 172.669L106.014 172.668L106.015 172.668C113.827 166.689 121.635 160.712 129.426 154.7C136.325 149.301 143.125 143.901 149.924 138.502L149.926 138.5ZM150.426 152C149.326 153 148.226 154 147.026 154.9C143.696 157.485 140.36 160.07 137.022 162.657L137.015 162.662C126.025 171.18 115.016 179.71 104.126 188.3C97.6804 193.392 91.3179 198.567 84.9849 203.718C81.4926 206.559 78.0093 209.392 74.526 212.2L74.526 212.2C73.726 212.9 72.926 213.6 72.026 214.1C71.526 214.4 70.426 214.4 70.126 214.1C69.726 213.7 69.626 212.7 69.926 212.2C70.326 211.4 70.926 210.6 71.626 209.9C72.3148 209.269 72.9953 208.629 73.6771 207.988L73.6772 207.988C75.3709 206.396 77.0722 204.797 78.926 203.3C98.926 187.5 119.126 172 140.226 157.7C142.521 156.143 144.951 154.585 147.294 153.083L147.294 153.083C147.81 152.752 148.321 152.425 148.826 152.1C149.226 151.9 149.626 151.7 150.026 151.4C150.102 151.515 150.164 151.6 150.217 151.673L150.217 151.673C150.302 151.791 150.364 151.876 150.426 152ZM157.355 165.444C157.542 165.231 157.732 165.016 157.926 164.8C157.626 164.6 157.526 164.5 157.526 164.5L157.526 164.5C156.026 165.6 154.526 166.7 153.026 167.7C136.326 178.8 120.226 190.7 104.326 202.8C99.6261 206.3 95.0262 209.9 90.4262 213.5L90.426 213.5C89.526 214.2 88.726 215 88.026 215.8C87.426 216.5 87.126 217.4 87.826 218.2C88.526 219.1 89.426 219 90.226 218.5C91.326 217.9 92.426 217.2 93.426 216.4C95.176 215 96.901 213.575 98.626 212.15C100.351 210.725 102.076 209.3 103.826 207.9C115.926 198.4 128.126 188.9 140.326 179.5L155.326 167.5C156.032 166.951 156.676 166.218 157.355 165.444Z" fill="black"/>
<path d="M147.047 459.708C132.585 464.123 119.797 463.884 107.285 457.921C93.5088 451.422 86.6003 440.685 86.0267 425.84C85.3208 410.462 87.4126 394.96 91.9676 380.265C101.144 351.14 110.652 322.215 120.161 293.291C123.309 283.184 126.79 273.277 130.271 263.37C143.058 226.003 157.443 189.372 174.29 153.549C186.124 128.292 199.555 103.773 215.713 81.1258C227.399 64.3887 240.215 48.7866 255.159 34.9217C263.632 26.8941 272.903 19.8007 283.236 14.7075C310.968 1.08172 339.453 14.4152 347.128 44.1913C350.768 57.7142 350.277 71.6904 348.322 85.4623C345.693 103.359 340.334 120.515 334.044 137.335C313.836 190.388 291.165 242.634 264.7 293.271C247.658 326.033 231.015 359.262 213.373 391.888C206.423 404.913 198.409 417.068 190.461 429.491C179.842 445.965 165.17 456.369 147.047 459.708Z" fill="#4CA96D"/>
<mask id="mask0_291_107" style="mask-type:alpha" maskUnits="userSpaceOnUse" x="85" y="9" width="265" height="454">
<path d="M147.047 459.708C132.585 464.123 119.797 463.884 107.285 457.921C93.5088 451.422 86.6003 440.685 86.0267 425.84C85.3208 410.462 87.4126 394.96 91.9676 380.265C101.144 351.14 110.652 322.215 120.161 293.291C123.309 283.184 126.79 273.277 130.271 263.37C143.058 226.003 157.443 189.372 174.29 153.549C186.124 128.292 199.555 103.773 215.713 81.1258C227.399 64.3887 240.215 48.7866 255.159 34.9217C263.632 26.8941 272.903 19.8007 283.236 14.7075C310.968 1.08172 339.453 14.4152 347.128 44.1913C350.768 57.7142 350.277 71.6904 348.322 85.4623C345.693 103.359 340.334 120.515 334.044 137.335C313.836 190.388 291.165 242.634 264.7 293.271C247.658 326.033 231.015 359.262 213.373 391.888C206.423 404.913 198.409 417.068 190.461 429.491C179.842 445.965 165.17 456.369 147.047 459.708Z" fill="#4CA96D"/>
</mask>
<g mask="url(#mask0_291_107)">
<path d="M78.08 234.566C81.6978 232.677 85.2399 230.244 88.9711 229.171C106.539 223.956 124.304 218.16 141.986 213.761C191.61 201.871 241.543 190.216 290.328 174.285C326.907 162.269 362.753 148.969 397.217 131.704C401.612 129.43 405.698 126.922 409.784 124.413C412.08 122.985 413.991 120.779 413.031 117.864C411.996 114.405 409.163 113.967 406.172 114.383C394.752 115.971 383.059 117.597 371.752 120.001C335.618 127.243 299.484 134.485 262.397 136.87C235.756 138.634 209.003 139.583 182.225 136.377C176.87 135.736 171.439 134.551 166.28 133.328C166.204 132.784 166.128 132.241 166.09 131.969C167.374 131.236 168.93 130.465 170.252 130.004C186.302 125.832 202.081 121.698 218.207 118.069C275.95 104.774 332.273 87.2406 384.636 59.1712C402.415 49.4924 420.156 39.5416 435.193 26.0866C460.357 3.73955 477.31 -23.8406 485.817 -56.3443C491.29 -76.7846 484.21 -93.8164 468.459 -107.425C469.502 -105.907 470.544 -104.389 471.315 -102.833C474.246 -97.6972 477.684 -92.9089 480.109 -87.4255C483.381 -79.8425 483.7 -71.5716 481.768 -63.542C479.601 -55.2027 477.435 -46.8634 473.795 -39.1508C460.249 -8.99542 440.705 15.8962 411.794 33.2208C375.994 54.8294 338.464 71.9666 299.317 85.4483C271.016 95.2043 242.065 102.279 213.152 109.626C199.473 112.914 185.87 116.745 172.539 120.539C168.808 121.613 165.152 123.23 161.535 125.119C158.695 126.622 156.203 128.632 156.694 132.167C156.914 135.739 159.626 137.302 162.806 138.246C166.258 139.152 169.71 140.058 173.086 140.42C195.09 143.181 217.297 143.419 239.428 143.113C269.868 142.761 299.892 139.417 329.69 134.442C349.736 131.1 369.397 126.98 389.133 123.404C391.58 123.064 393.756 122.762 397.291 122.27C394.987 125.639 392.072 126.599 389.428 127.521C366.369 137.102 343.348 146.956 319.904 155.759C272.706 173.132 224.087 186.268 175.241 197.772C152.159 203.199 129.152 209.17 106.145 215.141C99.4608 216.902 92.8897 219.479 86.3187 222.056C83.1692 223.325 80.3293 224.829 77.4895 226.333C73.9096 228.493 70.4431 231.47 70.8139 236.13C71.1848 240.791 75.1356 243.29 78.9352 244.702C83.3165 246.31 87.9696 247.881 92.819 248.869C101.898 250.379 110.978 251.888 120.254 252.815C152.583 256.081 185.002 256.007 217.466 254.265C252.415 252.454 286.986 247.924 321.52 243.122C334.3 241.345 347.118 239.839 360.17 238.024C364.248 237.457 368.403 237.434 372.557 237.411C372.633 237.954 372.67 238.226 372.746 238.77C370.178 240.236 367.338 241.739 364.695 242.661C345.14 249.538 325.933 256.921 306.227 262.71C278.009 271.069 249.678 278.612 221.036 285.92C206.036 289.669 190.65 292.64 175.227 295.339C142.476 301.002 109.65 306.121 77.2468 312.29C61.861 315.261 46.9362 319.554 32.0114 323.847C27.1925 325.071 22.5627 327.655 18.5524 330.707C10.4938 336.54 10.8124 344.811 19.0238 350.044C23.866 352.974 29.1386 355.012 34.6453 356.741C51.6715 361.58 69.0596 363.043 86.6818 364.196C125.537 366.553 164.217 363.669 202.754 357.756C222.566 354.724 242.378 351.692 261.956 348.969C267.394 348.213 272.636 348.039 278.15 347.826C278.498 348.332 278.573 348.876 278.921 349.382C276.663 351.082 274.676 352.744 272.38 354.172C259.307 361.811 245.077 367.115 230.772 371.876C183.384 387.89 134.553 395.512 85.1848 401.268C50.81 405.216 16.201 409.475 -18.0226 414.511C-42.7291 418.223 -67.0953 424.383 -89.5799 436.102C-98.6432 440.689 -107.049 446.015 -114.337 453.404C-118.702 457.891 -122.176 462.809 -122.628 469.524C-122.801 474.26 -121.721 476.05 -116.524 477.545C-121.344 468.791 -116.896 462.906 -110.975 457.648C-100.885 448.484 -88.9443 442.666 -76.3461 437.588C-60.8702 431.279 -44.5102 427.341 -28.3465 423.984C8.87537 416.591 46.3925 413.314 84.0682 409.184C134.871 403.783 185.062 395.972 233.311 378.176C246.762 373.256 259.481 367.053 272.51 361.083C276.671 359.119 280.41 356.104 283.604 353.166C288.007 348.95 286.201 343.935 280.302 343.369C275.256 342.962 270.286 343.099 265.12 343.818C243.676 347.077 222.271 350.607 200.789 353.595C163.031 359.122 125.204 362.165 87.2402 360.237C71.325 359.402 55.3343 358.022 39.7433 353.538C34.2745 352.081 28.964 349.77 24.1218 346.841C17.8066 343.284 18.0174 338.82 24.5128 335.699C31.5142 332.231 39.1351 329.231 46.6731 327.629C70.0651 322.436 93.5705 318.058 117.076 313.681C144.932 308.699 172.902 304.532 200.682 299.006C234.951 292.301 268.607 283.186 302.037 272.44C322.483 265.993 342.815 258.731 363.148 251.469C367.657 250.01 372.015 247.464 376.139 245.228C378.2 244.109 380.225 242.719 381.901 240.823C385.02 237.34 383.637 233.375 379.332 232.311C376.461 231.601 373.122 231.511 370.131 231.927C352.147 234.151 334.359 235.793 316.451 238.56C271.698 245.615 226.877 250.184 181.564 251.219C155.316 251.82 128.917 251.333 102.766 246.655C96.7916 245.545 90.7032 243.62 84.9246 241.929C82.3261 241.182 80.3921 239.233 77.9521 237.632C77.9972 235.963 77.9216 235.419 78.08 234.566Z" fill="black"/>
</g>
</svg>
