<svg width="51" height="46" viewBox="0 0 51 46" fill="none" xmlns="http://www.w3.org/2000/svg">
<path d="M29.2354 21.3035C29.4225 21.3011 29.5491 21.2545 29.6618 21.2904C34.1116 21.6659 38.4837 22.4015 42.7032 24.0446C44.6137 24.7902 46.378 25.7996 48.0761 26.8997C48.5212 27.1782 49.0187 27.4485 49.4859 27.6968C49.659 27.7768 49.8845 27.8487 50.0715 27.8462C50.176 27.8299 50.3467 27.7229 50.3827 27.6102C50.4186 27.4975 50.3116 27.3268 50.2209 27.2606C46.1133 24.4487 41.6993 22.247 36.7636 21.3317C34.2283 20.8712 31.7012 20.4629 29.1325 20.3022C28.8629 20.2908 28.4807 20.2434 28.3214 20.0809C26.2508 17.968 23.6673 16.6851 20.954 15.7704C16.7671 14.3365 12.5305 13.0977 8.30776 11.7764C8.0521 11.6825 7.74418 11.5967 7.46401 11.346C10.2818 10.5307 13.1078 9.76769 15.9778 8.94422C15.8218 8.45989 15.5359 8.34393 15.1839 8.31863C14.7796 8.3015 14.3451 8.26232 13.9269 8.32769C11.6351 8.73947 9.34326 9.15125 7.05962 9.61531C6.56711 9.71907 6.09095 9.92737 5.64501 10.1577C4.78335 10.6405 4.69682 11.4573 5.39438 12.1515C6.78133 13.4876 8.1601 14.7715 9.59114 16.0472C10.0004 16.4384 10.4047 16.4555 10.7077 16.1672C10.9584 15.887 10.9453 15.4607 10.5581 15.0392C9.88263 14.3148 9.16302 13.6508 8.39685 12.8602C8.61411 12.8798 8.71865 12.8635 8.83137 12.8994C12.9961 14.3636 17.183 15.7976 21.3338 17.3443C22.5819 17.7918 23.7662 18.5171 24.9342 19.1377C25.4014 19.386 25.8107 19.7772 26.3547 20.1741C26.019 20.2534 25.7576 20.2942 25.5485 20.3269C23.8595 20.4838 22.1729 20.8278 20.5876 21.4772C19.1811 22.0719 17.9724 22.9034 17.0764 24.1948C16.798 24.6399 16.4974 25.1153 16.3096 25.6266C15.4562 27.8752 16.4209 30.1074 18.694 31.1176C21.4948 32.4202 26.2729 32.1552 28.8226 28.5973C30.278 26.6026 30.4436 24.408 29.5753 22.1072C29.4821 21.854 29.3588 21.5788 29.2354 21.3035ZM17.9006 24.8424C18.7688 23.7161 19.7766 22.9695 20.9601 22.49C22.8124 21.6649 24.7988 21.3544 26.7876 21.231C27.236 21.1877 27.508 21.3861 27.7743 21.7194C29.1 23.5202 29.0462 26.2597 27.6848 27.9986C25.8301 30.3502 21.9668 31.3289 19.2045 30.1007C17.3381 29.2946 16.6724 27.6048 17.4261 25.7466C17.5862 25.4003 17.7985 25.0458 17.9006 24.8424Z" fill="black"/>
</svg>
