<svg width="160" height="249" viewBox="0 0 160 249" fill="none" xmlns="http://www.w3.org/2000/svg">
<g clip-path="url(#clip0_322_207)">
<path fill-rule="evenodd" clip-rule="evenodd" d="M113.774 1.46889C113.826 1.10989 113.877 0.904718 113.928 0.699575L113.928 0.699454C114.903 0.853341 115.365 1.21241 115.262 2.18703C115.211 2.90518 114.954 3.62332 114.698 4.29016C114.508 4.7649 114.259 5.20058 114.012 5.63334C113.859 5.902 113.707 6.16953 113.569 6.44459C112.954 7.5218 112.133 8.44513 110.953 8.95808C109.004 9.83011 107.157 8.85549 106.747 6.80366C106.336 4.85442 106.593 3.05906 108.029 1.57148C109.876 -0.480351 111.723 -0.531647 113.774 1.46889ZM13.5421 6.95718C14.0551 4.1872 12.3623 2.08407 9.33584 2.08407C9.18196 2.08407 8.92548 2.08407 8.6177 2.13537C3.12905 3.10999 0.718142 7.57273 0 11.9329V12.0355C0 13.1127 0.564254 13.6256 1.69276 13.7795C1.94924 13.7795 2.25702 13.8821 2.4622 14.036C3.7446 15.1132 5.18088 15.1132 6.61716 14.549C8.669 13.7795 10.4131 12.4458 11.7467 10.7018C12.5675 9.57327 13.2856 8.34217 13.5421 6.95718ZM67.4602 2.46473C67.3002 2.47886 67.119 2.49486 66.8899 2.49486C65.7613 2.39227 64.5816 2.75134 63.5043 3.57207C61.6064 4.90577 60.0162 6.59853 58.939 8.65036C58.6312 9.26591 58.3747 9.93276 58.2722 10.5996C58.0157 12.1385 59.0416 12.9592 60.5805 12.5488C60.7342 12.5069 60.887 12.4621 61.0394 12.4175C62.0053 12.1343 62.9539 11.8563 64.0173 12.3437C64.4277 12.4975 64.9919 12.395 65.4536 12.2411C66.0178 12.0359 66.5821 11.7794 67.095 11.4203C69.506 9.83017 70.2241 7.41926 70.2241 4.70058C70.2241 3.36689 69.1982 2.49486 67.8132 2.44357C67.6999 2.44357 67.5867 2.45356 67.4602 2.46473ZM33.9068 14.4985C33.8464 14.5187 33.7841 14.5388 33.7205 14.5593C33.4601 14.6434 33.1796 14.7339 32.9321 14.8576C32.0088 15.3193 31.2907 14.9602 31.1881 13.9343C31.1368 13.5752 31.1881 13.1649 31.2907 12.8571C31.8549 10.754 32.6244 8.70212 33.8555 6.90676C34.112 6.4964 34.4197 6.08603 34.7788 5.77826C35.0866 5.47048 35.4969 5.16271 35.856 5.00882C36.3177 4.85493 36.8306 4.70104 37.2923 4.75234C37.4929 4.77741 37.6935 4.80112 37.8938 4.8248L37.8946 4.82489L37.8948 4.82491L37.8949 4.82493L37.8951 4.82495L37.8953 4.82497L37.8954 4.82499L37.8956 4.82501L37.8957 4.82503C38.9245 4.94662 39.9473 5.06751 40.9343 5.36789C41.5499 5.52178 41.9089 6.23992 42.0115 6.90676C42.0628 7.41972 42.1141 7.98398 42.0115 8.49694C41.6524 10.754 38.8825 13.7804 36.5742 13.883C36.369 13.883 36.1638 13.9742 35.9586 14.0654C35.856 14.111 35.7534 14.1566 35.6508 14.1908C35.0866 14.396 34.5223 14.6011 33.9581 14.755C33.9581 14.7338 33.9493 14.7037 33.939 14.6685C33.9244 14.6187 33.9068 14.5586 33.9068 14.4985ZM82.0223 25.5262C82.8943 22.9101 81.6632 20.4479 79.0471 19.8837C78.4829 18.2935 77.3544 17.8831 76.072 18.8578C75.5077 19.2681 75.0461 19.8837 74.6357 20.4992C73.2507 22.6024 73.5585 24.9107 73.9688 27.1677C74.0714 27.7832 74.5331 28.1936 75.0974 28.3988C75.2513 28.4501 75.4051 28.4886 75.559 28.527C75.7129 28.5655 75.8668 28.604 76.0207 28.6553C78.7394 29.4247 81.099 28.1936 82.0223 25.5262ZM11.644 29.9377C11.644 27.0652 13.4907 24.2439 15.9529 23.1667C16.312 23.0128 16.6197 22.7563 16.9275 22.4485C18.4151 21.1661 20.2104 21.6791 20.6721 23.6283C20.7747 24.1926 20.7747 24.7568 20.6721 25.3211C20.2104 27.7833 18.9793 29.9377 17.2353 31.7331C16.8762 32.0922 16.4146 32.4512 15.9529 32.7077C13.9524 33.7849 11.9005 32.7077 11.644 30.3994V29.9377ZM87.9724 3.00767C86.177 3.46933 84.0739 6.08542 84.1252 8.23985C84.1252 10.1378 85.305 11.4715 86.9464 11.3689C87.562 11.3347 88.1775 11.2549 88.7931 11.1751C89.1009 11.1352 89.4086 11.0953 89.7164 11.0611C89.9549 11.0611 90.1627 10.9687 90.3635 10.8793C90.4218 10.8534 90.4795 10.8277 90.5372 10.8046C92.3325 9.98391 94.0766 7.11134 93.974 5.1621C93.9227 3.57193 92.7942 2.49471 91.204 2.54601C90.1268 2.54601 89.0496 2.75119 87.9724 3.00767ZM50.703 19.1904L50.703 19.1905C50.7926 19.643 50.8856 20.1127 50.8856 20.5514C50.8856 21.1156 50.9882 21.6286 51.296 22.1928C51.5524 22.6545 51.655 23.2187 51.7063 23.7317C51.8089 26.1939 49.2441 28.8613 46.7306 28.8613C45.0379 28.8613 43.6016 27.6302 43.2425 25.9374C42.7809 23.8856 43.9094 21.1669 45.756 20.0384C46.4742 19.5767 47.2436 19.4228 48.013 19.9871C48.6286 20.4488 48.8338 20.3462 49.2954 19.7306L50.2188 18.6534C50.3726 18.756 50.5265 18.8073 50.6291 18.8073C50.6519 18.9328 50.6773 19.0608 50.7029 19.1902L50.703 19.1904ZM121.149 35.5461C120.317 36.1274 119.54 36.6701 118.391 36.5552C117.929 35.2728 117.16 34.5547 115.877 34.6573C115.672 34.6573 115.416 34.4521 115.262 34.2982C114.595 33.6313 113.877 33.6826 113.107 33.9904C110.85 34.965 109.568 38.1967 110.594 40.4537C111.466 42.4029 113.672 43.0698 115.416 41.8387C115.877 41.5309 116.288 41.1205 116.647 40.6589C117.16 40.0433 117.673 39.633 118.493 39.3765C120.238 38.8635 121.469 37.6324 122.033 35.8884C122.065 35.726 122.057 35.5637 122.046 35.3623V35.3621V35.3619C122.04 35.2452 122.033 35.1155 122.033 34.965C121.721 35.147 121.432 35.3488 121.149 35.5461ZM67.377 38.8124C67.595 38.7611 67.813 38.7098 68.0182 38.6585C68.0182 38.556 68.0182 38.4534 68.0695 38.2995C66.6332 37.3762 65.043 37.2223 63.4015 37.6839L63.3176 37.705C62.7388 37.8508 62.2449 37.9753 61.6575 37.6326C60.888 37.2223 60.0673 37.3762 59.2979 37.8378C57.3999 38.915 56.3227 41.8902 57.1435 43.942C57.3999 44.6602 57.8616 45.2244 58.5797 45.327C59.7082 45.5322 60.888 45.5322 61.8627 44.7628C63.0938 43.7881 64.0171 42.557 64.1197 40.9669C64.2223 40.1461 64.5813 39.6845 65.2482 39.428C65.7099 39.2741 66.2228 39.1202 66.7358 38.9663C66.941 38.915 67.159 38.8637 67.377 38.8124ZM34.7273 46.2501C34.558 46.1749 34.3956 46.1066 34.2376 46.04C33.9647 45.9252 33.7048 45.8158 33.4449 45.6859C33.1372 46.1732 32.8294 46.6477 32.5216 47.1222L32.5214 47.1225C32.2137 47.5969 31.906 48.0713 31.5983 48.5585C31.034 49.4305 30.2646 50.046 29.1361 49.8409C28.0076 49.6357 27.1868 48.9175 26.9817 47.7377C26.8791 47.0709 26.8791 46.3527 26.9817 45.6859C27.2381 44.1983 27.905 42.8646 28.9822 41.7874C30.5211 40.2485 32.1112 40.3511 33.3936 42.0439C33.4962 42.1978 33.6501 42.3517 33.804 42.5056C35.2403 43.6854 35.3942 44.3522 34.7273 46.2501ZM8.55821 45.9342C8.62633 45.81 8.69901 45.6775 8.7717 45.5321C8.70126 45.4758 8.62694 45.4194 8.54983 45.3609L8.54968 45.3608L8.54959 45.3607C8.34599 45.2064 8.12283 45.0371 7.89967 44.814C6.77116 43.5829 5.84784 43.3777 4.36026 44.1471C2.5649 45.1217 1.3338 46.5067 0.974731 48.5586C0.820843 49.4819 0.820843 50.4052 1.43639 51.2259C2.77009 52.97 6.10431 52.8674 7.02764 50.7643C7.28412 50.1487 7.5406 49.4819 7.74578 48.815C7.85333 48.4386 7.9327 48.0481 8.01342 47.6509C8.0867 47.2903 8.16111 46.9241 8.25874 46.558C8.32498 46.3593 8.43399 46.1606 8.55816 45.9342L8.55819 45.9342L8.55821 45.9342ZM103.874 14.7032C105.105 15.0623 105.772 16.3447 105.413 17.4219C105.157 18.2426 104.951 19.0634 104.849 19.8841C104.592 21.7308 103.669 23.1157 102.13 24.0391C100.694 24.9111 99.155 24.2442 98.5394 22.6541C98.1803 21.6795 98.2316 20.7048 98.5394 19.7815C99.2575 17.7297 100.694 16.2934 102.746 15.6778C103.361 15.524 103.772 15.3188 103.874 14.7032ZM93.9228 41.7362C94.5897 40.0947 94.3845 38.6071 92.9482 37.2221C93.3073 36.6066 93.3586 35.991 92.8969 35.5294C92.3327 34.9651 91.6658 34.9651 90.9477 35.1703C90.7425 35.2216 90.5373 35.3242 90.3834 35.4268C88.5368 36.4527 87.357 38.9149 87.6647 40.9667C87.8699 42.5056 88.8958 43.5828 90.1782 43.7367C91.7684 43.9419 93.3586 43.0699 93.9228 41.7362Z" fill="black"/>
<path d="M37.3834 70.8113C58.9185 51.6757 85.1601 41.6888 115.654 43.7357C127.512 44.571 139.014 47.5166 150.198 51.4417C160.89 55.279 170.081 61.6114 178.082 69.6006C190.669 82.0647 200.005 96.468 204.861 113.546C214.009 145.631 208.863 175.735 190.153 203.176C169.576 233.453 134.234 250.837 97.7208 248.935C74.8389 247.718 54.5997 239.659 37.1445 224.762C7.66258 199.614 -4.24723 159.438 6.19828 121.381C11.6063 102.111 21.7998 85.6249 37.3834 70.8113Z" fill="#F7D046"/>
<mask id="mask0_322_207" style="mask-type:alpha" maskUnits="userSpaceOnUse" x="2" y="43" width="208" height="207">
<path d="M37.3834 70.8113C58.9185 51.6757 85.1601 41.6888 115.654 43.7357C127.512 44.571 139.014 47.5166 150.198 51.4417C160.89 55.279 170.081 61.6114 178.082 69.6006C190.669 82.0647 200.005 96.468 204.861 113.546C214.009 145.631 208.863 175.735 190.153 203.176C169.576 233.453 134.234 250.837 97.7208 248.935C74.8389 247.718 54.5997 239.659 37.1445 224.762C7.66258 199.614 -4.24723 159.438 6.19828 121.381C11.6063 102.111 21.7998 85.6249 37.3834 70.8113Z" fill="black"/>
</mask>
<g mask="url(#mask0_322_207)">
<path d="M-10.5948 128.817C-11.3648 128.578 -12.0666 128.413 -12.8366 128.174C-16.2724 127.276 -19.64 126.452 -23.0758 125.555C-23.9872 125.311 -24.9668 124.994 -25.727 124.473C-26.2094 124.102 -26.604 123.239 -26.5844 122.674C-26.4235 122.114 -25.7606 121.358 -25.1903 121.236C-24.1912 120.988 -23.1336 121.095 -22.1492 121.271C-16.9442 122.159 -11.7392 123.047 -6.61225 124.144C16.0741 128.963 38.5946 134.484 60.8663 141.057C87.1977 148.903 113.597 156.822 139.773 165.087C167.001 173.601 193.517 184.283 219.653 195.731C225.579 198.271 231.578 200.743 237.504 203.283C238.688 203.819 239.877 204.214 240.983 204.96C244.453 206.92 245.554 209.859 244.155 213.49C243.306 215.512 242.175 217.525 240.84 219.318C234.741 227.88 227.483 235.199 219.538 241.929C198.983 259.329 175.149 269.258 148.757 273.367C121.23 277.579 94.308 274.524 68.006 265.83C47.2305 258.954 28.1223 248.882 11.047 235.272C1.13026 227.429 -7.76285 218.63 -14.6818 207.99C-20.4606 199.158 -24.5189 189.678 -26.496 179.35C-29.0818 166.171 -27.2229 153.359 -22.6202 140.995C-20.8259 136.175 -17.5941 132.749 -13.0563 130.43C-12.408 130.099 -11.7598 129.768 -11.1797 129.363C-10.6777 129.168 -10.6728 129.027 -10.5948 128.817Z" fill="#4CA96D"/>
<mask id="mask1_322_207" style="mask-type:alpha" maskUnits="userSpaceOnUse" x="-28" y="121" width="273" height="155">
<path d="M-10.5948 128.817C-11.3648 128.578 -12.0666 128.413 -12.8366 128.174C-16.2724 127.276 -19.64 126.452 -23.0758 125.555C-23.9872 125.311 -24.9668 124.994 -25.727 124.473C-26.2094 124.102 -26.604 123.239 -26.5844 122.674C-26.4235 122.114 -25.7606 121.358 -25.1903 121.236C-24.1912 120.988 -23.1336 121.095 -22.1492 121.271C-16.9442 122.159 -11.7392 123.047 -6.61225 124.144C16.0741 128.963 38.5946 134.484 60.8663 141.057C87.1977 148.903 113.597 156.822 139.773 165.087C167.001 173.601 193.517 184.283 219.653 195.731C225.579 198.271 231.578 200.743 237.504 203.283C238.688 203.819 239.877 204.214 240.983 204.96C244.453 206.92 245.554 209.859 244.155 213.49C243.306 215.512 242.175 217.525 240.84 219.318C234.741 227.88 227.483 235.199 219.538 241.929C198.983 259.329 175.149 269.258 148.757 273.367C121.23 277.579 94.308 274.524 68.006 265.83C47.2305 258.954 28.1223 248.882 11.047 235.272C1.13026 227.429 -7.76285 218.63 -14.6818 207.99C-20.4606 199.158 -24.5189 189.678 -26.496 179.35C-29.0818 166.171 -27.2229 153.359 -22.6202 140.995C-20.8259 136.175 -17.5941 132.749 -13.0563 130.43C-12.408 130.099 -11.7598 129.768 -11.1797 129.363C-10.6777 129.168 -10.6728 129.027 -10.5948 128.817Z" fill="#4CA96D"/>
</mask>
<g mask="url(#mask1_322_207)">
<path d="M107.887 280.207C108.823 279.744 109.832 279.213 110.7 278.677C115.194 275.578 118.659 271.523 122.194 267.542C131.031 257.518 138.421 246.383 146.09 235.399C151.676 227.314 157.263 219.23 164.16 212.111C169 207.184 174.05 202.335 179.305 197.706C188.284 189.739 197.803 182.498 208.005 175.989C213.864 172.3 219.859 168.758 226.39 166.083C230.123 164.515 234.057 163.307 238.17 163.025C240.583 162.825 242.907 163.118 245.641 163.849C245.139 164.044 244.92 164.249 244.71 164.171C238.726 163.327 233.15 164.973 227.827 167.478C221.286 170.435 215.286 174.118 209.413 178.231C194.556 188.4 180.859 199.812 168.244 212.677C162.521 218.563 157.695 225.117 153.006 231.818C146.162 241.486 139.459 251.16 132.405 260.75C127.876 266.89 123.007 272.665 117.382 277.776C115.919 279.141 114.32 280.359 112.653 281.504C111.64 282.176 110.416 282.771 109.203 283.082C106.702 283.774 104.699 282.36 104.788 279.816C104.783 277.906 105.134 275.937 105.831 274.192C107.46 270.074 109.23 265.961 111.141 261.853C116.782 250.162 123.392 239.07 130.076 227.911C139.845 211.41 148.991 194.534 157.44 177.35C159.039 174.08 160.355 170.8 161.677 167.379C162.145 166.122 162.476 164.718 162.662 163.451C162.877 161.336 162.058 160.459 159.933 160.527C158.515 160.619 157.018 160.921 155.727 161.442C151.862 162.723 148.318 164.935 145.121 167.372C137.059 173.39 129.952 180.431 122.981 187.619C110.873 200.147 99.861 213.704 88.6445 227.041C81.7811 235.223 74.9225 243.264 67.2355 250.709C61.7468 255.967 56.1218 261.079 49.5465 265.026C47.9576 265.961 46.3004 266.823 44.5798 267.471C39.5645 269.279 36.3239 266.832 36.8657 261.402C37.0903 259.005 37.8071 256.695 38.5239 254.385C40.1817 249.418 42.6096 244.691 45.3152 240.115C51.6333 229.297 58.6384 219.068 66.0627 208.995C77.7913 193.128 89.5882 177.335 101.526 161.546C106.05 155.547 110.779 149.767 115.444 143.773C116.409 142.463 117.379 141.01 118.139 139.48C118.593 138.647 118.773 137.521 119.085 136.683C117.848 135.649 116.503 135.674 115.362 135.917C112.867 136.467 110.376 136.876 107.944 137.641C100.073 140.199 93.1999 144.559 86.7317 149.5C75.1017 158.437 65.0456 168.914 55.467 179.902C48.0966 188.421 40.7944 197.012 33.0098 205.232C25.9564 212.771 18.4254 219.798 9.39844 225.074C7.59501 226.073 5.65515 226.926 3.72017 227.637C2.28722 228.153 0.79584 228.314 -0.758862 228.26C-3.86827 228.152 -5.92466 226.242 -5.88517 223.059C-5.81172 220.939 -5.59204 218.683 -4.81681 216.728C-3.11033 212.401 -1.18939 208.01 0.936204 203.838C6.69379 192.859 13.8403 182.635 21.0501 172.625C29.0739 161.583 37.5753 151.052 47.0416 141.262C54.4557 133.524 62.3474 126.298 69.9662 118.779C71.1361 117.687 72.2426 116.381 73.6416 114.802C71.7409 114.524 70.3129 114.899 68.9579 115.206C62.6755 116.828 56.583 119.093 50.6903 121.719C34.3037 129.076 19.3302 138.534 6.10102 150.74C-0.620791 156.875 -7.34261 163.01 -14.274 169.067C-19.6017 173.764 -25.2705 178.096 -31.8797 180.98C-33.6051 181.77 -35.4621 182.271 -37.319 182.773C-38.1037 182.958 -39.0931 182.924 -39.9362 182.753C-41.3398 182.421 -41.4517 181.568 -40.4085 180.048C-40.3452 180.262 -40.1405 180.482 -40.1454 180.623C-40.0821 180.838 -40.1601 181.047 -40.1017 181.403C-38.5568 181.74 -37.2651 181.218 -35.9053 180.77C-32.1085 179.416 -28.643 177.413 -25.4454 174.977C-21.3023 171.795 -17.1542 168.472 -13.2108 164.929C-5.76277 158.253 1.48065 151.358 8.99695 144.756C19.6524 135.361 31.7257 127.926 44.603 121.792C51.7971 118.362 59.113 115.502 66.7553 113.432C68.7536 112.935 70.8201 112.511 72.8768 112.37C74.0124 112.268 75.1382 112.449 75.7326 113.672C76.2588 114.822 75.8005 115.797 75.0645 116.621C72.9294 119.023 70.7261 121.352 68.4546 123.608C62.7368 129.354 56.7462 134.806 51.238 140.629C33.0268 159.809 17.0182 180.764 3.84094 203.727C1.43267 207.888 -0.488259 212.279 -2.34098 216.743C-3.11131 218.556 -3.46253 220.525 -3.6042 222.572C-3.82387 224.829 -2.65923 225.93 -0.461166 225.794C1.17155 225.638 3.01872 225.419 4.38835 224.689C7.77585 222.896 11.0951 221.029 14.2147 218.803C20.3124 214.344 25.8643 209.301 30.8705 203.672C39.4108 194.063 47.8146 184.307 56.3548 174.697C65.558 164.333 75.3752 154.626 86.5568 146.381C92.947 141.65 99.8049 137.713 107.389 135.287C109.392 134.649 111.39 134.152 113.384 133.797C114.524 133.553 115.801 133.456 117 133.568C120.387 133.827 121.942 135.933 120.698 139.144C119.923 141.099 118.865 143.043 117.603 144.768C112.708 151.249 107.751 157.516 102.788 163.924C85.3807 186.457 67.8367 208.844 52.2907 232.786C48.7759 238.254 45.5339 244.014 42.5016 249.853C40.9854 252.772 40.093 256.066 39.1323 259.288C38.8056 260.55 38.7566 261.963 38.9221 263.313C39.068 265.229 40.0378 265.828 41.8899 265.468C43.1035 265.156 44.3902 264.776 45.404 264.104C49.318 261.409 53.2271 258.856 56.8683 255.869C65.101 249.008 72.1692 241.046 79.0278 233.005C90.2345 219.95 101.163 206.744 112.507 193.836C120.905 184.221 129.918 175.265 139.886 167.332C144.108 163.941 148.528 160.91 153.612 159.176C155.474 158.533 157.472 158.036 159.456 157.963C163.355 157.744 165.465 160.152 165.05 163.958C164.84 165.932 164.347 167.896 163.504 169.777C160.588 176.327 157.6 182.945 154.407 189.344C146.952 204.368 137.968 218.632 129.402 233.052C122.636 244.563 116.079 256.151 110.56 268.413C109.409 270.991 108.4 273.574 107.6 276.235C107.205 277.424 107.156 278.837 106.971 280.104C107.473 279.909 107.751 280.06 107.887 280.207Z" fill="black"/>
</g>
</g>
</g>
<defs>
<clipPath id="clip0_322_207">
<rect width="160" height="249" fill="white"/>
</clipPath>
</defs>
</svg>
