<svg width="253" height="262" viewBox="0 0 253 262" fill="none" xmlns="http://www.w3.org/2000/svg">
<path d="M240.483 134.272C242.258 148.687 242.237 159.713 240.144 170.616C237.018 187.08 229.434 201.277 218 213.357C204.541 227.587 188.475 237.789 169.768 243.672C160.978 246.4 151.952 247.76 142.708 247.896C130.096 248.136 117.501 247.272 105.079 244.77C99.5016 243.591 93.907 242.268 88.4316 240.71C81.2208 238.769 74.5339 235.663 68.1323 231.863C62.5965 228.548 57.1971 225.143 52.1642 221.108C45.7535 215.985 40.2081 210.1 35.8007 203.271C29.5117 193.578 24.0583 183.492 19.986 172.655C18.27 168.081 17.0443 163.302 16.1809 158.48C15.1595 152.942 14.202 147.323 13.6154 141.733C12.2455 128.887 14.6833 116.547 19.5175 104.585C25.2546 90.3115 34.4422 78.4969 46.142 68.6639C49.0829 66.1854 51.8618 63.5791 54.5425 60.7638C62.5035 52.2542 70.9764 44.3455 80.1148 37.0932C93.9034 26.2786 109.122 18.2349 125.94 13.1623C134.249 10.7113 142.733 9.12153 151.423 9.27128C165.642 9.57641 177.447 14.9437 186.551 26.0681C190.339 30.7652 193.373 35.9187 196.142 41.324C197.58 44.1673 198.937 46.9467 200.303 49.7986C204.285 58.0003 208.748 65.9247 213.829 73.4822C217.217 78.5205 220.468 83.6484 223.783 88.6952C233.413 103.653 239.095 120.032 240.483 134.272Z" fill="#EA552B"/>
<mask id="mask0_305_26" style="mask-type:alpha" maskUnits="userSpaceOnUse" x="13" y="9" width="229" height="239">
<path d="M240.483 134.272C242.258 148.687 242.237 159.713 240.144 170.616C237.018 187.08 229.434 201.277 218 213.357C204.541 227.587 188.475 237.789 169.768 243.672C160.978 246.4 151.952 247.76 142.708 247.896C130.096 248.136 117.501 247.272 105.079 244.77C99.5016 243.591 93.907 242.268 88.4316 240.71C81.2208 238.769 74.5339 235.663 68.1323 231.863C62.5965 228.548 57.1971 225.143 52.1642 221.108C45.7535 215.985 40.2081 210.1 35.8007 203.271C29.5117 193.578 24.0583 183.492 19.986 172.655C18.27 168.081 17.0443 163.302 16.1809 158.48C15.1595 152.942 14.202 147.323 13.6154 141.733C12.2455 128.887 14.6833 116.547 19.5175 104.585C25.2546 90.3115 34.4422 78.4969 46.142 68.6639C49.0829 66.1854 51.8618 63.5791 54.5425 60.7638C62.5035 52.2542 70.9764 44.3455 80.1148 37.0932C93.9034 26.2786 109.122 18.2349 125.94 13.1623C134.249 10.7113 142.733 9.12153 151.423 9.27128C165.642 9.57641 177.447 14.9437 186.551 26.0681C190.339 30.7652 193.373 35.9187 196.142 41.324C197.58 44.1673 198.937 46.9467 200.303 49.7986C204.285 58.0003 208.748 65.9247 213.829 73.4822C217.217 78.5205 220.468 83.6484 223.783 88.6952C233.413 103.653 239.095 120.032 240.483 134.272Z" fill="black"/>
</mask>
<g mask="url(#mask0_305_26)">
<path d="M92.8097 -94.631C91.8292 -94.2213 90.7762 -93.803 89.7957 -93.3933C83.6697 -91.1266 78.6827 -87.3041 74.3144 -82.5993C68.3224 -76.0859 63.3753 -68.8141 58.7523 -61.2866C50.3928 -47.4385 43.2957 -32.8577 36.8126 -18.0554C23.1097 13.4 11.6285 45.6219 2.75707 78.785C-1.32959 93.9657 -3.83426 109.474 -4.62054 125.221C-5.30117 138.75 -4.6686 152.197 -2.36043 165.521C0.345456 181.59 5.17439 196.967 13.2433 211.153C18.9141 221.213 25.9234 230.16 34.8165 237.635C35.6269 238.274 36.4373 238.913 37.3202 239.544C37.4012 239.608 37.5462 239.59 37.8361 239.556C37.4218 237.915 37.0971 236.41 36.6914 234.841C35.081 228.05 34.3404 221.155 34.1796 214.193C33.967 205.546 34.7862 196.924 36.3558 188.434C36.4877 187.684 36.385 186.814 36.0734 186.043C32.069 174.536 29.7232 162.761 28.8823 150.661C27.1234 125.808 31.1167 101.746 39.8474 78.5942C52.5603 44.9775 72.3914 16.2525 99.7546 -7.1886C109.835 -15.8015 120.696 -23.4042 132.73 -29.1612C136.417 -30.9194 140.301 -32.2599 144.103 -33.6643C145.301 -34.0998 146.606 -34.2538 147.838 -34.3993C148.345 -34.4592 148.951 -34.3103 149.475 -34.2252C149.493 -34.0802 149.501 -34.0078 149.518 -33.8628C149.245 -33.6836 148.917 -33.3509 148.627 -33.3167C137.385 -30.8133 127.525 -25.313 118.058 -18.9773C101.771 -8.16161 87.8471 5.24112 75.6849 20.4936C58.4643 42.0756 45.564 66.0137 37.7429 92.512C33.2213 107.744 30.9341 123.227 30.8258 139.114C30.7935 153.154 32.5646 166.908 36.6551 180.389C36.8771 181.024 37.0905 181.586 37.3553 182.584C37.5682 181.898 37.7429 181.509 37.845 181.13C41.595 166.209 47.5198 152.281 55.6026 139.201C56.1522 138.254 56.203 137.44 56.0832 136.425C55.3477 131.441 54.3222 126.491 54.1026 121.52C52.7952 95.5115 59.492 71.9385 76.2782 51.6571C84.7118 41.5484 95.0652 34.0056 107.479 29.6C120.955 24.8487 134.437 24.506 147.862 29.9024C149.866 30.6946 151.823 31.7128 153.845 32.65C155.827 31.387 157.881 30.1156 160.009 28.8355C160.699 28.46 160.55 27.8162 160.49 27.3089C160.271 24.836 160.044 22.2906 159.753 19.8263C158.427 9.84114 157.31 -0.242164 155.694 -10.1931C153.813 -22.3909 151.279 -34.5117 147.385 -46.3249C145.08 -53.4017 142.011 -60.0945 138.026 -66.4586C137.668 -67.0042 137.382 -67.5583 137.305 -68.2107C137.565 -67.8739 137.898 -67.5458 138.086 -67.2005C143.077 -59.7794 146.743 -51.7609 149.437 -43.2601C152.469 -33.7703 154.639 -24.1053 156.447 -14.3975C158.947 -1.31733 160.577 11.8655 161.998 25.1465C162.067 25.7263 162.135 26.3062 162.204 26.886C162.212 26.9585 162.302 27.0949 162.472 27.2952C163.099 27.0008 163.798 26.6977 164.489 26.3222C172.119 22.4816 180.113 19.8474 188.699 19.1274C209.497 17.2594 226.538 24.6539 239.827 40.7226C246.695 49.0979 250.993 58.7321 253.338 69.2584C257.196 86.3672 255.506 103.176 249.953 119.632C248.318 124.455 246.15 129.12 244.063 133.85C243.611 135.005 243.56 135.82 244.06 136.937C248.396 146.272 250.374 156.181 250.485 166.456C250.793 188.982 243.946 209.412 231.913 228.25C224.337 240.022 215.025 250.161 203.474 258.139C195.934 263.365 187.723 267.274 178.694 269.222C168.086 271.504 157.589 270.98 147.35 267.044C146.041 266.538 145.179 266.713 144.105 267.574C135.21 275.019 125.359 280.591 114.202 283.82C99.916 287.932 85.7304 287.916 71.9303 281.829C60.0705 276.616 51.3303 267.947 44.8702 256.804C42.741 253.087 40.9656 249.255 39.5355 245.235C39.2154 244.391 38.9123 243.692 38.1105 243.125C26.6332 234.926 17.8879 224.347 11.0095 212.152C5.33007 202.019 1.26633 191.255 -1.68052 179.991C-5.13982 166.878 -6.78711 153.55 -7.13831 139.996C-7.65938 118.157 -4.59013 96.8495 1.23792 75.8778C11.6041 38.5697 24.7336 2.25811 41.4026 -32.7076C47.4091 -45.3224 54.0467 -57.5708 61.9382 -69.1588C65.3854 -74.1958 69.1654 -78.9046 73.3419 -83.3663C78.8739 -88.7965 85.157 -92.8455 92.8097 -94.631ZM241.845 132.495C241.99 132.478 242.216 132.525 242.361 132.507C242.663 131.957 242.966 131.407 243.196 130.866C244.9 126.622 246.765 122.507 248.234 118.145C253.642 101.705 255.196 84.9866 250.984 67.993C248.199 56.8573 243.198 46.8652 235.234 38.5458C222.991 25.7342 208.04 19.8566 190.333 21.1391C180.932 21.8083 172.167 24.7541 163.863 29.1153C162.964 29.5889 162.734 30.1305 162.845 31.0728C163.136 33.5371 163.346 35.9375 163.492 38.4189C163.531 39.3697 163.979 40.0518 164.636 40.6356C169.251 44.8675 172.984 49.7181 176.124 55.153C179.256 60.5155 181.616 66.1895 183.35 72.158C183.606 73.0832 184.037 73.6202 185.086 73.7903C186.28 73.9433 187.5 74.3137 188.638 74.6202C200.386 77.6424 211.069 82.8481 220.12 91.0392C231.556 101.374 238.094 114.418 240.825 129.455C241.089 130.453 241.58 131.497 241.845 132.495ZM151.769 34.3649C151.598 34.1646 151.517 34.1006 151.436 34.0367C151.274 33.9089 151.04 33.7896 150.805 33.6703C142.523 29.5039 133.79 27.7425 124.517 28.2496C112.625 28.9924 101.87 33.1286 92.1641 39.9335C79.7476 48.6753 70.8243 60.2382 64.7373 74.0383C56.3246 93.037 54.1799 112.839 57.6978 133.295C57.7662 133.875 57.9711 134.365 58.1121 134.936C58.321 134.838 58.4659 134.821 58.5298 134.74C58.8494 134.335 59.1605 133.857 59.4076 133.46C72.7576 113.952 89.4689 98.0156 110.322 86.6607C111.149 86.1956 111.588 85.5558 112.01 84.7711C114.349 80.306 116.598 75.7044 119.172 71.3585C127.497 57.2206 137.865 44.8256 151.032 34.9664C151.296 34.7147 151.496 34.5441 151.769 34.3649ZM242.338 138.536C242.193 138.553 242.129 138.635 241.984 138.652C241.971 139.168 241.886 139.692 241.946 140.199C242.144 144.365 241.971 148.501 241.355 152.616C237.72 178.473 225.42 199.4 205.149 215.684C195.746 223.188 185.101 228.266 172.989 229.623C172.046 229.734 171.744 230.285 171.467 231.052C166.403 243.556 158.788 254.376 149.011 263.688C148.611 264.029 148.291 264.435 147.835 264.929C148.53 265.215 149.072 265.445 149.605 265.602C160.65 269.516 171.812 269.447 182.943 266.001C192.659 263.017 201.24 257.888 208.988 251.314C222.282 240.044 232.19 226.233 239.214 210.412C246.229 194.518 249.629 177.875 248.091 160.492C247.478 153.436 245.786 146.581 243.025 139.999C242.812 139.436 242.607 138.946 242.338 138.536ZM187.378 109.383C187.302 109.98 187.264 110.279 187.225 110.577C186.721 118.133 185.629 125.684 184.003 133.078C181.263 145.969 177.149 158.434 171.961 170.511C171.557 171.44 171.352 172.2 171.762 173.18C174.391 179.263 176.095 185.603 176.801 192.207C176.853 192.642 176.977 193.068 177.1 193.495C177.318 193.469 177.471 193.524 177.544 193.516C178.034 193.311 178.533 193.178 179.015 192.901C204.047 182.082 223.311 164.741 237.474 141.536C239.626 137.975 239.553 137.983 239.138 133.843C239.001 132.684 238.8 131.605 238.092 130.586C227.417 114.87 212.585 107.509 193.612 108.647C191.637 108.733 189.553 109.126 187.378 109.383ZM138.031 141.447C138.469 140.807 138.844 140.248 139.292 139.681C145.215 131.338 152.315 124.253 160.746 118.481C161.838 117.764 163.308 117.149 163.841 116.058C164.373 114.966 164.121 113.452 164.112 112.131C164.073 100.597 163.953 88.9997 163.841 77.4748C163.849 76.298 163.704 75.0659 163.622 73.7527C163.179 73.7315 162.88 73.6933 162.654 73.6465C160.173 73.7925 157.61 73.8746 155.146 74.1656C140.923 75.6982 127.605 79.9165 114.833 86.275C113.725 86.8468 113.005 87.5933 112.553 88.749C104.396 107.423 99.4926 126.89 97.6253 147.173C97.5956 147.544 97.647 147.979 97.643 148.567C110.218 140.542 123.447 137.436 138.031 141.447ZM109.914 89.4281C109.833 89.3641 109.752 89.3002 109.671 89.2363C109.053 89.6032 108.426 89.8977 107.881 90.2561C97.9828 96.0548 88.8826 103.009 80.7167 111.028C72.8065 118.723 65.8688 127.186 59.8224 136.351C59.0725 137.468 58.9024 138.517 59.2739 139.796C59.6368 141.003 60.0083 142.282 60.3713 143.488C63.3815 153.422 67.9178 162.587 74.1806 170.813C74.5304 171.286 74.9527 171.751 75.3922 172.36C75.7032 171.883 75.9675 171.631 76.0782 171.324C80.9654 163.545 86.9232 156.741 94.2672 151.097C95.0131 150.568 95.226 149.882 95.2768 149.067C96.9992 128.801 101.596 109.224 109.527 90.5027C109.701 90.1146 109.803 89.7351 109.914 89.4281ZM172.813 227.513C173.61 227.418 174.045 227.367 174.48 227.316C181.992 226.208 188.873 223.485 195.408 219.7C205.787 213.624 214.307 205.489 221.398 195.833C231.778 181.673 238.158 166.001 239.537 148.421C239.702 146.711 239.723 145.018 239.752 143.398C224.387 167.627 203.788 185.493 177.362 196.33C177.878 206.925 176.369 217.171 172.813 227.513ZM42.4906 245.988C42.6316 246.56 42.7383 246.841 42.845 247.122C44.121 249.838 45.3246 252.562 46.7285 255.115C52.954 266.139 61.6046 274.671 73.3023 279.757C86.1642 285.367 99.3436 285.574 112.722 281.863C123.759 278.869 133.546 273.378 142.331 266.241C142.668 265.98 142.923 265.656 143.315 265.243C141.349 264.152 139.473 263.198 137.588 262.171C135.176 264.146 132.4 264.915 129.492 265.185C127.672 265.326 125.851 265.468 124.077 265.383C112.032 264.821 100.766 261.522 90.6451 254.853C89.8518 254.359 89.1652 254.146 88.2401 254.402C83.2264 255.509 78.0375 255.754 72.9422 255.547C62.5896 255.006 53.0417 251.944 44.06 246.832C43.6634 246.585 43.1943 246.346 42.4906 245.988ZM127.35 200.986C124.178 190.925 123.964 181.029 125.798 171.038C127.631 161.047 131.541 151.84 136.859 143.349C136.688 143.148 136.599 143.012 136.526 143.021C136.292 142.901 136.066 142.854 135.84 142.808C131.132 141.526 126.301 141.068 121.427 141.496C112.986 142.199 105.342 145.307 98.3215 149.957C97.5031 150.495 97.1367 151.126 97.1755 152.077C97.1223 157.227 96.7877 162.485 96.8795 167.618C96.9255 175.476 97.5513 183.266 98.902 190.97C99.1029 192.049 99.5338 192.586 100.472 193.063C104.767 195.201 109.163 196.96 113.807 198.323C118.135 199.502 122.51 200.455 127.35 200.986ZM67.1173 224.267C67.2537 224.177 67.3176 224.096 67.4625 224.079C62.7564 206.629 65.7467 190.255 74.1097 174.569C66.0213 164.574 60.5759 153.312 57.1765 140.705C56.6823 141.499 56.3627 141.904 56.1155 142.301C54.7138 144.744 53.3121 147.188 52.0553 149.615C46.2487 160.809 41.9772 172.558 39.1684 184.869C38.9344 185.999 38.9817 187.022 39.4 188.075C41.2695 192.705 43.429 197.3 45.9251 201.635C50.2561 209.061 55.5972 215.706 62.3959 221.003C63.9995 222.136 65.5861 223.125 67.1173 224.267ZM107.663 227.195C107.449 226.633 107.253 226.215 107.057 225.797C102.588 215.963 99.4712 205.748 97.4797 195.106C97.2788 194.028 96.703 193.508 95.8373 193.022C88.5785 188.808 82.0783 183.55 76.4901 177.301C76.1488 176.901 75.7436 176.581 75.3299 176.189C75.0274 176.739 74.7163 177.217 74.4778 177.686C71.4403 183.704 69.2514 190.062 68.1287 196.735C66.5168 206.112 66.7979 215.338 69.6329 224.41C69.9873 225.544 70.5717 226.137 71.591 226.678C79.2161 230.26 87.1558 231.528 95.4825 230.471C99.6053 229.911 103.604 228.924 107.663 227.195ZM86.7512 252.373C86.572 252.101 86.5634 252.028 86.5549 251.956C86.3928 251.828 86.2222 251.627 86.0601 251.5C78.6513 245.393 72.9261 237.985 69.3663 228.998C69.0547 228.227 68.5599 227.771 67.9287 227.404C61.8045 224.086 56.6392 219.551 52.1216 214.279C46.6698 207.941 42.5266 200.861 39.1294 193.251C38.9159 192.689 38.6386 192.207 38.3527 191.653C37.9223 192.365 37.8459 192.962 37.6969 193.567C36.5575 201.345 36.0791 209.118 36.4875 216.933C36.8663 225.12 38.1872 233.195 40.6508 240.988C40.8984 241.84 41.3464 242.522 42.1397 243.017C55.2544 251.389 69.4969 254.999 85.0288 252.724C85.4637 252.672 86.0349 252.531 86.7512 252.373ZM139.392 143.638C138.897 144.431 138.514 144.917 138.211 145.467C135.374 150.065 133.078 154.892 131.251 159.958C127.171 171.464 125.551 183.267 128.23 195.37C128.687 197.374 129.281 199.288 129.819 201.356C132.398 201.419 134.761 201.507 137.204 201.66C138.244 201.757 138.918 201.237 139.484 200.435C148.607 187.452 154.715 173.209 158.64 157.9C158.836 157.069 158.622 156.506 158.038 155.913C154.451 152.295 150.407 149.171 145.934 146.76C143.823 145.687 141.656 144.767 139.392 143.638ZM169.501 229.961C158.735 230.277 149.222 227.506 140.875 220.922C134.133 228.553 126.853 235.365 118.503 241.201C125.76 251.001 134.325 258.808 145.28 263.835C155.91 254.275 164.015 243.25 169.501 229.961ZM115.003 83.9768C122.74 80.4175 130.554 77.5105 138.68 75.3751C146.806 73.2397 155.132 72.183 163.536 71.7786C163.527 70.4568 163.471 69.361 163.415 68.2653C163.187 63.2214 162.895 58.2585 162.667 53.2145C162.465 49.6373 162.182 45.9962 161.899 42.3551C161.83 41.7752 161.753 41.1229 161.348 40.8033C159.045 38.7236 156.558 36.9595 153.799 35.3745C136.485 48.0752 124.277 64.8029 115.003 83.9768ZM237.531 125.214C234.596 112.185 228.354 101.017 218.338 92.1314C208.72 83.493 197.304 78.3004 184.413 75.5601C187.057 86.1245 187.773 96.5491 187.484 107.166C207.612 103.981 224.303 109.653 237.531 125.214ZM170.025 169.049C170.374 168.273 170.604 167.731 170.834 167.19C171.737 164.878 172.712 162.559 173.607 160.175C179.416 144.644 183.417 128.738 184.761 112.117C184.829 111.448 184.752 110.796 184.812 110.054C178.374 111.549 172.564 113.999 167.048 117.075C166.221 117.54 166.144 118.137 166.093 118.952C165.702 131.197 164.27 143.345 161.572 155.349C161.377 156.181 161.518 156.752 162.038 157.425C163.851 159.71 165.6 162.076 167.277 164.45C168.173 165.814 169.014 167.331 170.025 169.049ZM170.404 227.65C173.956 217.897 175.772 207.762 175.247 197.094C174.54 197.324 174.041 197.457 173.614 197.581C167.898 199.579 162.074 201.295 156.092 202.295C155.159 202.479 154.694 202.902 154.191 203.622C150.518 208.612 146.764 213.539 143.082 218.456C142.89 218.7 142.707 219.015 142.515 219.258C149.344 225.434 161.135 228.818 170.404 227.65ZM165.895 73.7048C166.054 87.5022 166.269 101.146 166.429 114.944C172.29 111.679 178.471 109.259 184.828 107.7C185.801 99.1338 184.19 81.7597 181.629 75.007C176.456 74.1479 171.254 73.6598 165.895 73.7048ZM71.8437 229.441C71.8865 229.803 71.8397 230.029 71.9293 230.166C72.3134 230.929 72.6335 231.773 73.0176 232.536C76.7516 239.885 81.9517 245.958 88.4348 251.072C89.2452 251.711 90.0128 251.988 91.0018 251.651C91.3557 251.536 91.7181 251.493 91.9995 251.386C99.9717 249.195 107.428 245.743 114.32 241.254C114.665 241.067 114.921 240.742 115.194 240.563C112.992 236.855 110.799 233.219 108.67 229.502C96.3795 234.333 84.1384 234.603 71.8437 229.441ZM109.679 226.222C115.895 224.092 128.588 214.583 131.353 209.994C130.299 207.913 129.237 205.761 128.165 203.535C118.405 202.41 108.981 199.775 99.6969 195.212C101.795 206.135 104.985 216.341 109.679 226.222ZM136.552 261.485C128.593 256.325 122.173 249.881 116.9 242.566C112.821 244.738 108.976 247.03 105.007 248.895C100.966 250.768 96.7922 252.143 92.5079 253.825C93.0666 254.2 93.4718 254.519 94.022 254.822C102.091 259.675 110.871 262.46 120.124 263.645C123.625 264.04 127.109 264.29 130.579 263.807C132.6 263.495 134.595 262.965 136.552 261.485ZM141.587 201.436C142.248 201.432 142.555 201.542 142.772 201.517C146.042 201.204 149.231 200.827 152.502 200.515C153.371 200.412 153.674 199.862 154.049 199.303C159.447 190.876 164.206 182.009 168.342 172.849C168.747 171.919 168.67 171.267 168.269 170.359C166.366 166.689 164.117 163.206 161.532 159.984C161.28 159.72 161.028 159.455 160.623 159.136C156.69 174.372 150.637 188.462 141.587 201.436ZM163.928 119.281C157.307 122.341 142.378 137.185 140.623 142.243C142.013 142.814 143.404 143.384 144.739 144.109C146.065 144.76 147.319 145.421 148.581 146.154C149.852 146.959 151.123 147.764 152.402 148.642C153.601 149.456 154.744 150.423 155.879 151.318C157.022 152.285 158.092 153.261 159.398 154.357C162.066 142.724 163.421 131.173 163.928 119.281ZM76.5313 173.916C82.2604 180.736 88.7863 186.212 96.3692 190.681C95.8249 184.205 95.0889 177.971 94.7877 171.687C94.4865 165.402 94.6927 159.058 94.7283 152.513C87.2096 158.545 81.286 165.638 76.5313 173.916ZM138.93 219.388C136.882 216.984 134.851 214.725 132.731 212.33C126.394 219.031 119.259 224.577 110.831 228.511C112.824 232.318 114.783 235.835 117.231 239.147C123.122 235.512 135.065 224.621 138.93 219.388ZM180.992 72.7304C180.183 65.2564 169.106 46.1339 164.108 43.6375C164.696 52.9749 165.212 62.3208 165.783 71.5132C170.904 71.9374 175.88 72.3787 180.992 72.7304ZM170.121 174.844C166.206 183.39 161.806 191.553 156.79 199.494C160.295 199.3 172.096 195.923 174.922 194.34C175.052 189.841 172.314 178.48 170.121 174.844ZM140.408 217.596C142.876 215.468 150.734 204.839 151.117 203.103C149.885 203.249 148.653 203.394 147.42 203.54C146.188 203.685 144.939 203.686 143.779 203.823C142.466 203.904 140.974 203.713 139.865 204.285C138.821 204.776 138.169 206.102 137.338 207.156C136.371 208.299 135.485 209.506 134.526 210.721C136.22 213.241 138.178 215.508 140.408 217.596ZM161.577 37.7631C161.286 35.2988 161.038 33.1969 160.764 30.8775C159.191 31.8717 157.682 32.7848 155.973 33.8685C157.892 35.1852 159.577 36.3825 161.577 37.7631ZM130.69 203.752C131.547 205.414 132.226 206.804 133.075 208.394C134.29 206.854 135.619 205.668 136.454 204.026C134.536 203.959 132.834 203.866 130.69 203.752Z" fill="black"/>
</g>
</svg>
