<svg width="249" height="332" viewBox="0 0 249 332" fill="none" xmlns="http://www.w3.org/2000/svg">
<path d="M58.1257 51.0379C52.0257 51.0379 47.7257 47.1379 47.3257 41.3379C47.0257 37.9379 48.0258 34.8379 49.9258 32.0379C51.9258 29.2379 56.3257 27.1379 59.8257 29.2379C60.1257 29.4379 60.5257 29.5379 60.9257 29.6379C65.5257 30.1379 69.6257 35.2379 69.5257 40.5379C69.4257 45.6379 65.2257 50.0379 59.8257 50.8379C59.2257 50.9379 58.5257 51.0379 58.1257 51.0379Z" fill="black"/>
<path d="M106.426 20.6376C99.5256 20.6376 95.0256 15.0376 96.6256 8.2376C97.1256 5.9376 98.2256 3.8376 99.9256 2.2376C101.826 0.437598 104.026 -0.462403 106.726 0.237597C107.926 0.537597 109.126 0.537597 110.226 0.837597C114.226 1.6376 117.026 4.0376 118.026 8.0376C119.126 12.0376 117.626 15.2376 114.626 17.8376C112.326 19.8376 109.526 20.6376 106.426 20.6376Z" fill="black"/>
<path d="M39.6257 79.5375C39.5257 86.2375 33.2257 90.5375 27.1257 87.9375C18.7257 84.4375 17.9257 75.3375 21.6257 69.5375C22.5257 68.1375 23.8257 67.2375 25.4257 66.7375C26.8257 66.3375 28.3257 66.2375 29.3257 67.1375C30.9257 68.6375 32.9257 69.1375 34.6257 70.2375C37.7257 72.2375 39.6257 75.7375 39.6257 79.5375Z" fill="black"/>
<path d="M53.6258 182.538C46.3258 182.538 40.9258 176.738 41.3258 170.038C41.6258 165.338 44.6258 163.038 49.2258 164.138C49.9258 164.338 50.6258 164.238 51.3258 164.338C52.6258 164.438 54.0258 164.438 55.3258 164.638C59.9258 165.438 63.2258 169.138 63.2258 173.538C63.2258 177.638 59.9258 181.438 55.5258 182.438C54.8258 182.438 54.0258 182.438 53.6258 182.538Z" fill="black"/>
<path d="M35.3257 124.738C35.3257 128.338 34.2257 131.338 31.8257 133.738C28.5257 137.038 23.7257 137.338 20.1257 134.338C15.6257 130.738 14.6257 123.238 18.0257 118.738C20.5257 115.438 24.1257 114.838 27.9257 115.638C31.8257 116.438 34.1257 119.038 35.0257 122.938C35.2257 123.638 35.3257 124.338 35.3257 124.738Z" fill="black"/>
<path d="M141.726 197.938C141.726 192.738 145.626 188.938 151.126 188.938C157.526 188.938 162.126 193.138 162.126 199.038C162.126 204.238 157.626 208.438 152.126 208.538C146.226 208.538 141.726 203.938 141.726 197.938Z" fill="black"/>
<path d="M99.1257 206.738C92.8257 206.738 86.7257 200.638 86.8257 194.338C86.8257 189.938 90.2257 187.538 94.4257 188.838C95.4257 189.138 96.6257 189.138 97.7257 189.138C102.326 188.938 105.726 191.038 107.226 194.938C109.526 200.838 105.526 206.838 99.1257 206.738Z" fill="black"/>
<path d="M218.626 178.738C218.626 183.138 214.926 187.038 210.326 187.538C206.326 187.938 202.126 185.538 200.626 181.838C199.626 179.438 199.726 177.138 201.226 175.038C201.326 174.838 201.526 174.638 201.626 174.438C205.026 169.738 210.126 168.838 215.026 172.038C217.326 173.638 218.626 176.038 218.626 178.738Z" fill="black"/>
<path d="M140.726 13.5374C140.726 11.4374 141.226 9.73737 142.326 8.13737C144.326 5.13737 147.526 4.33737 150.726 6.03737C152.026 6.73737 153.226 7.43737 154.426 8.33737C157.026 10.4374 158.126 13.1374 157.326 16.4374C156.526 19.8374 154.226 21.9374 150.726 22.6374C147.426 23.2374 144.726 22.0374 142.726 19.4374C141.326 17.6374 140.726 15.6374 140.726 13.5374Z" fill="black"/>
<path d="M238.826 126.137C244.126 126.037 248.226 130.437 248.126 135.137C248.026 137.937 247.026 140.237 244.926 142.137C240.526 146.137 233.826 144.037 232.526 138.237C232.226 136.937 232.126 135.437 232.526 134.237C233.126 132.237 234.126 130.237 235.126 128.337C236.126 126.737 237.826 126.137 238.826 126.137Z" fill="black"/>
<path d="M162.026 79.5377C162.026 79.2377 161.926 78.8377 161.926 78.4377C161.726 75.1377 163.526 72.9377 166.626 72.2377C170.926 71.3377 175.726 74.2377 176.626 78.3377C177.626 82.6377 174.826 86.8377 170.426 87.9377C165.926 89.0377 161.026 85.6377 161.826 80.5377C161.926 80.2377 161.926 79.9377 162.026 79.5377Z" fill="black"/>
<path d="M81.9258 61.8378C82.0258 58.7378 82.8258 56.3378 84.8258 54.5378C88.2258 51.4378 92.9258 52.5378 94.4258 56.2378C94.8258 57.1378 95.3258 57.9378 95.8258 58.7378C97.2258 61.4378 97.3258 64.1378 95.5258 66.6378C93.8258 69.0378 91.4258 70.1378 88.4258 69.6378C85.2258 69.1378 83.3258 67.1378 82.3258 64.2378C82.1258 63.2378 82.0258 62.3378 81.9258 61.8378Z" fill="black"/>
<path d="M120.226 149.938C122.926 151.138 126.426 151.938 128.326 155.238C129.826 157.938 129.226 161.238 126.926 163.638C124.526 166.038 121.026 166.638 118.126 165.238C113.926 163.138 112.126 157.338 114.426 153.238C115.526 151.138 117.426 149.938 120.226 149.938Z" fill="black"/>
<path d="M163.626 158.337C159.326 158.337 155.826 154.737 156.026 150.437C156.126 148.737 156.626 146.937 157.426 145.437C158.626 143.037 160.926 142.137 163.426 142.637C165.126 142.937 166.826 143.637 168.226 144.637C171.226 146.637 172.326 149.937 171.326 152.937C170.326 156.137 167.026 158.337 163.626 158.337Z" fill="black"/>
<path d="M64.2256 92.8375C64.2256 90.6375 64.8256 88.7375 66.4256 87.2375C68.9256 84.9375 72.5256 85.1375 74.6256 87.7375C75.3256 88.6375 76.0256 89.4375 76.8256 90.2375C78.0256 91.4375 78.9256 92.8375 79.3256 94.5375C80.3256 99.2375 76.4256 103.238 71.7256 102.338C67.6256 101.638 64.3256 97.4375 64.2256 92.8375Z" fill="black"/>
<path d="M190.526 41.7378C187.626 41.7378 185.126 39.9378 184.426 37.0378C184.126 35.7378 183.626 34.5378 182.726 33.4378C180.626 30.9378 181.426 27.4378 184.326 25.9378C184.926 25.6378 185.626 25.3378 186.326 25.2378C191.026 24.6378 196.626 28.9378 197.126 33.6378C197.626 37.9378 194.526 41.7378 190.526 41.7378Z" fill="black"/>
<path d="M123.626 50.8373C123.626 53.2373 123.226 55.0373 122.026 56.7373C119.526 60.3373 114.626 60.6373 111.726 57.2373C109.326 54.5373 109.126 50.7373 111.026 47.7373C111.426 47.0373 111.826 46.3373 112.126 45.6373C113.726 41.6373 118.226 40.7373 121.126 43.9373C123.126 46.0373 123.626 48.5373 123.626 50.8373Z" fill="black"/>
<path d="M221.426 62.6374C221.426 66.4374 218.626 69.4374 214.926 69.7374C210.926 70.0374 207.426 67.1374 207.026 63.0374C206.826 61.5374 206.926 60.0374 207.026 58.5374C207.326 55.9374 209.426 54.1374 212.126 53.9374C216.626 53.5374 221.526 58.1374 221.426 62.6374Z" fill="black"/>
<path d="M242.626 92.0372C242.626 95.8372 239.626 99.2372 235.726 99.6372C232.126 100.037 228.626 97.6372 227.926 94.0372C227.426 91.6372 228.026 89.2372 229.026 87.1372C229.426 86.2372 230.526 85.4372 231.426 84.9372C236.126 82.6372 242.626 86.7372 242.626 92.0372Z" fill="black"/>
<path d="M196.026 117.237C196.026 120.537 193.926 123.337 190.726 124.037C187.726 124.737 184.726 123.137 183.326 120.137C182.926 119.337 182.426 118.437 181.826 117.737C179.726 114.837 180.726 111.037 184.026 109.537C189.226 107.237 196.026 111.637 196.026 117.237Z" fill="black"/>
<path d="M147.726 58.1379C147.726 58.4379 147.726 58.8379 147.626 59.3379C147.126 62.7379 144.726 65.1379 141.626 65.1379C138.626 65.1379 136.126 62.9379 135.526 59.7379C135.226 57.9379 134.826 56.1379 134.526 54.3379C134.126 52.2379 134.626 50.3379 136.426 49.0379C138.326 47.6379 140.326 47.7379 142.326 48.8379C145.026 50.2379 147.726 54.7379 147.726 58.1379Z" fill="black"/>
<path d="M93.6258 136.038C93.4258 138.638 92.1258 140.838 89.4258 142.038C86.7258 143.238 84.1258 142.838 81.8258 140.838C79.1258 138.538 78.2258 134.238 79.7258 130.938C81.2258 127.638 84.9258 126.338 88.2258 128.038C91.6258 129.738 93.6258 132.638 93.6258 136.038Z" fill="black"/>
<path d="M117.026 93.7378C116.926 95.2378 116.926 96.2378 116.826 97.1378C116.426 99.5378 115.026 101.138 112.626 101.838C110.326 102.438 108.326 101.738 106.826 100.038C104.026 97.0378 104.326 91.8378 107.126 89.0378C109.026 87.2378 111.726 86.7378 114.026 87.8378C116.226 88.8378 117.226 90.9378 117.126 93.5378C117.026 93.8378 117.026 94.0378 117.026 93.7378Z" fill="black"/>
<path d="M142.226 130.238C142.226 132.838 140.326 135.038 137.626 135.638C135.026 136.238 132.726 135.538 130.826 133.538C129.026 131.538 128.426 129.238 129.126 126.638C129.726 124.438 131.226 123.038 133.426 122.538C135.526 122.038 137.326 122.738 138.826 124.338C139.426 125.038 140.126 125.738 140.726 126.438C141.826 127.538 142.326 128.738 142.226 130.238Z" fill="black"/>
<path d="M116.726 119.838C116.626 123.038 115.626 124.938 113.426 126.038C111.226 127.138 109.026 126.838 107.126 125.338C104.226 123.138 103.526 118.638 105.426 115.538C107.726 111.838 112.726 111.838 114.926 115.638C115.826 117.038 116.326 118.838 116.726 119.838Z" fill="black"/>
<path d="M153.026 101.037C153.026 104.037 151.326 106.537 148.726 107.237C146.126 107.937 143.326 106.737 141.926 104.137C141.026 102.537 140.626 100.737 141.026 98.8372C141.526 96.4372 142.926 94.8371 145.326 94.2371C147.626 93.6371 149.526 94.4371 151.126 96.1371C152.426 97.4371 152.926 99.2371 153.026 101.037Z" fill="black"/>
<path d="M137.526 89.3379C134.226 89.3379 131.226 86.2379 131.226 82.8379C131.226 79.8379 133.526 77.5379 136.526 77.6379C140.426 77.6379 143.426 80.2379 143.426 83.4379C143.426 86.5379 140.726 89.3379 137.526 89.3379Z" fill="black"/>
<path d="M100.299 331.9C89.7989 332.1 81.0989 328.8 73.4989 322.7C69.3989 319.3 65.4989 315.5 61.6989 311.8C55.8989 306.2 50.3989 300.3 45.4989 293.8C40.4989 287.3 36.9989 280.1 34.9989 272.2C34.1989 269.2 33.4989 266.1 32.9989 263.1C31.6989 255.3 32.6989 247.6 34.5989 240C36.1989 233.5 38.3989 227.1 40.3989 220.7C42.7989 213 45.1989 205.3 46.5989 197.3C47.4989 192.3 45.9989 188.1 42.4989 184.7C39.4989 181.7 36.4989 178.8 33.2989 175.9C28.6989 171.8 23.0989 169.4 17.2989 167.4C11.2989 165.3 5.99886 162.2 2.39886 156.7C-0.901136 151.6 -0.401136 146.4 1.59886 141.1C1.99886 139.9 2.49886 138.6 3.09886 137.6C4.29886 135.7 5.59886 133.7 7.09886 132C8.79886 130.1 11.1989 129.6 13.6989 130.3C17.1989 131.3 18.8989 134.9 17.1989 138.1C16.4989 139.5 15.3989 140.8 14.3989 142C11.7989 145.1 11.7989 146.1 15.0989 148.3C21.8989 152.8 28.4989 157.5 36.3989 160.2C43.3989 162.7 49.7989 166.6 55.9989 170.8C58.4989 172.5 60.0989 174.8 61.1989 177.5C63.4989 182.9 64.0989 188.6 63.7989 194.4C63.2989 205.2 60.8989 215.6 58.5989 226.1C57.1989 232.6 55.7989 239.1 54.8989 245.6C53.7989 254 56.1989 261.8 60.9989 268.7C66.7989 277 74.3989 283.5 83.6989 287.7C91.6989 291.3 99.6989 295 107.599 298.9C110.199 300.1 112.599 301.8 114.899 303.5C120.099 307.5 122.099 312.9 120.299 319.2C118.499 325.7 114.399 330 107.599 331.1C104.999 331.6 102.299 331.7 100.299 331.9ZM43.8989 255C43.6989 255 43.5989 255 43.3989 255.1C43.4989 256.8 43.3989 258.6 43.6989 260.3C44.1989 263.4 44.8989 266.4 45.5989 269.4C47.1989 275.9 50.1989 281.8 54.2989 287.1C61.4989 296.7 70.1989 304.8 79.0989 312.8C85.6989 318.8 93.4989 321.5 102.499 320.5C103.899 320.3 105.399 320.3 106.699 319.9C109.999 318.8 110.899 314.6 108.299 312.4C106.699 311.1 104.999 309.9 103.099 309C95.5989 305.4 88.1989 301.7 80.4989 298.4C69.8989 293.8 61.1989 286.8 53.9989 277.9C48.9989 271.8 45.8989 264.7 44.2989 257C44.2989 256.4 44.0989 255.7 43.8989 255Z" fill="black"/>
<path d="M95.1988 190.5C94.4988 195.7 93.6988 201.8 92.9988 207.9C92.0988 215.9 89.6988 223.5 87.6988 231.3C85.5988 239.3 84.2988 247.4 83.7988 255.7C83.6988 258.2 83.7988 260.7 84.1988 263.1C84.4988 264.8 85.2988 266.5 86.2988 267.9C88.3988 270.9 91.1988 273.1 94.1988 275.2C100.699 279.6 107.099 284.1 113.499 288.6C115.599 290.1 117.599 291.7 119.299 293.6C124.599 299.3 127.399 305.9 125.899 313.8C123.999 323.9 114.499 331.5 104.199 331.4C97.2988 331.3 90.8988 329.4 85.1988 325.6C77.7988 320.7 70.6988 315.4 64.3988 309C60.8988 305.4 57.7988 301.6 55.1988 297.4C54.6988 296.5 54.0988 295.6 53.4988 294.8C48.2988 288.5 45.4988 281.1 43.2988 273.3C40.0988 262 40.7988 251 44.9988 240.1C46.6988 235.6 48.7988 231.1 50.7988 226.7C53.4988 220.8 56.0988 214.9 57.3988 208.5C58.4988 203.5 58.7988 198.4 58.0988 193.2C56.9988 185.6 53.4988 179.3 47.7988 174.2C45.7988 172.4 43.5988 170.7 41.3988 169.2C31.4988 162.6 21.1988 157 9.59884 153.7C9.09884 153.6 8.69884 153.4 8.19884 153.3C0.498836 151.7 -1.80116 142.3 1.39884 136.5C3.79884 132.2 6.89884 128.7 10.6988 125.6C15.1988 122 20.3988 120.1 26.1988 120C28.6988 120 31.1988 120 33.5988 120.2C42.6988 121.1 51.2988 123.9 59.0988 128.7C62.1988 130.6 65.1988 132.6 68.0988 134.7C83.2988 145.9 91.6988 161.1 94.1988 179.7C94.5988 183 94.7988 186.3 95.1988 190.5Z" fill="#EA552B"/>
<mask id="mask0_291_62" style="mask-type:alpha" maskUnits="userSpaceOnUse" x="0" y="120" width="127" height="212">
<path d="M95.1988 190.5C94.4988 195.7 93.6988 201.8 92.9988 207.9C92.0988 215.9 89.6988 223.5 87.6988 231.3C85.5988 239.3 84.2988 247.4 83.7988 255.7C83.6988 258.2 83.7988 260.7 84.1988 263.1C84.4988 264.8 85.2988 266.5 86.2988 267.9C88.3988 270.9 91.1988 273.1 94.1988 275.2C100.699 279.6 107.099 284.1 113.499 288.6C115.599 290.1 117.599 291.7 119.299 293.6C124.599 299.3 127.399 305.9 125.899 313.8C123.999 323.9 114.499 331.5 104.199 331.4C97.2988 331.3 90.8988 329.4 85.1988 325.6C77.7988 320.7 70.6988 315.4 64.3988 309C60.8988 305.4 57.7988 301.6 55.1988 297.4C54.6988 296.5 54.0988 295.6 53.4988 294.8C48.2988 288.5 45.4988 281.1 43.2988 273.3C40.0988 262 40.7988 251 44.9988 240.1C46.6988 235.6 48.7988 231.1 50.7988 226.7C53.4988 220.8 56.0988 214.9 57.3988 208.5C58.4988 203.5 58.7988 198.4 58.0988 193.2C56.9988 185.6 53.4988 179.3 47.7988 174.2C45.7988 172.4 43.5988 170.7 41.3988 169.2C31.4988 162.6 21.1988 157 9.59884 153.7C9.09884 153.6 8.69884 153.4 8.19884 153.3C0.498836 151.7 -1.80116 142.3 1.39884 136.5C3.79884 132.2 6.89884 128.7 10.6988 125.6C15.1988 122 20.3988 120.1 26.1988 120C28.6988 120 31.1988 120 33.5988 120.2C42.6988 121.1 51.2988 123.9 59.0988 128.7C62.1988 130.6 65.1988 132.6 68.0988 134.7C83.2988 145.9 91.6988 161.1 94.1988 179.7C94.5988 183 94.7988 186.3 95.1988 190.5Z" fill="#EA552B"/>
</mask>
<g mask="url(#mask0_291_62)">
<path fill-rule="evenodd" clip-rule="evenodd" d="M54.8988 138.3C54.8988 135.8 53.2988 134 50.9988 134C48.9988 134 47.2988 135.6 47.1988 137.8C47.0988 140.5 48.6988 142.5 50.8988 142.5C53.0988 142.6 54.8988 140.7 54.8988 138.3ZM87.3988 180.7C87.3988 183.1 85.3988 185 82.8988 185C80.4988 184.9 78.6988 183.1 78.7988 180.7C78.8988 178.4 80.7988 176.6 83.1988 176.6C85.4988 176.5 87.3988 178.3 87.3988 180.7ZM71.1987 211.3C73.7987 211.3 75.4987 209.1 75.4987 206C75.3987 203.7 73.8987 202.1 71.7987 202.3C69.3987 202.3 67.1987 204.7 67.1987 207.2C67.1987 209.6 68.8987 211.3 71.1987 211.3ZM80.7988 227C80.7988 229.9 78.8988 231.9 76.4988 231.7C74.1988 231.6 72.2988 229.6 72.5988 227.2C72.6988 226.1 73.1988 224.9 73.7988 223.9C74.6988 222.4 76.0988 221.8 77.8988 222.1C79.5988 222.4 80.1988 223.7 80.4988 225.2L80.4988 225.2C80.5988 225.9 80.6988 226.6 80.7988 227ZM69.2411 247.314C69.3234 246.978 69.4063 246.639 69.4988 246.3C69.3988 244.2 68.6988 242.8 67.2988 242.1C65.6988 241.4 63.6988 241.8 62.3988 243.1C61.0988 244.4 60.3988 245.9 60.4988 247.8C60.5988 249.9 61.9988 251.5 63.8988 251.9C65.7988 252.3 67.7988 251.4 68.5988 249.5C68.8755 248.808 69.0565 248.069 69.2411 247.314ZM88.2832 294.489C88.2568 294.649 88.2289 294.819 88.1987 295C88.3145 295.318 88.4302 295.687 88.5556 296.086L88.5557 296.086C88.8637 297.067 89.2302 298.234 89.7987 299.3C90.8987 301 93.0987 301.5 94.8987 300.7C96.5987 299.9 97.5987 298 97.0987 296.1C96.6987 294.6 95.9987 293.1 95.2987 291.7C94.5987 290.4 93.3987 289.8 91.8987 289.9C90.2987 290 89.1987 290.9 88.6987 292.4C88.5289 292.994 88.4312 293.589 88.2832 294.489ZM72.5988 280.4C72.5988 283.2 70.6988 285.3 68.1988 285.4C65.6988 285.4 63.7988 283.4 63.8988 280.7C63.9988 277.8 65.9988 275.4 68.3988 275.5C70.7988 275.6 72.5988 277.7 72.5988 280.4ZM104.999 318.1C107.299 318.1 109.199 316.2 109.199 313.8C108.899 310.8 107.799 308.2 105.099 308.3C102.599 308.3 100.499 310.6 100.499 313.4C100.599 316 102.599 318.1 104.999 318.1ZM61.6988 157C63.7988 157.2 65.4988 159.1 65.2988 161.3C65.0988 163.6 63.0988 165.4 60.6988 165.2C58.5988 165 57.0988 163.3 57.1988 161.1C57.3988 158.7 59.3988 156.9 61.6988 157ZM19.6988 144.3C21.1988 144.3 22.2988 143 22.2988 141.5C22.1988 139.9 20.8988 138.7 19.4988 138.8C18.0988 138.9 16.8988 140.4 16.9988 141.8C17.0988 143.2 18.2988 144.3 19.6988 144.3Z" fill="#FBE8DE"/>
</g>
</svg>
