<svg width="553" height="563" viewBox="0 0 553 563" fill="none" xmlns="http://www.w3.org/2000/svg">
<path d="M319.381 508.527C311.772 517.937 303.063 526.167 292.758 532.409C286.567 536.227 280.007 539.083 272.707 540.017C268.916 540.497 265.216 540.401 261.517 539.524C257.742 538.582 254.107 537.628 250.332 536.687C244.957 535.32 240.057 532.917 235.658 529.759C231.49 526.794 227.321 523.829 223.601 520.327C217.018 514.17 211.692 506.977 207.366 499.057C204.316 493.507 202.085 487.601 200.06 481.605C198.621 477.403 197.258 473.265 195.819 469.063C191.539 456.879 190.345 444.278 190.765 431.462C191.105 420.144 192.738 408.995 194.23 397.859C198.561 367.585 202.827 337.389 207.375 307.168C211.107 282.13 212.766 256.923 212.068 231.57C211.499 213.234 210.866 194.975 210.297 176.639C209.813 160.851 209.816 144.949 211.534 129.178C213.512 111.538 216.577 94.156 222.254 77.3933C225.047 68.9094 228.736 60.9137 234.126 53.6892C239.324 46.6949 245.634 41.0213 253.132 36.7326C262.309 31.3714 272.298 30.3393 282.551 31.4844C294.162 32.7215 305.283 35.6349 316.172 39.918C330.668 45.6543 343.559 54.0894 355.449 64.0335C362.122 69.615 367.283 76.5382 371.853 84.0109C377.573 93.227 381.857 103.068 385.052 113.432C391.354 133.955 394.363 154.984 394.722 176.533C394.97 195.252 393.209 213.725 389.873 232.054C386.227 251.688 381.864 271.245 377.272 290.608C372.485 310.983 367.916 331.41 364.512 352.159C360.629 375.506 356.388 398.814 352.428 422.097C351.769 425.847 351.262 429.726 350.743 433.463C348.723 446.635 345.972 459.587 340.97 471.959C337.304 481.018 333.191 489.832 327.441 497.799C324.797 501.584 322.051 505.023 319.381 508.527Z" fill="black"/>
<mask id="mask0_291_147" style="mask-type:alpha" maskUnits="userSpaceOnUse" x="190" y="31" width="205" height="510">
<path d="M319.381 508.527C311.772 517.937 303.063 526.167 292.758 532.409C286.567 536.227 280.007 539.083 272.707 540.017C268.916 540.497 265.216 540.401 261.517 539.524C257.742 538.582 254.107 537.628 250.332 536.687C244.957 535.32 240.057 532.917 235.658 529.759C231.49 526.794 227.321 523.829 223.601 520.327C217.018 514.17 211.692 506.977 207.366 499.057C204.316 493.507 202.085 487.601 200.06 481.605C198.621 477.403 197.258 473.265 195.819 469.063C191.539 456.879 190.345 444.278 190.765 431.462C191.105 420.144 192.738 408.995 194.23 397.859C198.561 367.585 202.827 337.389 207.375 307.168C211.107 282.13 212.766 256.923 212.068 231.57C211.499 213.234 210.866 194.975 210.297 176.639C209.813 160.851 209.816 144.949 211.534 129.178C213.512 111.538 216.577 94.156 222.254 77.3933C225.047 68.9094 228.736 60.9137 234.126 53.6892C239.324 46.6949 245.634 41.0213 253.132 36.7326C262.309 31.3714 272.298 30.3393 282.551 31.4844C294.162 32.7215 305.283 35.6349 316.172 39.918C330.668 45.6543 343.559 54.0894 355.449 64.0335C362.122 69.615 367.283 76.5382 371.853 84.0109C377.573 93.227 381.857 103.068 385.052 113.432C391.354 133.955 394.363 154.984 394.722 176.533C394.97 195.252 393.209 213.725 389.873 232.054C386.227 251.688 381.864 271.245 377.272 290.608C372.485 310.983 367.916 331.41 364.512 352.159C360.629 375.506 356.388 398.814 352.428 422.097C351.769 425.847 351.262 429.726 350.743 433.463C348.723 446.635 345.972 459.587 340.97 471.959C337.304 481.018 333.191 489.832 327.441 497.799C324.797 501.584 322.051 505.023 319.381 508.527Z" fill="black"/>
</mask>
<g mask="url(#mask0_291_147)">
<path d="M411.293 23.9166C410.407 25.1314 409.855 26.1035 409.073 26.8831C406.494 29.8105 403.839 32.6738 401.26 35.6012C386.98 52.2078 375.411 70.5605 366.835 90.6342C354.864 118.819 345.235 147.79 340.777 178.216C333.802 226.615 335.176 274.695 346.947 322.346C354.701 353.601 363.711 384.602 373.887 415.144C382.827 442.176 390.729 469.513 396.62 497.384C398.297 505.044 399.832 512.716 400.317 520.553C400.58 524.292 400.419 528.069 400.182 531.781C400.064 533.638 399.458 535.608 398.764 537.374C396.951 541.724 393.298 543.753 388.716 542.529C386.246 541.897 383.662 540.779 381.552 539.405C378.24 537.286 375.12 534.938 372.256 532.282C349.045 510.001 330.154 484.424 316.339 455.271C307.857 437.356 301.847 418.511 297.08 399.271C288.881 366.21 285.035 332.619 284.136 298.624C282.91 253.796 288.353 209.722 299.25 166.299C305.117 142.917 311.432 119.779 317.517 96.4487C322.068 79.0053 326.261 61.5229 328.866 43.756C330.901 29.9445 331.937 16.0799 330.694 2.13447C330.18 -3.64092 329.307 -9.45537 327.601 -15.0536C326.086 -20.101 324.021 -24.9573 320.533 -29.0479C318.552 -31.3561 316.251 -33.2808 313.18 -34.2849C310.25 -35.3017 307.356 -35.1147 304.562 -33.801C301.833 -32.5639 299.589 -30.6601 297.51 -28.4872C291.43 -21.8401 287.37 -14.0243 284.359 -5.59205C280.279 5.98803 277.94 17.9809 275.819 30.0254C271.628 53.8969 269.306 78.0277 268.059 102.276C266.638 130.941 263.847 159.373 259.699 187.713C257.457 203.176 255.496 218.613 253.176 234.012C248.149 267.613 247.461 301.324 251.05 335.222C254.135 364.266 259.449 392.828 266.581 421.085C270.356 436.367 274.619 451.534 278.817 466.778C286.003 493.256 292.639 519.925 297.252 546.988C300.04 563.138 302.059 579.428 302.107 595.894C302.164 606.892 301.504 617.813 299.193 628.525C298.341 632.506 297.259 636.294 295.306 639.875C293.957 642.267 292.379 644.467 290.186 646.153C286.596 648.886 282.561 649.814 278.235 649.063C273.768 648.326 269.892 646.257 266.389 643.588C259.842 638.634 255.142 632.096 251.237 624.919C246.413 616.191 243.164 606.825 240.608 597.257C237.505 585.536 235.593 573.638 234.59 561.587C230.992 518.817 225.011 476.4 218.045 434.071C213.448 405.588 210.682 376.941 210.529 348.132C210.382 322.589 212.514 297.126 215.658 271.857C221.528 225.403 229.28 179.349 239.259 133.593C243.997 111.874 248.158 90.0639 250.95 68.0209C252.678 53.9527 253.907 39.858 253.42 25.6322C253.165 17.9879 252.282 10.4706 250.49 3.10524C248.367 -5.57947 245.015 -13.7286 239.817 -21.0744C236.087 -26.2794 231.472 -30.2696 225.497 -32.7898C217.054 -36.7228 209.305 -35.2514 202.776 -28.8483C197.415 -23.6852 193.857 -17.4049 191.502 -10.3799C188.58 -1.74263 187.604 7.21824 187.28 16.3339C186.823 28.7271 187.569 41.084 188.533 53.4925C190.272 76.1966 193.561 98.7626 196.849 121.329C198.911 135.698 201.049 150.132 202.905 164.59C206.123 191.138 206.869 217.835 206.13 244.594C205.064 282.03 202.782 319.361 199.72 356.691C198.371 373.424 195.371 389.948 192.448 406.536C189.834 421.819 187.08 437.115 185.618 452.579C184.299 467.25 183.978 481.973 186.205 496.612C188.166 509.854 191.792 522.665 198.314 534.507C201.288 539.992 204.799 545.146 209.504 549.341C211.894 551.47 214.541 553.293 217.561 554.515C219.326 555.21 221.131 555.546 223.105 554.589C222.784 554.972 222.681 555.408 222.283 555.727C221.078 556.544 219.657 556.529 218.339 556.078C216.061 555.217 213.707 554.29 211.674 552.981C206.545 549.604 202.802 545.04 199.508 539.938C192.919 529.734 188.727 518.536 186.046 506.778C182.108 489.665 181.78 472.443 183.207 454.994C184.463 439.619 186.936 424.349 189.703 409.194C193.402 388.561 196.601 367.902 197.932 346.983C198.84 333.272 199.607 319.573 200.438 305.798C201.863 281.96 203.071 258.07 203.28 234.128C203.646 201.582 200.912 169.311 196.053 137.089C192.724 115.662 189.958 94.1852 187.257 72.6317C185.16 56.2777 184.191 39.8232 184.208 23.2808C184.222 15.4706 184.671 7.76355 185.978 0.122073C187.4 -7.81369 189.705 -15.4022 194.135 -22.257C196.51 -25.8763 199.192 -29.2388 202.564 -32.024C209.245 -37.5177 216.725 -38.8231 224.799 -35.8511C232.719 -33.0073 238.651 -27.7856 243.247 -20.8122C248.419 -12.9671 251.745 -4.31866 253.765 4.80118C255.936 14.8304 256.482 24.9335 256.323 35.0993C256.024 51.6668 254.01 68.1032 251.497 84.513C248.492 104.161 244.334 123.628 240.177 143.095C230.712 187.456 223.194 232.14 217.697 277.213C214.696 301.688 212.846 326.345 213.135 351.095C213.446 377.688 216.011 404.081 220.061 430.413C223.58 453.172 226.958 475.943 230.272 498.79C233.181 518.693 234.682 538.72 236.464 558.723C237.468 569.992 238.972 581.287 241.526 592.418C244.258 603.959 247.951 615.131 253.989 625.525C257.078 630.716 260.565 635.588 264.975 639.667C267.531 642.066 270.408 644.082 273.658 645.496C282.306 649.34 289.814 646.754 293.734 638.17C295.161 635.061 296.14 631.708 296.914 628.444C299.663 616.273 299.98 603.892 299.579 591.434C299.075 573.021 296.277 555.168 292.916 537.364C287.715 510.071 280.567 483.234 273.073 456.499C266.253 432.544 260.061 408.462 255.329 384.037C249.633 354.373 246.255 324.432 245.758 294.164C245.439 272.256 247.693 250.545 250.663 228.912C254.412 201.672 258.02 174.445 261.334 147.102C262.738 134.98 263.49 122.702 264.178 110.502C265.431 89.5185 266.826 68.5229 269.795 47.671C271.74 34.4354 273.965 21.1748 277.202 8.10796C279.292 -0.313153 281.752 -8.55434 285.748 -16.2935C288.819 -22.4594 292.568 -28.1887 297.979 -32.7884C298.569 -33.3379 299.236 -33.8233 299.838 -34.2319C308.569 -40.6182 316.463 -37.2751 321.626 -31.914C325.383 -27.9893 327.871 -23.1707 329.668 -18.1485C332.445 -10.09 333.684 -1.75255 334.092 6.80106C334.785 20.1566 333.698 33.4577 331.69 46.77C328.983 64.191 324.894 81.2382 320.446 98.2464C314.091 122.524 307.594 146.814 301.52 171.066C294.737 198.505 289.834 226.344 288.094 254.612C285.288 298.805 287.565 342.687 296.975 386.147C300.443 401.953 304.742 417.543 310.144 432.751C319.138 458.003 332.119 480.983 348.623 502.087C355.279 510.652 362.268 518.974 370.116 526.581C374.474 530.878 378.82 535.034 384.269 538.027C385.983 538.939 387.684 539.71 389.566 540.111C392.97 540.872 395.418 539.66 396.615 536.359C397.373 534.516 397.761 532.494 397.944 530.561C398.439 525.761 398.217 520.882 397.38 516.271C395.694 506.909 394.008 497.546 391.835 488.298C385.762 461.579 377.615 435.47 368.916 409.553C359.696 381.765 351.577 353.595 344.368 325.273C334.895 288.279 331.979 250.772 333.839 212.697C336.227 166.198 348.29 122.316 367.967 80.2396C374.111 67.1268 381.763 55.0153 390.836 43.7002C396.585 36.5148 403.024 29.9067 410.255 24.222C410.32 24.1453 410.537 24.1969 411.293 23.9166Z" fill="#FBE8DE"/>
</g>
<path d="M361.592 191.415C359.692 191.615 357.892 191.915 355.992 192.115C342.692 193.615 329.492 195.715 316.792 199.815C312.992 201.015 309.292 202.515 305.692 204.215C303.392 205.315 301.192 206.715 299.292 208.415C293.692 213.315 294.292 220.215 300.792 223.915C303.592 225.515 306.792 226.515 309.792 227.715C310.692 228.115 311.592 228.315 312.492 229.015C311.792 229.215 311.092 229.415 310.392 229.615C304.592 231.015 298.692 232.415 293.192 234.915C290.492 236.115 287.892 237.515 285.392 239.115C283.892 240.015 282.592 241.315 281.492 242.615C278.292 246.515 278.192 251.315 281.092 255.515C282.592 257.715 284.692 259.415 286.892 260.815C290.792 263.315 294.892 265.115 299.192 266.615C309.492 270.315 320.192 272.915 330.892 275.215C341.992 277.515 353.192 279.615 364.292 281.815C364.992 281.915 365.592 282.115 366.292 282.715C365.392 283.115 364.592 283.415 363.692 283.815C356.992 286.515 350.492 289.615 344.692 293.915C341.992 295.915 339.492 298.215 337.192 300.615C335.092 302.815 333.792 305.715 333.492 308.815C332.992 313.215 334.592 317.015 337.592 320.215C340.092 322.915 343.192 324.715 346.492 326.215C352.192 328.715 358.192 330.115 364.292 331.015C380.992 333.415 397.792 333.315 414.492 331.715C426.792 330.515 438.892 328.415 450.692 324.815C455.092 323.415 459.492 321.815 463.492 319.515C466.392 317.915 468.992 316.015 471.292 313.515C476.992 307.015 477.592 299.215 473.092 292.015C471.292 289.215 469.092 286.915 466.492 284.815C462.892 281.915 459.092 279.515 454.892 277.615C450.092 275.415 445.192 273.415 440.392 271.315C439.692 271.015 438.992 270.715 437.792 270.215C438.792 269.715 439.292 269.415 439.892 269.115C445.292 266.615 450.692 264.215 455.892 261.515C461.092 258.815 465.892 255.515 469.992 251.215C471.992 249.115 473.792 246.815 475.192 244.415C478.992 237.815 479.192 230.915 475.892 223.915C473.792 219.515 470.692 215.915 467.092 212.615C463.192 209.015 458.792 206.115 454.292 203.415C453.592 203.015 452.792 202.515 451.892 201.915C452.692 201.415 453.292 201.115 453.892 200.815C460.392 197.615 465.492 192.915 469.192 186.615C472.092 181.615 474.392 176.315 475.392 170.615C476.392 165.815 475.192 161.515 472.192 157.615C468.792 153.215 464.492 149.915 459.292 148.015C455.892 146.715 452.392 145.515 448.792 144.715C439.892 142.815 430.892 141.015 421.992 139.615C403.292 136.615 384.492 134.815 365.592 135.015C354.892 135.115 344.192 135.915 333.692 138.315C329.192 139.315 324.792 140.515 320.792 142.715C318.092 144.215 315.292 145.815 313.092 147.915C306.292 154.015 306.192 162.115 312.692 168.515C314.592 170.415 316.792 172.215 319.092 173.515C323.692 176.115 328.392 178.615 333.192 180.515C341.892 184.015 350.792 187.015 359.492 190.115C360.192 190.415 360.892 190.615 361.592 190.915C361.592 191.115 361.592 191.215 361.592 191.415Z" fill="#F7D046"/>
</svg>
