<svg width="324" height="386" viewBox="0 0 324 386" fill="none" xmlns="http://www.w3.org/2000/svg">
<path d="M103.85 130.646C100.381 145.178 90.8906 154.779 79.5632 162.882C73.2425 167.431 66.4762 171.193 58.9106 173.338C55.7188 174.267 52.5405 174.972 49.2317 174.864C47.2228 174.743 45.2666 174.492 43.3372 173.794C39.7407 172.503 37.8664 169.389 37.9625 165.542C38.0176 163.126 38.8736 160.803 39.9394 158.716C41.8604 155.068 44.4243 151.906 47.3293 149.034C54.9533 141.426 64.0979 136.105 74.1079 132.045C80.8073 129.4 87.7426 127.307 94.769 125.935C95.268 125.831 95.6359 125.674 96.2269 125.53C96.4141 122.405 95.5112 119.528 94.3851 116.639C89.868 104.54 83.1699 93.7003 74.514 84.1319C71.6549 81.0037 68.6512 78.0461 65.4109 75.2983C59.2847 69.8687 52.1194 66.0794 44.2696 63.9963C42.9044 63.6009 41.5392 63.2055 40.1348 62.7181C40.0035 62.6655 39.9249 62.4815 39.7285 62.0218C40.4508 61.9306 40.9498 61.8261 41.4882 61.8136C50.6531 62.1386 59.0539 64.7475 66.8219 69.693C76.4399 75.9142 84.244 83.9979 90.6285 93.3407C95.8594 101.001 100.171 109.055 102.774 117.947C103.376 119.865 103.741 121.993 104.238 124.173C104.776 124.16 105.407 124.109 106.037 124.057C115.466 122.964 124.816 122.449 134.256 123.417C141.87 124.187 149.261 125.705 156.388 128.641C160.234 130.26 163.921 132.273 167.122 134.929C175.269 141.779 177.308 150.369 172.965 160.054C172.754 160.579 172.543 161.104 172.227 161.892C173.396 161.827 174.25 161.789 175.234 161.803C182.877 161.365 190.545 161.242 198.252 161.972C204.843 162.636 211.355 163.877 217.563 166.444C220.581 167.656 223.311 169.208 225.83 171.285C231.799 176.347 233.971 182.705 232.256 190.397C231.992 191.815 231.465 193.128 231.057 194.716C232.225 194.652 233.079 194.613 234.024 194.536C242.442 193.875 251.003 193.805 259.419 194.668C261.559 194.841 263.686 195.237 265.76 195.765C266.823 195.963 267.768 196.647 268.765 197.199C269.539 197.738 269.893 198.566 269.432 199.524C268.972 200.482 268.118 200.52 267.147 200.283C265.112 199.848 263.025 199.543 260.976 199.331C250.644 198.309 240.323 198.587 230.093 199.587C229.147 199.664 228.241 199.834 227.689 200.831C221.783 210.424 213.555 217.637 204.265 223.89C191.374 232.66 177.357 239.303 162.396 243.738C157.287 245.268 152.204 246.353 146.834 246.255C144.864 246.227 142.816 246.014 140.965 245.5C136.384 244.196 134.589 240.504 136.117 235.936C137.092 233.127 138.709 230.805 140.721 228.64C144.52 224.298 149.12 220.81 154.007 217.743C163.323 211.805 173.347 207.522 183.894 204.211C196.727 200.142 209.887 197.346 223.164 195.587C224.701 195.366 225.712 194.934 226.121 193.345C226.688 191.363 227.478 189.394 227.821 187.399C228.535 182.962 227.147 179.205 223.881 176.142C221.677 174.038 219.118 172.631 216.362 171.525C211.69 169.498 206.78 168.442 201.765 167.649C191.105 166.114 180.39 166.234 169.674 167.115C168.729 167.193 168.046 167.376 167.415 168.189C160.815 175.903 152.589 181.593 143.786 186.442C134.287 191.697 124.316 195.849 113.77 198.398C109.724 199.365 105.601 200.148 101.438 200.078C99.6919 200.063 97.8669 199.864 96.2393 199.364C92.2357 198.138 90.8346 194.604 92.8868 191.009C93.8866 189.277 95.1882 187.742 96.6603 186.352C100.787 182.522 105.701 179.77 110.694 177.202C126.761 169.249 144.032 165.131 161.722 163.01C162.352 162.958 162.943 162.814 163.613 162.854C164.689 162.829 165.438 162.292 165.938 161.425C167.043 159.431 168.372 157.449 169.083 155.297C170.953 150.257 169.934 145.581 166.13 141.769C164.189 139.771 161.735 138.101 159.268 136.654C154.938 134.154 150.186 132.705 145.368 131.61C135.247 129.301 124.914 129.04 114.566 129.765C111.244 129.879 107.632 130.335 103.85 130.646ZM221.964 200.668C221.294 200.628 221.071 200.614 220.756 200.64C220.217 200.653 219.626 200.796 219.088 200.809C205.588 202.554 192.283 205.52 179.463 210.128C170.123 213.467 161.098 217.541 152.951 223.414C149.298 226.063 145.776 228.764 142.962 232.359C141.792 233.946 140.792 235.678 140.055 237.516C139.37 239.222 140.051 240.562 141.955 240.945C143.635 241.315 145.46 241.513 147.167 241.437C153.089 241.298 158.737 239.755 164.359 237.897C176.614 233.747 188.11 228.074 199.016 221.022C206.755 215.975 214.036 210.363 220.018 203.239C220.465 202.504 221.135 201.783 221.964 200.668ZM95.3267 132.331C94.1053 132.526 93.2911 132.657 92.6081 132.84C89.8761 133.572 87.1968 134.173 84.5042 134.998C74.7843 137.955 65.7065 142.16 57.5851 148.349C53.4061 151.548 49.6994 155.089 46.7928 159.485C45.7537 161.125 44.9771 162.871 44.3318 164.669C43.607 167.045 44.4857 168.083 46.9276 168.453C47.8597 168.599 48.8445 168.613 49.7507 168.443C52.0621 167.999 54.5049 167.608 56.7904 166.849C65.0657 164.074 72.4105 159.631 79.1919 154.123C84.9876 149.363 89.9307 143.88 93.3388 137.095C94.0494 135.704 94.5894 134.168 95.3267 132.331ZM97.3485 193.561C97.4271 193.745 97.5449 194.021 97.7155 194.165C98.7396 194.272 99.7503 194.601 100.735 194.615C102.757 194.512 104.911 194.462 106.946 194.136C116.717 192.571 125.886 189.088 134.793 184.738C142.912 180.834 150.717 176.194 157.696 170.385C158.261 169.926 158.787 169.375 159.312 168.824C158.341 168.587 157.448 168.533 156.673 168.756C150.776 169.97 144.853 170.87 139.074 172.361C128.528 174.91 118.361 178.602 109.032 184.001C105.879 185.784 102.961 188.118 100.136 190.413C98.9268 191.147 98.1769 192.446 97.3485 193.561Z" fill="black"/>
<path d="M199.063 385.018C193.852 384.728 189.22 382.991 185.456 379.228C183.14 376.912 180.969 374.306 179.087 371.411C172.573 361.423 165.769 351.724 157.518 343.039C157.374 342.894 157.374 342.894 157.229 342.749C142.03 323.497 126.251 304.678 112.21 284.557C107.288 277.464 103.959 269.792 101.064 261.541C99.1818 256.04 99.7608 250.684 103.09 245.908C105.117 243.012 107.578 240.262 110.328 238.091C129.291 222.891 146.806 206.1 164.756 189.598C177.06 178.451 189.654 167.739 202.248 157.027C205.288 154.422 208.617 151.961 212.091 149.934C221.645 144.144 231.199 144.723 239.74 151.816C243.503 154.856 246.833 158.475 249.728 162.383C261.308 177.583 271.731 193.506 281.429 210.008C287.22 219.851 293.299 229.695 299.379 239.249C306.038 249.671 312.118 260.528 317.329 271.674C319.645 276.596 321.672 281.662 322.685 287.018C323.843 293.243 322.685 299.033 318.776 304.099C316.171 307.284 313.276 310.469 310.091 312.93C302.419 319.009 294.313 324.655 286.351 330.59C277.376 337.104 268.257 343.473 259.427 350.132C246.399 360.12 232.502 368.95 218.605 377.78C214.697 380.241 210.354 381.833 206.012 383.57C203.985 384.439 201.379 384.584 199.063 385.018Z" fill="#55BBDA"/>
<mask id="mask0_291_136" style="mask-type:alpha" maskUnits="userSpaceOnUse" x="100" y="146" width="224" height="240">
<path d="M199.063 385.018C193.852 384.728 189.22 382.991 185.456 379.228C183.14 376.912 180.969 374.306 179.087 371.411C172.573 361.423 165.769 351.724 157.518 343.039C157.374 342.894 157.374 342.894 157.229 342.749C142.03 323.497 126.251 304.678 112.21 284.557C107.288 277.464 103.959 269.792 101.064 261.541C99.1818 256.04 99.7608 250.684 103.09 245.908C105.117 243.012 107.578 240.262 110.328 238.091C129.291 222.891 146.806 206.1 164.756 189.598C177.06 178.451 189.654 167.739 202.248 157.027C205.288 154.422 208.617 151.961 212.091 149.934C221.645 144.144 231.199 144.723 239.74 151.816C243.503 154.856 246.833 158.475 249.728 162.383C261.308 177.583 271.731 193.506 281.429 210.008C287.22 219.851 293.299 229.695 299.379 239.249C306.038 249.671 312.118 260.528 317.329 271.674C319.645 276.596 321.672 281.662 322.685 287.018C323.843 293.243 322.685 299.033 318.776 304.099C316.171 307.284 313.276 310.469 310.091 312.93C302.419 319.009 294.313 324.655 286.351 330.59C277.376 337.104 268.257 343.473 259.427 350.132C246.399 360.12 232.502 368.95 218.605 377.78C214.697 380.241 210.354 381.833 206.012 383.57C203.985 384.439 201.379 384.584 199.063 385.018Z" fill="#55BBDA"/>
</mask>
<g mask="url(#mask0_291_136)">
<path d="M336.292 394.571C334.41 393.992 332.962 392.545 331.66 390.952C329.054 387.768 327.462 384.004 326.159 380.241C322.974 370.831 321.237 360.988 320.079 351.145C319.211 343.473 318.632 335.656 317.763 327.984C317.763 327.405 317.618 326.97 317.329 325.668C316.171 327.405 315.592 328.418 314.868 329.431C306.617 342.314 297.642 354.619 286.496 365.331C282.443 369.239 277.955 372.858 273.323 376.043C270.573 377.924 267.243 379.372 263.914 380.241C256.531 382.267 250.307 379.227 246.977 372.424C244.661 367.792 243.793 362.725 243.793 357.659C243.793 351.724 244.227 345.933 244.517 339.998C244.517 339.275 244.661 338.551 244.806 336.959C243.648 338.406 242.924 339.275 242.201 340.143C236.266 348.105 229.896 355.777 222.803 362.725C218.026 367.357 213.105 371.7 207.314 375.029C203.985 377.056 200.511 378.503 196.747 379.227C190.378 380.241 185.022 377.635 182.127 371.845C180.1 367.792 179.377 363.304 179.087 358.817C178.363 347.526 179.811 336.379 181.403 325.233C181.982 321.614 182.561 317.996 182.706 314.087C181.982 315.1 181.258 316.114 180.679 317.127C174.021 327.839 167.217 338.117 158.821 347.526C155.202 351.579 151.294 355.343 147.096 358.817C144.635 360.843 141.595 362.436 138.7 363.449C132.476 365.62 126.975 363.594 123.356 358.093C121.04 354.619 120.027 350.71 119.303 346.802C117.855 338.117 117.711 329.431 118.579 320.891C119.448 311.047 120.75 301.059 121.764 291.216C121.908 290.058 122.053 288.9 121.619 287.452C120.895 288.321 120.171 289.189 119.448 290.202C111.92 300.48 103.669 310.179 93.9705 318.575C90.3517 321.614 86.4432 324.365 82.5348 326.97C81.3768 327.694 79.9292 328.707 78.3369 326.97C78.7712 326.391 79.0607 325.812 79.6397 325.523C86.1537 321.325 91.7992 315.824 97.1552 310.323C106.709 300.48 115.105 289.768 122.632 278.332C123.646 276.74 124.369 274.858 124.804 272.976C131.028 241.709 139.279 211.021 151.873 181.635C155.637 172.95 159.69 164.554 165.046 156.882C167.217 153.698 169.678 150.802 172.283 148.052C173.876 146.026 176.047 144.433 178.508 145.591C181.114 146.894 181.258 149.644 180.824 151.961C179.521 158.619 178.363 165.423 176.337 171.937C165.769 207.402 150.715 240.841 131.173 272.253C129.146 275.437 127.843 278.767 127.264 282.53C124.948 296.282 122.777 310.179 122.198 324.22C121.908 331.892 121.764 339.564 123.501 347.091C124.08 349.552 124.948 352.013 126.106 354.184C128.857 359.396 133.344 361.133 138.555 358.382C141.595 356.935 144.635 354.908 147.096 352.447C152.162 347.381 156.939 342.025 161.427 336.379C171.125 323.93 179.087 310.323 186.47 296.427C187.049 295.269 187.628 293.821 187.917 292.518C194.142 265.16 202.827 238.38 211.223 211.6C217.447 191.913 223.817 172.082 231.778 152.974C233.37 149.065 235.252 145.157 237.279 141.393C237.858 140.235 238.726 139.077 239.884 138.209C241.622 136.761 243.938 137.485 244.372 139.801C244.661 141.393 244.661 142.986 244.661 144.578C243.938 154.566 241.477 164.265 239.161 173.963C229.028 216.956 212.67 257.777 192.26 296.861C190.957 299.322 189.944 301.928 189.509 304.678C187.338 316.114 185.311 327.405 183.574 338.84C182.561 345.933 182.127 353.171 183.14 360.264C183.574 363.015 184.153 365.765 185.167 368.371C187.338 373.871 191.536 375.898 197.181 374.45C200.077 373.727 202.972 372.424 205.433 370.831C209.63 367.936 213.684 364.896 217.447 361.567C228.449 351.579 237.424 339.998 245.675 327.839C246.398 326.826 246.833 325.523 247.122 324.365C254.071 288.755 264.203 254.013 276.073 219.706C282.443 201.178 289.246 182.938 297.208 164.989C298.8 161.514 300.537 158.04 302.419 154.711C303.432 152.829 304.735 150.947 307.341 151.671C309.946 152.395 310.091 154.711 309.946 156.737C309.512 163.251 309.223 169.765 308.209 176.135C301.695 219.272 288.378 260.238 268.112 298.888C263.48 307.863 257.979 316.258 253.057 325.089C252.333 326.536 251.465 327.984 251.175 329.431C249.583 338.84 248.136 348.249 248.859 357.803C249.149 361.278 249.728 364.896 250.886 368.371C253.202 375.029 257.979 377.201 264.638 374.74C267.533 373.727 270.428 372.279 272.889 370.397C277.521 366.778 282.008 363.015 286.206 358.817C298.076 346.657 307.775 332.905 316.316 318.14C317.184 316.548 317.474 314.956 317.474 313.219C317.329 294.979 321.382 277.609 328.041 260.817C329.488 257.343 331.37 253.869 333.397 250.684C334.41 248.947 336.002 247.499 337.739 246.341C340.635 244.46 343.819 245.618 344.543 248.947C345.122 251.697 345.267 254.737 344.977 257.488C344.253 265.304 342.082 272.976 339.476 280.359C335.279 292.808 329.633 304.533 323.409 316.114C322.685 317.416 321.961 319.154 321.961 320.601C322.685 340.577 323.988 360.409 328.909 379.806C329.488 382.412 330.357 385.017 331.515 387.334C332.528 389.65 334.41 391.966 336.292 394.571ZM305.314 158.619C293.444 175.845 253.926 296.861 254.36 313.074C263.769 300.77 282.587 257.488 291.707 226.799C298.366 204.507 303.288 181.925 305.314 158.619ZM177.639 149.5C177.35 149.355 176.916 149.21 176.626 149.065C175.758 149.934 174.6 150.513 173.876 151.526C171.704 154.277 169.388 156.882 167.651 159.922C164.177 165.857 160.848 171.792 158.097 178.017C147.82 200.454 140.437 224.194 134.502 248.368C133.199 253.434 132.186 258.356 131.028 263.423C131.173 263.567 131.462 263.567 131.607 263.712C132.331 262.554 133.055 261.396 133.778 260.238C147.096 237.511 158.097 213.771 167.072 189.018C171.125 177.872 175.034 166.87 177.06 155.145C177.495 153.408 177.495 151.381 177.639 149.5ZM196.892 275.727C198.919 271.529 200.8 267.331 202.827 263.278C218.895 228.536 231.199 192.492 239.016 155C239.74 151.816 240.174 148.631 240.753 145.447C233.805 153.698 201.09 251.408 196.892 275.727ZM340.345 250.539C332.528 254.737 321.961 291.505 322.395 304.967C322.685 304.678 322.974 304.533 323.119 304.244C330.067 290.202 335.858 275.872 339.042 260.527C339.766 257.343 339.911 254.303 340.345 250.539Z" fill="black"/>
</g>
</svg>
