<svg width="221" height="217" viewBox="0 0 221 217" fill="none" xmlns="http://www.w3.org/2000/svg">
<path d="M116.77 135.361L110.042 133.598C110.007 133.589 109.972 133.58 109.936 133.571C109.628 133.49 109.281 133.398 108.984 133.338C108.757 133.292 108.472 133.245 108.141 133.229C107.455 133.086 106.76 132.934 106.043 132.776L106.031 132.774C105.215 132.594 104.367 132.408 103.516 132.235C82.5706 127.64 64.5781 117.802 49.5585 102.568L49.5531 102.562L49.5476 102.557C45.866 98.8552 42.5288 94.9899 39.8231 90.6817C36.1291 84.7145 34.2869 78.3712 34.4653 71.4989C34.6501 66.4641 35.8606 61.5972 37.9266 56.9055L37.9308 56.896L37.9349 56.8864C41.3432 49.02 46.8711 43.3079 54.6883 39.7619C62.8523 36.0785 71.5277 34.4952 80.5969 34.3799L80.6058 34.3798C88.1415 34.2648 95.5742 35.2736 103.055 37.0373L103.063 37.0392C117.161 40.328 130.376 45.9305 143.038 53.1769L143.044 53.18C150.632 57.5043 157.687 62.3422 163.976 68.1699L163.983 68.1768L163.991 68.1836C168.268 72.1008 171.979 76.3102 175.083 81.1006C178.972 87.1958 181.032 93.6849 180.879 100.805L180.879 100.826L180.878 100.848C180.872 101.479 180.881 102.007 180.889 102.478C180.903 103.378 180.914 104.065 180.814 104.857L180.814 104.862C180.245 109.416 178.586 113.369 175.531 116.631C169.738 122.798 163.145 127.624 155.393 130.47L155.388 130.471C147.561 133.357 139.574 135.236 131.313 135.764L131.232 135.77L131.151 135.779C130.372 135.865 128.678 136.15 127.502 137.861C126.837 138.818 126.169 139.763 125.492 140.721L125.488 140.726C124.813 141.681 124.129 142.65 123.445 143.635C123.444 143.635 123.444 143.635 123.444 143.636L126.318 145.633C126.082 145.971 125.852 146.311 125.625 146.655L116.77 135.361ZM116.77 135.361L111.345 139.714C110.889 140.08 110.591 140.342 110.276 140.623M116.77 135.361L110.276 140.623M184.378 100.88C184.374 101.303 184.381 101.729 184.387 102.158C184.403 103.2 184.418 104.254 184.287 105.296C183.64 110.469 181.719 115.145 178.083 119.027C172.005 125.497 164.971 130.683 156.599 133.755L184.378 100.88ZM184.378 100.88C184.548 92.9773 182.244 85.8124 178.027 79.2074C174.733 74.1232 170.815 69.6879 166.355 65.6026M184.378 100.88L166.355 65.6026M166.355 65.6026C159.817 59.5446 152.527 54.5556 144.777 50.1391L166.355 65.6026ZM110.276 140.623C108.671 142.336 107.052 144.051 105.439 145.759L105.437 145.762C103.785 147.511 102.14 149.254 100.509 150.995L100.492 151.012L100.476 151.03C99.583 151.957 98.7796 152.842 97.9997 153.814C97.7636 154.108 97.5208 154.483 97.2707 154.931C97.6122 155.102 97.9254 155.232 98.239 155.335L98.334 155.366L98.427 155.402C101.805 156.722 105.278 157.716 108.874 158.485L108.886 158.488C109.418 158.601 109.991 158.724 110.693 158.894L115.031 159.946L112.976 163.908C112.958 163.941 112.935 163.987 112.907 164.043C112.778 164.3 112.547 164.76 112.295 165.157L112.21 165.291L112.114 165.416C107.827 170.988 103.946 176.756 99.9921 182.633C99.8682 182.817 99.7443 183.001 99.6202 183.186C100.629 182.417 101.633 181.646 102.634 180.86C103.917 179.847 105.087 178.896 106.061 177.903L106.075 177.888L106.09 177.873C112.057 171.934 117.862 166.103 123.201 159.831C125.105 157.552 127.2 155.389 129.213 153.333L110.276 140.623Z" fill="white" stroke="#1E1E1E" stroke-width="7"/>
<mask id="path-2-inside-1_336_52" fill="white">
<path d="M137.638 34.4662C138.225 35.0389 138.62 35.4589 139.066 35.8152C142.252 38.3607 145.444 40.9633 148.688 43.5024C153.837 47.5114 159.082 51.3359 164.18 55.4085C170.291 60.2385 175.617 65.8509 180.051 72.316C184.472 78.6665 187.516 85.6914 188.723 93.4416C189.658 99.251 189.61 105.111 188.217 110.889C187.86 112.378 187.272 113.892 186.736 115.343C186.385 116.367 186.028 117.334 185.734 118.352C185.478 119.192 185.771 119.739 186.326 120.026C186.938 120.306 187.55 120.064 188.048 119.313C188.245 119.001 188.443 118.69 188.577 118.327C191.136 113.638 192.203 108.592 192.492 103.343C193.149 90.9222 189.361 79.8059 182.322 69.7455C178.181 63.8277 173.307 58.6289 167.808 54.079C160.773 48.25 153.278 42.9937 145.688 37.9219C143.936 36.7828 142.094 35.8855 140.246 34.9309C139.564 34.5427 138.78 34.2818 137.638 34.4662Z"/>
</mask>
<path d="M137.638 34.4662C138.225 35.0389 138.62 35.4589 139.066 35.8152C142.252 38.3607 145.444 40.9633 148.688 43.5024C153.837 47.5114 159.082 51.3359 164.18 55.4085C170.291 60.2385 175.617 65.8509 180.051 72.316C184.472 78.6665 187.516 85.6914 188.723 93.4416C189.658 99.251 189.61 105.111 188.217 110.889C187.86 112.378 187.272 113.892 186.736 115.343C186.385 116.367 186.028 117.334 185.734 118.352C185.478 119.192 185.771 119.739 186.326 120.026C186.938 120.306 187.55 120.064 188.048 119.313C188.245 119.001 188.443 118.69 188.577 118.327C191.136 113.638 192.203 108.592 192.492 103.343C193.149 90.9222 189.361 79.8059 182.322 69.7455C178.181 63.8277 173.307 58.6289 167.808 54.079C160.773 48.25 153.278 42.9937 145.688 37.9219C143.936 36.7828 142.094 35.8855 140.246 34.9309C139.564 34.5427 138.78 34.2818 137.638 34.4662Z" fill="white"/>
<path d="M137.638 34.4662L132.747 39.4733L122.816 29.771L136.522 27.5559L137.638 34.4662ZM148.688 43.5024L144.388 49.0256L144.38 49.02L144.373 49.0144L148.688 43.5024ZM164.18 55.4085L159.839 60.9004L159.825 60.889L159.811 60.8776L164.18 55.4085ZM180.051 72.316L174.306 76.3155L174.292 76.2953L174.278 76.275L180.051 72.316ZM188.723 93.4416L181.812 94.553L181.809 94.536L181.807 94.5191L188.723 93.4416ZM188.217 110.889L181.411 109.253L181.412 109.248L188.217 110.889ZM186.736 115.343L180.114 113.073L180.141 112.994L180.17 112.916L186.736 115.343ZM185.734 118.352L192.459 120.293L192.446 120.341L192.431 120.389L185.734 118.352ZM186.326 120.026L183.413 126.391L183.262 126.322L183.114 126.245L186.326 120.026ZM188.048 119.313L193.958 123.063L193.921 123.122L193.882 123.18L188.048 119.313ZM188.577 118.327L182.011 115.9L182.188 115.422L182.432 114.974L188.577 118.327ZM192.492 103.343L199.483 103.712L199.482 103.72L199.482 103.728L192.492 103.343ZM182.322 69.7455L188.057 65.7324L188.057 65.7324L182.322 69.7455ZM167.808 54.079L163.345 59.4723L163.342 59.4691L167.808 54.079ZM145.688 37.9219L149.503 32.0527L149.54 32.0769L149.577 32.1017L145.688 37.9219ZM140.246 34.9309L137.033 41.1504L136.907 41.0849L136.783 41.0143L140.246 34.9309ZM142.53 29.4591C142.699 29.6245 142.853 29.7771 142.977 29.8999C143.108 30.0302 143.199 30.1201 143.28 30.1992C143.442 30.3558 143.468 30.3723 143.435 30.3462L134.697 41.2843C133.888 40.6379 133.042 39.7616 132.747 39.4733L142.53 29.4591ZM143.435 30.3462C146.698 32.953 149.791 35.4762 153.003 37.9903L144.373 49.0144C141.098 46.4505 137.806 43.7683 134.697 41.2843L143.435 30.3462ZM152.989 37.9791C157.813 41.7356 163.498 45.9041 168.549 49.9395L159.811 60.8776C154.666 56.7677 149.861 53.2872 144.388 49.0256L152.989 37.9791ZM168.52 49.9167C175.156 55.1612 180.973 61.284 185.824 68.357L174.278 76.275C170.261 70.4178 165.426 65.3157 159.839 60.9004L168.52 49.9167ZM185.796 68.3165C190.751 75.4341 194.25 83.4437 195.64 92.364L181.807 94.5191C180.782 87.9391 178.193 81.899 174.306 76.3155L185.796 68.3165ZM195.635 92.3302C196.693 98.9106 196.664 105.718 195.023 112.529L181.412 109.248C182.556 104.504 182.622 99.5914 181.812 94.553L195.635 92.3302ZM195.024 112.524C194.545 114.518 193.768 116.51 193.302 117.77L180.17 112.916C180.777 111.274 181.175 110.237 181.411 109.253L195.024 112.524ZM193.358 117.612C192.937 118.842 192.689 119.496 192.459 120.293L179.008 116.412C179.366 115.173 179.834 113.892 180.114 113.073L193.358 117.612ZM192.431 120.389C192.641 119.697 192.847 118.356 192.229 116.805C191.599 115.225 190.454 114.279 189.538 113.806L183.114 126.245C181.644 125.486 180.075 124.124 179.224 121.988C178.384 119.882 178.571 117.847 179.037 116.316L192.431 120.389ZM189.239 113.661C187.903 113.049 186.194 112.917 184.58 113.577C183.168 114.154 182.457 115.077 182.213 115.446L193.882 123.18C193.14 124.3 191.875 125.719 189.879 126.535C187.682 127.434 185.361 127.282 183.413 126.391L189.239 113.661ZM182.137 115.563C182.19 115.479 182.214 115.441 182.233 115.41C182.249 115.384 182.245 115.39 182.23 115.417C182.199 115.472 182.106 115.644 182.011 115.9L195.143 120.754C194.712 121.921 194.102 122.837 193.958 123.063L182.137 115.563ZM182.432 114.974C184.35 111.459 185.252 107.511 185.503 102.957L199.482 103.728C199.154 109.673 197.921 115.816 194.722 121.68L182.432 114.974ZM185.502 102.973C186.064 92.3384 182.869 82.7375 176.587 73.7587L188.057 65.7324C195.853 76.8742 200.233 89.5059 199.483 103.712L185.502 102.973ZM176.587 73.7587C172.826 68.3839 168.387 63.6437 163.345 59.4723L172.27 48.6856C178.227 53.614 183.537 59.2715 188.057 65.7324L176.587 73.7587ZM163.342 59.4691C156.581 53.8673 149.318 48.766 141.799 43.742L149.577 32.1017C157.239 37.2213 164.965 42.6327 172.274 48.6888L163.342 59.4691ZM141.873 43.7911C140.497 42.8961 139.085 42.2102 137.033 41.1504L143.458 28.7114C145.102 29.5607 147.375 30.6694 149.503 32.0527L141.873 43.7911ZM136.783 41.0143C136.869 41.0636 137.182 41.2288 137.65 41.3289C138.134 41.4325 138.531 41.4128 138.755 41.3765L136.522 27.5559C139.539 27.0682 141.928 27.834 143.709 28.8475L136.783 41.0143Z" fill="#1E1E1E" mask="url(#path-2-inside-1_336_52)"/>
<mask id="path-4-inside-2_336_52" fill="white">
<path d="M22.3793 72.5143C23.1539 78.9791 25.3311 84.9986 28.2862 90.7C31.9865 97.884 36.7071 104.317 42.6076 109.866C45.0034 112.093 47.5077 114.251 49.9483 116.357C50.337 116.72 50.8404 117.07 51.2738 117.311C52.0832 117.801 52.7207 117.789 53.1353 117.337C53.5435 116.828 53.4737 116.198 52.8174 115.517C52.5498 115.199 52.2312 114.945 51.9126 114.69C49.2555 112.202 46.541 109.72 43.9923 107.162C36.6011 99.6915 31.1038 90.9675 27.7301 80.9647C25.7313 74.9834 25.218 68.7795 25.865 62.563C26.2365 59.1016 27.5641 55.882 28.898 52.7198C30.4554 48.953 32.4461 45.4281 34.934 42.1959C35.54 41.3751 36.0886 40.5607 36.6309 39.689C36.8797 39.3137 37.0648 38.8874 37.2499 38.461C37.4287 37.9775 37.7222 37.4812 37.2124 37.0739C36.7663 36.7176 36.2753 37.0039 35.9564 37.2711C35.1018 37.9455 34.2983 38.5563 33.5711 39.3325C29.7123 43.2963 26.9178 47.9538 25.0474 53.0885C23.7962 56.4735 22.4366 59.9285 22.32 63.5935C22.2994 66.5523 22.3936 69.4983 22.3793 72.5143Z"/>
</mask>
<path d="M22.3793 72.5143C23.1539 78.9791 25.3311 84.9986 28.2862 90.7C31.9865 97.884 36.7071 104.317 42.6076 109.866C45.0034 112.093 47.5077 114.251 49.9483 116.357C50.337 116.72 50.8404 117.07 51.2738 117.311C52.0832 117.801 52.7207 117.789 53.1353 117.337C53.5435 116.828 53.4737 116.198 52.8174 115.517C52.5498 115.199 52.2312 114.945 51.9126 114.69C49.2555 112.202 46.541 109.72 43.9923 107.162C36.6011 99.6915 31.1038 90.9675 27.7301 80.9647C25.7313 74.9834 25.218 68.7795 25.865 62.563C26.2365 59.1016 27.5641 55.882 28.898 52.7198C30.4554 48.953 32.4461 45.4281 34.934 42.1959C35.54 41.3751 36.0886 40.5607 36.6309 39.689C36.8797 39.3137 37.0648 38.8874 37.2499 38.461C37.4287 37.9775 37.7222 37.4812 37.2124 37.0739C36.7663 36.7176 36.2753 37.0039 35.9564 37.2711C35.1018 37.9455 34.2983 38.5563 33.5711 39.3325C29.7123 43.2963 26.9178 47.9538 25.0474 53.0885C23.7962 56.4735 22.4366 59.9285 22.32 63.5935C22.2994 66.5523 22.3936 69.4983 22.3793 72.5143Z" fill="white"/>
<path d="M22.3793 72.5143L15.429 73.347L15.3774 72.9157L15.3794 72.4813L22.3793 72.5143ZM28.2862 90.7L34.501 87.4788L34.5051 87.4868L34.5093 87.4947L28.2862 90.7ZM42.6076 109.866L37.8416 114.993L37.8268 114.979L37.8121 114.966L42.6076 109.866ZM49.9483 116.357L54.5218 111.058L54.6247 111.146L54.7241 111.239L49.9483 116.357ZM51.2738 117.311L54.6847 111.199L54.793 111.259L54.8991 111.323L51.2738 117.311ZM53.1353 117.337L58.5959 121.717L58.4501 121.899L58.2925 122.07L53.1353 117.337ZM52.8174 115.517L47.7775 120.375L47.6129 120.204L47.4602 120.023L52.8174 115.517ZM51.9126 114.69L47.5435 120.159L47.3287 119.987L47.128 119.8L51.9126 114.69ZM43.9923 107.162L39.0334 112.103L39.0248 112.094L39.0162 112.085L43.9923 107.162ZM27.7301 80.9647L21.0972 83.2019L21.0941 83.1926L21.091 83.1833L27.7301 80.9647ZM25.865 62.563L18.9026 61.8384L18.9038 61.8272L18.905 61.8161L25.865 62.563ZM28.898 52.7198L35.3669 55.3943L35.3574 55.4174L35.3477 55.4404L28.898 52.7198ZM34.934 42.1959L40.5653 46.3539L40.5237 46.4101L40.481 46.4656L34.934 42.1959ZM36.6309 39.689L30.6873 35.9913L30.7405 35.9058L30.7962 35.8218L36.6309 39.689ZM37.2499 38.461L43.8157 40.8879L43.7483 41.0704L43.6709 41.2488L37.2499 38.461ZM35.9564 37.2711L40.4524 42.6363L40.3736 42.7024L40.2929 42.7661L35.9564 37.2711ZM33.5711 39.3325L38.6798 44.1181L38.6338 44.1672L38.5869 44.2154L33.5711 39.3325ZM25.0474 53.0885L31.6246 55.4844L31.6189 55.4999L31.6132 55.5154L25.0474 53.0885ZM22.32 63.5935L15.3202 63.5448L15.3208 63.4579L15.3236 63.371L22.32 63.5935ZM29.3296 71.6817C29.9793 77.1046 31.8225 82.3112 34.501 87.4788L22.0714 93.9213C18.8396 87.6861 16.3284 80.8536 15.429 73.347L29.3296 71.6817ZM34.5093 87.4947C37.8728 94.0249 42.1255 99.8037 47.4031 104.767L37.8121 114.966C31.2888 108.831 26.1002 101.743 22.0632 93.9053L34.5093 87.4947ZM47.3736 104.739C49.6574 106.862 52.0597 108.933 54.5218 111.058L45.3747 121.656C42.9557 119.569 40.3495 117.324 37.8416 114.993L47.3736 104.739ZM54.7241 111.239C54.7027 111.219 54.6861 111.205 54.6749 111.195C54.6637 111.185 54.6561 111.179 54.6525 111.176C54.6462 111.171 54.6486 111.173 54.6591 111.181C54.6694 111.188 54.6803 111.195 54.6894 111.201C54.6989 111.207 54.6983 111.206 54.6847 111.199L47.8629 123.424C47.0245 122.956 46.0423 122.286 45.1725 121.475L54.7241 111.239ZM54.8991 111.323C54.6739 111.187 53.7836 110.685 52.3887 110.678C50.7275 110.669 49.1048 111.376 47.9781 112.604L58.2925 122.07C56.7512 123.75 54.6024 124.689 52.3164 124.677C50.2968 124.667 48.683 123.926 47.6485 123.3L54.8991 111.323ZM47.6747 112.957C46.7781 114.075 46.17 115.743 46.4616 117.586C46.7136 119.178 47.513 120.101 47.7775 120.375L57.8574 110.659C58.7782 111.615 59.9406 113.192 60.2895 115.397C60.678 117.852 59.9007 120.09 58.5959 121.717L47.6747 112.957ZM47.4602 120.023C47.6128 120.204 47.7305 120.309 47.7473 120.324C47.7563 120.332 47.7492 120.325 47.7136 120.296C47.6963 120.282 47.6746 120.264 47.6458 120.241C47.616 120.217 47.5847 120.192 47.5435 120.159L56.2817 109.221C56.5154 109.408 57.3884 110.077 58.1746 111.012L47.4602 120.023ZM47.128 119.8C44.5554 117.391 41.6951 114.774 39.0334 112.103L48.9511 102.221C51.3868 104.666 53.9556 107.013 56.6972 109.58L47.128 119.8ZM39.0162 112.085C30.9064 103.888 24.8253 94.2554 21.0972 83.2019L34.363 78.7276C37.3823 87.6796 42.2957 95.4945 48.9684 102.239L39.0162 112.085ZM21.091 83.1833C18.7375 76.1406 18.1656 68.9202 18.9026 61.8384L32.8274 63.2876C32.2705 68.6388 32.7251 73.8262 34.3692 78.7461L21.091 83.1833ZM18.905 61.8161C19.4026 57.1796 21.1617 53.0492 22.4484 49.9991L35.3477 55.4404C33.9664 58.7148 33.0704 61.0236 32.825 63.3099L18.905 61.8161ZM22.4291 50.0452C24.204 45.7522 26.495 41.6834 29.3869 37.9263L40.481 46.4656C38.3972 49.1728 36.7067 52.1538 35.3669 55.3943L22.4291 50.0452ZM29.3027 38.038C29.789 37.3792 30.2342 36.7197 30.6873 35.9913L42.5746 43.3868C41.9431 44.4018 41.2909 45.371 40.5653 46.3539L29.3027 38.038ZM30.7962 35.8218C30.7427 35.9025 30.7068 35.9644 30.6875 35.9992C30.6684 36.0336 30.6617 36.0483 30.6686 36.0342C30.6757 36.0194 30.6911 35.9868 30.7191 35.9242C30.7328 35.8935 30.7483 35.8584 30.7668 35.8161C30.7858 35.7728 30.8052 35.728 30.829 35.6733L43.6709 41.2488C43.5334 41.5654 43.1146 42.5772 42.4657 43.5563L30.7962 35.8218ZM30.6841 36.0342C30.7415 35.8788 30.7982 35.7374 30.8167 35.6909C30.8465 35.6161 30.8381 35.6362 30.8253 35.6707C30.8104 35.7109 30.6402 36.1553 30.5531 36.7963C30.4572 37.5022 30.4389 38.6005 30.8969 39.8329C31.3653 41.0933 32.1415 41.9824 32.8432 42.543L41.5815 31.6049C42.5382 32.3691 43.4688 33.4729 44.02 34.9561C44.5607 36.4111 44.5535 37.7401 44.4256 38.6815C44.3065 39.5579 44.0612 40.2425 43.957 40.5245C43.8995 40.6799 43.8429 40.8213 43.8244 40.8677C43.7946 40.9425 43.803 40.9224 43.8157 40.8879L30.6841 36.0342ZM32.8432 42.543C33.6174 43.1615 34.5974 43.6328 35.7137 43.8202C36.7929 44.0014 37.726 43.8726 38.4037 43.6851C39.611 43.351 40.3232 42.7446 40.4524 42.6363L31.4604 31.9059C31.9085 31.5304 33.0256 30.6472 34.6697 30.1922C36.6783 29.6364 39.3228 29.8004 41.5815 31.6049L32.8432 42.543ZM40.2929 42.7661C39.2766 43.5681 38.9645 43.8141 38.6798 44.1181L28.4625 34.5469C29.632 33.2985 30.9271 32.3229 31.6199 31.7761L40.2929 42.7661ZM38.5869 44.2154C35.4805 47.4063 33.188 51.1925 31.6246 55.4844L18.4701 50.6927C20.6476 44.715 23.9442 39.1863 28.5554 34.4496L38.5869 44.2154ZM31.6132 55.5154C30.2374 59.2375 29.3893 61.5261 29.3165 63.8161L15.3236 63.371C15.4839 58.3309 17.355 53.7095 18.4815 50.6616L31.6132 55.5154ZM29.3198 63.6423C29.3101 65.0415 29.3274 66.4503 29.3467 67.9419C29.3657 69.4123 29.3867 70.9664 29.3793 72.5474L15.3794 72.4813C15.3862 71.0462 15.3672 69.6193 15.3479 68.123C15.3288 66.6479 15.3093 65.1043 15.3202 63.5448L29.3198 63.6423Z" fill="#1E1E1E" mask="url(#path-4-inside-2_336_52)"/>
<mask id="path-6-outside-3_336_52" maskUnits="userSpaceOnUse" x="54.7196" y="52.7067" width="107.858" height="64.2551" fill="black">
<rect fill="white" x="54.7196" y="52.7067" width="107.858" height="64.2551"/>
<path d="M70.5716 89.5611C68.6771 88.9585 67.0154 88.0186 65.5864 86.7414C64.1617 85.4509 63.0288 83.9373 62.1876 82.2006C61.3465 80.464 60.8449 78.6076 60.6829 76.6315C60.5251 74.6421 60.766 72.6473 61.4054 70.647C62.0448 68.6467 63.0039 66.8877 64.2828 65.3699C65.5659 63.8388 67.0543 62.6081 68.748 61.6777C70.4417 60.7473 72.2418 60.1739 74.1482 59.9576C76.0588 59.7279 77.9614 59.9143 79.8559 60.5169C81.7637 61.1237 83.4299 62.0724 84.8546 63.363C86.2836 64.6402 87.4186 66.1471 88.2598 67.8838C89.101 69.6204 89.5937 71.4813 89.7382 73.4665C89.9002 75.4426 89.6615 77.4307 89.0221 79.431C88.3826 81.4313 87.4214 83.197 86.1383 84.7281C84.8727 86.2501 83.3931 87.4763 81.6994 88.4067C80.0057 89.3371 78.2035 89.9172 76.2929 90.1468C74.3865 90.3632 72.4794 90.1679 70.5716 89.5611ZM71.4668 86.7607C73.001 87.2487 74.5266 87.396 76.0435 87.2027C77.578 87.0003 79.0181 86.5182 80.364 85.7563C81.7233 84.9986 82.909 84.0022 83.9212 82.7668C84.9467 81.5358 85.7131 80.1268 86.2204 78.5399C86.7319 76.9397 86.9267 75.3416 86.8049 73.7455C86.6874 72.1362 86.2921 70.6369 85.6192 69.2475C84.9639 67.8491 84.0672 66.631 82.9291 65.5933C81.8044 64.5597 80.4816 63.8011 78.9607 63.3173C77.4264 62.8293 75.892 62.6865 74.3576 62.8889C72.8407 63.0822 71.4026 63.5577 70.0434 64.3154C68.6975 65.0773 67.5118 66.0738 66.4863 67.3048C65.4741 68.5401 64.7143 69.9512 64.2071 71.5381C63.6913 73.1517 63.4943 74.7565 63.6161 76.3525C63.7379 77.9485 64.1265 79.4457 64.7818 80.8441C65.4505 82.2468 66.3472 83.4649 67.4719 84.4984C68.6142 85.5228 69.9458 86.2769 71.4668 86.7607ZM110.016 87.8937L106.059 100.276L103.257 99.3844L107.036 87.5627C107.385 86.4692 107.436 85.3908 107.188 84.3276C106.94 83.2644 106.454 82.324 105.731 81.5062C105.008 80.6885 104.099 80.1057 103.005 79.7577C101.924 79.414 100.845 79.3645 99.7673 79.6094C98.7029 79.8585 97.7611 80.3449 96.9418 81.0686C96.1226 81.7923 95.5382 82.7009 95.1886 83.7944L91.4097 95.6161L88.608 94.725L98.1992 64.7207L101.001 65.6118L96.9214 78.3737C97.9525 77.5851 99.1309 77.0711 100.457 76.8317C101.783 76.5923 103.113 76.6848 104.447 77.1092C105.954 77.5887 107.211 78.3925 108.218 79.5206C109.224 80.6486 109.896 81.9495 110.233 83.423C110.57 84.8966 110.498 86.3868 110.016 87.8937ZM118.314 104.747C116.473 104.161 114.944 103.153 113.725 101.722C112.52 100.296 111.718 98.6453 111.318 96.7698C110.936 94.8853 111.054 92.9762 111.672 91.0426C112.141 89.5757 112.838 88.2916 113.763 87.1902C114.693 86.0755 115.764 85.1824 116.979 84.5108C118.21 83.8301 119.521 83.4095 120.909 83.2489C122.298 83.0883 123.68 83.2266 125.054 83.6637C126.895 84.2493 128.418 85.2552 129.623 86.6816C130.841 88.1121 131.642 89.7697 132.024 91.6542C132.42 93.543 132.306 95.4609 131.684 97.4078C131.219 98.8614 130.524 100.139 129.599 101.24C128.674 102.342 127.595 103.233 126.363 103.913C125.149 104.585 123.848 105.001 122.459 105.161C121.083 105.326 119.702 105.188 118.314 104.747ZM119.21 101.946C120.57 102.379 121.904 102.414 123.211 102.051C124.535 101.679 125.698 101.006 126.7 100.032C127.716 99.0619 128.443 97.8902 128.882 96.5167C129.33 95.1165 129.421 93.7278 129.156 92.3506C128.895 90.9601 128.33 89.7374 127.462 88.6827C126.607 87.6322 125.506 86.8927 124.159 86.4641C122.798 86.0312 121.455 86.0009 120.131 86.373C118.825 86.7361 117.664 87.4025 116.648 88.3723C115.646 89.3464 114.921 90.5335 114.473 91.9337C114.013 93.3739 113.922 94.7847 114.201 96.1662C114.484 97.5343 115.061 98.739 115.934 99.7804C116.81 100.808 117.902 101.53 119.21 101.946ZM138.075 88.4223L140.877 89.3135L134.483 109.316L131.681 108.425L138.075 88.4223ZM140.615 85.3738C140.161 85.2295 139.821 84.9597 139.595 84.5645C139.386 84.1602 139.354 83.7313 139.499 83.2779C139.644 82.8245 139.917 82.5 140.317 82.3042C140.736 82.0993 141.172 82.069 141.625 82.2133C142.065 82.3533 142.39 82.6255 142.599 83.0298C142.825 83.425 142.866 83.8494 142.721 84.3028C142.576 84.7562 142.301 85.0874 141.896 85.2965C141.496 85.4923 141.068 85.518 140.615 85.3738ZM151.183 105.373L157.449 85.7701L159.911 86.553L153.645 106.156L151.183 105.373ZM149.572 114.689C149.118 114.545 148.783 114.261 148.565 113.84C148.356 113.435 148.324 113.006 148.469 112.553C148.61 112.113 148.883 111.788 149.287 111.579C149.706 111.374 150.142 111.344 150.595 111.488C151.022 111.624 151.34 111.894 151.549 112.299C151.758 112.703 151.792 113.125 151.651 113.565C151.506 114.018 151.231 114.35 150.826 114.559C150.417 114.781 149.999 114.825 149.572 114.689Z"/>
</mask>
<path d="M70.5716 89.5611C68.6771 88.9585 67.0154 88.0186 65.5864 86.7414C64.1617 85.4509 63.0288 83.9373 62.1876 82.2006C61.3465 80.464 60.8449 78.6076 60.6829 76.6315C60.5251 74.6421 60.766 72.6473 61.4054 70.647C62.0448 68.6467 63.0039 66.8877 64.2828 65.3699C65.5659 63.8388 67.0543 62.6081 68.748 61.6777C70.4417 60.7473 72.2418 60.1739 74.1482 59.9576C76.0588 59.7279 77.9614 59.9143 79.8559 60.5169C81.7637 61.1237 83.4299 62.0724 84.8546 63.363C86.2836 64.6402 87.4186 66.1471 88.2598 67.8838C89.101 69.6204 89.5937 71.4813 89.7382 73.4665C89.9002 75.4426 89.6615 77.4307 89.0221 79.431C88.3826 81.4313 87.4214 83.197 86.1383 84.7281C84.8727 86.2501 83.3931 87.4763 81.6994 88.4067C80.0057 89.3371 78.2035 89.9172 76.2929 90.1468C74.3865 90.3632 72.4794 90.1679 70.5716 89.5611ZM71.4668 86.7607C73.001 87.2487 74.5266 87.396 76.0435 87.2027C77.578 87.0003 79.0181 86.5182 80.364 85.7563C81.7233 84.9986 82.909 84.0022 83.9212 82.7668C84.9467 81.5358 85.7131 80.1268 86.2204 78.5399C86.7319 76.9397 86.9267 75.3416 86.8049 73.7455C86.6874 72.1362 86.2921 70.6369 85.6192 69.2475C84.9639 67.8491 84.0672 66.631 82.9291 65.5933C81.8044 64.5597 80.4816 63.8011 78.9607 63.3173C77.4264 62.8293 75.892 62.6865 74.3576 62.8889C72.8407 63.0822 71.4026 63.5577 70.0434 64.3154C68.6975 65.0773 67.5118 66.0738 66.4863 67.3048C65.4741 68.5401 64.7143 69.9512 64.2071 71.5381C63.6913 73.1517 63.4943 74.7565 63.6161 76.3525C63.7379 77.9485 64.1265 79.4457 64.7818 80.8441C65.4505 82.2468 66.3472 83.4649 67.4719 84.4984C68.6142 85.5228 69.9458 86.2769 71.4668 86.7607ZM110.016 87.8937L106.059 100.276L103.257 99.3844L107.036 87.5627C107.385 86.4692 107.436 85.3908 107.188 84.3276C106.94 83.2644 106.454 82.324 105.731 81.5062C105.008 80.6885 104.099 80.1057 103.005 79.7577C101.924 79.414 100.845 79.3645 99.7673 79.6094C98.7029 79.8585 97.7611 80.3449 96.9418 81.0686C96.1226 81.7923 95.5382 82.7009 95.1886 83.7944L91.4097 95.6161L88.608 94.725L98.1992 64.7207L101.001 65.6118L96.9214 78.3737C97.9525 77.5851 99.1309 77.0711 100.457 76.8317C101.783 76.5923 103.113 76.6848 104.447 77.1092C105.954 77.5887 107.211 78.3925 108.218 79.5206C109.224 80.6486 109.896 81.9495 110.233 83.423C110.57 84.8966 110.498 86.3868 110.016 87.8937ZM118.314 104.747C116.473 104.161 114.944 103.153 113.725 101.722C112.52 100.296 111.718 98.6453 111.318 96.7698C110.936 94.8853 111.054 92.9762 111.672 91.0426C112.141 89.5757 112.838 88.2916 113.763 87.1902C114.693 86.0755 115.764 85.1824 116.979 84.5108C118.21 83.8301 119.521 83.4095 120.909 83.2489C122.298 83.0883 123.68 83.2266 125.054 83.6637C126.895 84.2493 128.418 85.2552 129.623 86.6816C130.841 88.1121 131.642 89.7697 132.024 91.6542C132.42 93.543 132.306 95.4609 131.684 97.4078C131.219 98.8614 130.524 100.139 129.599 101.24C128.674 102.342 127.595 103.233 126.363 103.913C125.149 104.585 123.848 105.001 122.459 105.161C121.083 105.326 119.702 105.188 118.314 104.747ZM119.21 101.946C120.57 102.379 121.904 102.414 123.211 102.051C124.535 101.679 125.698 101.006 126.7 100.032C127.716 99.0619 128.443 97.8902 128.882 96.5167C129.33 95.1165 129.421 93.7278 129.156 92.3506C128.895 90.9601 128.33 89.7374 127.462 88.6827C126.607 87.6322 125.506 86.8927 124.159 86.4641C122.798 86.0312 121.455 86.0009 120.131 86.373C118.825 86.7361 117.664 87.4025 116.648 88.3723C115.646 89.3464 114.921 90.5335 114.473 91.9337C114.013 93.3739 113.922 94.7847 114.201 96.1662C114.484 97.5343 115.061 98.739 115.934 99.7804C116.81 100.808 117.902 101.53 119.21 101.946ZM138.075 88.4223L140.877 89.3135L134.483 109.316L131.681 108.425L138.075 88.4223ZM140.615 85.3738C140.161 85.2295 139.821 84.9597 139.595 84.5645C139.386 84.1602 139.354 83.7313 139.499 83.2779C139.644 82.8245 139.917 82.5 140.317 82.3042C140.736 82.0993 141.172 82.069 141.625 82.2133C142.065 82.3533 142.39 82.6255 142.599 83.0298C142.825 83.425 142.866 83.8494 142.721 84.3028C142.576 84.7562 142.301 85.0874 141.896 85.2965C141.496 85.4923 141.068 85.518 140.615 85.3738ZM151.183 105.373L157.449 85.7701L159.911 86.553L153.645 106.156L151.183 105.373ZM149.572 114.689C149.118 114.545 148.783 114.261 148.565 113.84C148.356 113.435 148.324 113.006 148.469 112.553C148.61 112.113 148.883 111.788 149.287 111.579C149.706 111.374 150.142 111.344 150.595 111.488C151.022 111.624 151.34 111.894 151.549 112.299C151.758 112.703 151.792 113.125 151.651 113.565C151.506 114.018 151.231 114.35 150.826 114.559C150.417 114.781 149.999 114.825 149.572 114.689Z" fill="black"/>
<path d="M65.5864 86.7414L64.914 87.4823L64.9189 87.4868L65.5864 86.7414ZM62.1876 82.2006L63.0882 81.7643L63.0882 81.7643L62.1876 82.2006ZM60.6829 76.6315L59.6856 76.7116L59.6858 76.7143L60.6829 76.6315ZM64.2828 65.3699L65.0478 66.0131L65.0495 66.0111L64.2828 65.3699ZM68.748 61.6777L69.2292 62.5535L69.2292 62.5535L68.748 61.6777ZM74.1482 59.9576L74.2599 60.9508L74.2665 60.95L74.1482 59.9576ZM84.8546 63.363L84.1822 64.1039L84.1871 64.1083L84.8546 63.363ZM88.2598 67.8838L87.3592 68.3201L87.3592 68.3201L88.2598 67.8838ZM89.7382 73.4665L88.7403 73.5401L88.7411 73.5493L89.7382 73.4665ZM86.1383 84.7281L85.3715 84.0869L85.3691 84.0899L86.1383 84.7281ZM81.6994 88.4067L81.2182 87.5309L81.2182 87.5309L81.6994 88.4067ZM76.2929 90.1468L76.4046 91.14L76.4112 91.1393L76.2929 90.1468ZM76.0435 87.2027L76.1689 88.1943L76.1733 88.1937L76.0435 87.2027ZM80.364 85.7563L79.8774 84.8835L79.8717 84.8867L80.364 85.7563ZM83.9212 82.7668L83.1525 82.1279L83.1474 82.1342L83.9212 82.7668ZM86.8049 73.7455L85.8071 73.8195L85.8074 73.8227L86.8049 73.7455ZM85.6192 69.2475L84.713 69.6723L84.7186 69.6838L85.6192 69.2475ZM82.9291 65.5933L82.2514 66.3294L82.2543 66.3319L82.9291 65.5933ZM74.3576 62.8889L74.483 63.8805L74.4873 63.8799L74.3576 62.8889ZM70.0434 64.3154L69.5568 63.4426L69.551 63.4458L70.0434 64.3154ZM66.4863 67.3048L65.7176 66.6659L65.7125 66.6722L66.4863 67.3048ZM63.6161 76.3525L62.6186 76.4297L62.6186 76.4297L63.6161 76.3525ZM64.7818 80.8441L63.8757 81.2689L63.8786 81.2748L64.7818 80.8441ZM67.4719 84.4984L66.7942 85.2346L66.8032 85.2426L67.4719 84.4984ZM70.8761 88.6086C69.1108 88.0471 67.574 87.176 66.2539 85.9961L64.9189 87.4868C66.4568 88.8613 68.2434 89.8699 70.2671 90.5136L70.8761 88.6086ZM66.2588 86.0005C64.9294 84.7963 63.8738 83.3862 63.0882 81.7643L61.287 82.6369C62.1838 84.4883 63.394 86.1055 64.914 87.4823L66.2588 86.0005ZM63.0882 81.7643C62.3023 80.1416 61.8322 78.4054 61.68 76.5487L59.6858 76.7143C59.8576 78.8098 60.3907 80.7863 61.287 82.6369L63.0882 81.7643ZM61.6802 76.5514C61.5332 74.698 61.7564 72.8332 62.3583 70.9501L60.4524 70.3439C59.7755 72.4614 59.5171 74.5862 59.6856 76.7116L61.6802 76.5514ZM62.3583 70.9501C62.9603 69.0669 63.8581 67.4251 65.0478 66.0131L63.5178 64.7267C62.1498 66.3502 61.1293 68.2265 60.4524 70.3439L62.3583 70.9501ZM65.0495 66.0111C66.2556 64.5719 67.6481 63.422 69.2292 62.5535L68.2668 60.8019C66.4605 61.7941 64.8762 63.1057 63.5161 64.7287L65.0495 66.0111ZM69.2292 62.5535C70.8094 61.6854 72.484 61.1523 74.2599 60.9508L74.0364 58.9644C71.9995 59.1955 70.0741 59.8091 68.2668 60.8019L69.2292 62.5535ZM74.2665 60.95C76.0301 60.738 77.7886 60.9088 79.5514 61.4694L80.1603 59.5644C78.1341 58.9199 76.0875 58.7178 74.0298 58.9651L74.2665 60.95ZM79.5514 61.4694C81.3285 62.0347 82.8679 62.9133 84.1822 64.1039L85.527 62.6221C83.992 61.2315 82.1989 60.2128 80.1603 59.5644L79.5514 61.4694ZM84.1871 64.1083C85.5183 65.2981 86.5744 66.6998 87.3592 68.3201L89.1604 67.4475C88.2629 65.5944 87.0489 63.9823 85.5221 62.6176L84.1871 64.1083ZM87.3592 68.3201C88.1436 69.9395 88.6048 71.6769 88.7404 73.5401L90.7359 73.3929C90.5827 71.2858 90.0583 69.3013 89.1604 67.4475L87.3592 68.3201ZM88.7411 73.5493C88.8918 75.3876 88.6711 77.2448 88.0691 79.1279L89.975 79.7341C90.6519 77.6167 90.9085 75.4976 90.7352 73.3837L88.7411 73.5493ZM88.0691 79.1279C87.4671 81.011 86.5669 82.6605 85.3715 84.0869L86.905 85.3693C88.2758 83.7335 89.2981 81.8516 89.975 79.7341L88.0691 79.1279ZM85.3691 84.0899C84.1818 85.5178 82.7992 86.6625 81.2182 87.5309L82.1806 89.2825C83.9871 88.2902 85.5637 86.9825 86.9075 85.3663L85.3691 84.0899ZM81.2182 87.5309C79.6365 88.3998 77.9574 88.9401 76.1745 89.1544L76.4112 91.1393C78.4497 90.8942 80.375 90.2744 82.1806 89.2825L81.2182 87.5309ZM76.1811 89.1536C74.421 89.3534 72.6556 89.1746 70.8761 88.6086L70.2671 90.5136C72.3032 91.1612 74.352 91.373 76.4046 91.14L76.1811 89.1536ZM71.1623 87.7132C72.8277 88.2429 74.4998 88.407 76.1689 88.1943L75.918 86.2112C74.5533 86.3851 73.1744 86.2545 71.7712 85.8082L71.1623 87.7132ZM76.1733 88.1937C77.8351 87.9745 79.3985 87.4512 80.8564 86.6258L79.8717 84.8867C78.6378 85.5852 77.3208 86.0262 75.9137 86.2118L76.1733 88.1937ZM80.8506 86.6291C82.3228 85.8085 83.6051 84.7295 84.695 83.3995L83.1474 82.1342C82.2128 83.2748 81.1237 84.1888 79.8774 84.8835L80.8506 86.6291ZM84.6898 83.4058C85.8011 82.0717 86.6284 80.5476 87.1733 78.843L85.2674 78.2368C84.7978 79.706 84.0923 80.9999 83.1526 82.1279L84.6898 83.4058ZM87.1733 78.843C87.7221 77.1262 87.9345 75.399 87.8024 73.6684L85.8074 73.8227C85.9189 75.2841 85.7417 76.7532 85.2674 78.2368L87.1733 78.843ZM87.8027 73.6716C87.6763 71.9422 87.2502 70.3192 86.5198 68.8112L84.7186 69.6838C85.334 70.9545 85.6984 72.3302 85.8072 73.8195L87.8027 73.6716ZM86.5253 68.8228C85.8145 67.3059 84.8393 65.981 83.604 64.8546L82.2543 66.3319C83.295 67.281 84.1133 68.3923 84.7131 69.6723L86.5253 68.8228ZM83.6068 64.8572C82.3702 63.7208 80.9185 62.8907 79.2652 62.3648L78.6562 64.2698C80.0447 64.7115 81.2386 65.3986 82.2514 66.3294L83.6068 64.8572ZM79.2652 62.3648C77.5966 61.8341 75.9141 61.6755 74.2278 61.8979L74.4873 63.8799C75.87 63.6975 77.2562 63.8245 78.6562 64.2698L79.2652 62.3648ZM74.2321 61.8974C72.5861 62.1072 71.0257 62.6238 69.5568 63.4426L70.53 65.1882C71.7795 64.4917 73.0952 64.0573 74.483 63.8805L74.2321 61.8974ZM69.551 63.4458C68.0961 64.2694 66.8177 65.3453 65.7176 66.6659L67.2549 67.9438C68.2058 66.8022 69.2989 65.8851 70.5358 65.1849L69.551 63.4458ZM65.7125 66.6722C64.6168 68.0093 63.7981 69.5333 63.2541 71.235L65.16 71.8412C65.6306 70.3691 66.3313 69.0709 67.26 67.9375L65.7125 66.6722ZM63.2541 71.235C62.7014 72.9641 62.4864 74.6979 62.6186 76.4297L64.6136 76.2753C64.5022 74.815 64.6812 73.3392 65.16 71.8412L63.2541 71.235ZM62.6186 76.4297C62.7493 78.1417 63.1673 79.7571 63.8757 81.2689L65.688 80.4194C65.0857 79.1343 64.7266 77.7553 64.6136 76.2753L62.6186 76.4297ZM63.8786 81.2748C64.6012 82.7907 65.5738 84.113 66.7942 85.2345L68.1496 83.7623C67.1206 82.8167 66.2998 81.7028 65.6851 80.4134L63.8786 81.2748ZM66.8032 85.2426C68.055 86.3652 69.512 87.1883 71.1623 87.7132L71.7712 85.8082C70.3797 85.3656 69.1735 84.6804 68.1406 83.7542L66.8032 85.2426ZM106.059 100.276L105.754 101.228L106.707 101.531L107.011 100.579L106.059 100.276ZM103.257 99.3844L102.304 99.0813L101.999 100.034L102.952 100.337L103.257 99.3844ZM107.188 84.3276L106.214 84.5556L106.214 84.5556L107.188 84.3276ZM105.731 81.5062L106.481 80.8438L106.481 80.8438L105.731 81.5062ZM99.7673 79.6094L99.5466 78.6347L99.5402 78.6362L99.7673 79.6094ZM96.9418 81.0686L97.604 81.8171L97.604 81.8171L96.9418 81.0686ZM91.4097 95.6161L91.1052 96.5687L92.0582 96.8718L92.3626 95.9192L91.4097 95.6161ZM88.608 94.725L87.655 94.4219L87.3506 95.3744L88.3035 95.6775L88.608 94.725ZM98.1992 64.7207L98.5037 63.7682L97.5507 63.4651L97.2462 64.4176L98.1992 64.7207ZM101.001 65.6118L101.954 65.9149L102.258 64.9624L101.305 64.6593L101.001 65.6118ZM96.9214 78.3737L95.9685 78.0705L94.9996 81.1016L97.5289 79.1671L96.9214 78.3737ZM100.457 76.8317L100.28 75.8481L100.28 75.8481L100.457 76.8317ZM108.218 79.5206L108.965 78.855L108.965 78.855L108.218 79.5206ZM109.064 87.5906L105.106 99.9724L107.011 100.579L110.969 88.1968L109.064 87.5906ZM106.363 99.323L103.561 98.4318L102.952 100.337L105.754 101.228L106.363 99.323ZM104.21 99.6875L107.989 87.8658L106.083 87.2596L102.304 99.0813L104.21 99.6875ZM107.989 87.8658C108.39 86.6095 108.453 85.3476 108.162 84.0996L106.214 84.5556C106.419 85.4341 106.38 86.3289 106.083 87.2596L107.989 87.8658ZM108.162 84.0996C107.877 82.8752 107.314 81.7855 106.481 80.8438L104.981 82.1687C105.595 82.8625 106.003 83.6536 106.214 84.5556L108.162 84.0996ZM106.481 80.8438C105.632 79.8839 104.566 79.205 103.309 78.8052L102.7 80.7102C103.631 81.0064 104.383 81.4931 104.981 82.1687L106.481 80.8438ZM103.309 78.8052C102.064 78.4089 100.803 78.3492 99.5466 78.6347L99.988 80.5841C100.887 80.3798 101.785 80.419 102.7 80.7102L103.309 78.8052ZM99.5402 78.6362C98.3145 78.923 97.2231 79.4866 96.2797 80.3201L97.604 81.8171C98.299 81.2031 99.0913 80.7939 99.9943 80.5826L99.5402 78.6362ZM96.2797 80.3201C95.318 81.1696 94.6372 82.235 94.2357 83.4913L96.1416 84.0975C96.4391 83.1669 96.9271 82.4151 97.604 81.8171L96.2797 80.3201ZM94.2357 83.4913L90.4567 95.313L92.3626 95.9192L96.1416 84.0975L94.2357 83.4913ZM91.7142 94.6636L88.9125 93.7725L88.3035 95.6775L91.1052 96.5687L91.7142 94.6636ZM89.5609 95.0281L99.1521 65.0238L97.2462 64.4176L87.655 94.4219L89.5609 95.0281ZM97.8947 65.6732L100.696 66.5643L101.305 64.6593L98.5037 63.7682L97.8947 65.6732ZM100.048 65.3087L95.9685 78.0705L97.8744 78.6768L101.954 65.9149L100.048 65.3087ZM97.5289 79.1671C98.4287 78.479 99.4582 78.0276 100.634 77.8154L100.28 75.8481C98.8037 76.1146 97.4763 76.6912 96.3139 77.5802L97.5289 79.1671ZM100.634 77.8154C101.792 77.6061 102.957 77.6847 104.142 78.0617L104.751 76.1566C103.268 75.6849 101.773 75.5785 100.28 75.8481L100.634 77.8154ZM104.142 78.0617C105.487 78.4895 106.589 79.1979 107.47 80.1861L108.965 78.855C107.834 77.5871 106.421 76.6878 104.751 76.1566L104.142 78.0617ZM107.47 80.1861C108.365 81.1886 108.958 82.3375 109.258 83.647L111.208 83.1991C110.833 81.5614 110.083 80.1087 108.965 78.855L107.47 80.1861ZM109.258 83.647C109.553 84.938 109.493 86.2461 109.064 87.5906L110.969 88.1968C111.503 86.5275 111.587 84.8553 111.208 83.1991L109.258 83.647ZM113.725 101.722L112.961 102.368L112.963 102.371L113.725 101.722ZM111.318 96.7698L110.338 96.9695L110.34 96.9792L111.318 96.7698ZM113.763 87.1902L114.529 87.8324L114.531 87.8295L113.763 87.1902ZM116.979 84.5108L116.495 83.6362L116.495 83.6364L116.979 84.5108ZM120.909 83.2489L120.796 82.256L120.796 82.256L120.909 83.2489ZM129.623 86.6816L128.858 87.3268L128.861 87.3298L129.623 86.6816ZM132.024 91.6542L131.043 91.8539L131.045 91.8601L132.024 91.6542ZM129.599 101.24L128.833 100.598L128.833 100.598L129.599 101.24ZM126.363 103.913L125.88 103.039L125.88 103.039L126.363 103.913ZM122.459 105.161L122.345 104.168L122.341 104.169L122.459 105.161ZM123.211 102.051L123.478 103.014L123.481 103.013L123.211 102.051ZM126.7 100.032L126.009 99.3095L126.003 99.3156L126.7 100.032ZM129.156 92.3506L128.172 92.536L128.173 92.5406L129.156 92.3506ZM127.462 88.6827L126.685 89.3138L126.689 89.3181L127.462 88.6827ZM120.131 86.373L120.398 87.336L120.401 87.3352L120.131 86.373ZM116.648 88.3723L115.957 87.6501L115.951 87.6562L116.648 88.3723ZM114.201 96.1662L113.22 96.3647L113.221 96.3695L114.201 96.1662ZM115.934 99.7804L115.166 100.423L115.172 100.429L115.934 99.7804ZM118.619 103.794C116.951 103.264 115.581 102.358 114.488 101.074L112.963 102.371C114.306 103.948 115.996 105.059 118.01 105.699L118.619 103.794ZM114.49 101.077C113.394 99.7798 112.663 98.2797 112.297 96.5604L110.34 96.9792C110.773 99.0108 111.647 100.812 112.961 102.368L114.49 101.077ZM112.299 96.5701C111.952 94.862 112.056 93.126 112.625 91.3457L110.719 90.7395C110.052 92.8264 109.919 94.9085 110.338 96.9695L112.299 96.5701ZM112.625 91.3457C113.057 89.9939 113.693 88.827 114.529 87.8324L112.997 86.5481C111.982 87.7562 111.224 89.1574 110.719 90.7395L112.625 91.3457ZM114.531 87.8295C115.385 86.8057 116.362 85.994 117.462 85.3852L116.495 83.6364C115.167 84.3708 114 85.3454 112.995 86.5509L114.531 87.8295ZM117.462 85.3854C118.58 84.7675 119.765 84.3874 121.023 84.2419L120.796 82.256C119.276 82.4317 117.84 82.8928 116.495 83.6362L117.462 85.3854ZM121.023 84.2419C122.267 84.0981 123.506 84.2206 124.749 84.6162L125.358 82.7112C123.854 82.2326 122.33 82.0786 120.796 82.256L121.023 84.2419ZM124.749 84.6162C126.418 85.1468 127.779 86.0493 128.858 87.3268L130.388 86.0363C129.057 84.4612 127.372 83.3518 125.358 82.7112L124.749 84.6162ZM128.861 87.3298C129.967 88.6287 130.694 90.1309 131.043 91.8539L133.004 91.4545C132.589 89.4084 131.716 87.5956 130.385 86.0333L128.861 87.3298ZM131.045 91.8601C131.403 93.5699 131.304 95.3124 130.731 97.1047L132.637 97.7109C133.309 95.6094 133.436 93.5161 133.003 91.4483L131.045 91.8601ZM130.731 97.1047C130.303 98.4419 129.669 99.6025 128.833 100.598L130.365 101.882C131.379 100.675 132.135 99.2808 132.637 97.7109L130.731 97.1047ZM128.833 100.598C127.985 101.607 127.002 102.419 125.88 103.039L126.847 104.788C128.189 104.046 129.362 103.076 130.365 101.882L128.833 100.598ZM125.88 103.039C124.781 103.647 123.605 104.023 122.345 104.168L122.573 106.154C124.09 105.979 125.518 105.523 126.847 104.788L125.88 103.039ZM122.341 104.169C121.115 104.316 119.877 104.194 118.619 103.794L118.01 105.699C119.527 106.182 121.052 106.337 122.577 106.154L122.341 104.169ZM118.905 102.899C120.441 103.387 121.973 103.432 123.478 103.014L122.944 101.088C121.835 101.396 120.7 101.371 119.514 100.994L118.905 102.899ZM123.481 103.013C124.968 102.595 126.278 101.836 127.397 100.748L126.003 99.3156C125.119 100.175 124.102 100.763 122.941 101.089L123.481 103.013ZM127.391 100.754C128.531 99.6652 129.347 98.3481 129.835 96.8198L127.929 96.2136C127.54 97.4323 126.9 98.4586 126.009 99.3095L127.391 100.754ZM129.835 96.8198C130.331 95.2681 130.436 93.7099 130.138 92.1606L128.173 92.5406C128.405 93.7457 128.328 94.9649 127.929 96.2136L129.835 96.8198ZM130.139 92.1652C129.848 90.6155 129.214 89.2366 128.235 88.0473L126.689 89.3181C127.446 90.2382 127.941 91.3047 128.172 92.536L130.139 92.1652ZM128.239 88.0516C127.256 86.8436 125.988 85.9964 124.463 85.5116L123.854 87.4166C125.025 87.7889 125.959 88.4208 126.685 89.3138L128.239 88.0516ZM124.463 85.5116C122.924 85.0219 121.381 84.9836 119.861 85.4108L120.401 87.3352C121.529 87.0182 122.672 87.0406 123.854 87.4166L124.463 85.5116ZM119.864 85.41C118.393 85.8188 117.088 86.5706 115.957 87.6501L117.339 89.0945C118.239 88.2344 119.256 87.6533 120.398 87.336L119.864 85.41ZM115.951 87.6562C114.825 88.7509 114.015 90.0823 113.52 91.6306L115.426 92.2368C115.827 90.9847 116.467 89.9418 117.345 89.0884L115.951 87.6562ZM113.52 91.6306C113.012 93.2209 112.905 94.8045 113.22 96.3647L115.181 95.9676C114.939 94.765 115.014 93.5269 115.426 92.2368L113.52 91.6306ZM113.221 96.3695C113.536 97.8944 114.185 99.251 115.166 100.422L116.701 99.1383C115.938 98.2271 115.431 97.1741 115.181 95.9628L113.221 96.3695ZM115.172 100.429C116.171 101.601 117.423 102.427 118.905 102.899L119.514 100.994C118.382 100.634 117.449 100.016 116.695 99.1317L115.172 100.429ZM138.075 88.4223L138.379 87.4698L137.427 87.1667L137.122 88.1192L138.075 88.4223ZM140.877 89.3135L141.83 89.6166L142.134 88.6641L141.181 88.3609L140.877 89.3135ZM134.483 109.316L134.178 110.269L135.131 110.572L135.436 109.619L134.483 109.316ZM131.681 108.425L130.728 108.122L130.423 109.075L131.376 109.378L131.681 108.425ZM139.595 84.5645L138.706 85.0237L138.716 85.043L138.726 85.0618L139.595 84.5645ZM140.317 82.3042L140.756 83.202L140.757 83.2016L140.317 82.3042ZM142.599 83.0298L141.71 83.489L141.72 83.5083L141.73 83.5272L142.599 83.0298ZM141.896 85.2965L142.335 86.1944L142.345 86.1895L142.355 86.1844L141.896 85.2965ZM137.771 89.3748L140.572 90.266L141.181 88.3609L138.379 87.4698L137.771 89.3748ZM139.924 89.0104L133.53 109.013L135.436 109.619L141.83 89.6166L139.924 89.0104ZM134.787 108.364L131.985 107.473L131.376 109.378L134.178 110.269L134.787 108.364ZM132.634 108.728L139.028 88.7254L137.122 88.1192L130.728 108.122L132.634 108.728ZM140.919 84.4212C140.693 84.3491 140.559 84.2351 140.463 84.0672L138.726 85.0618C139.083 85.6843 139.63 86.1099 140.31 86.3263L140.919 84.4212ZM140.484 84.1053C140.403 83.9481 140.384 83.7946 140.452 83.5811L138.546 82.9748C138.324 83.6681 138.369 84.3723 138.706 85.0237L140.484 84.1053ZM140.452 83.5811C140.52 83.3678 140.619 83.2691 140.756 83.202L139.879 81.4063C139.215 81.7309 138.768 82.2813 138.546 82.9748L140.452 83.5811ZM140.757 83.2016C140.938 83.1131 141.107 83.0977 141.321 83.1658L141.93 81.2608C141.237 81.0403 140.534 81.0855 139.878 81.4068L140.757 83.2016ZM141.321 83.1658C141.512 83.2268 141.624 83.324 141.71 83.489L143.488 82.5706C143.155 81.927 142.618 81.4799 141.93 81.2608L141.321 83.1658ZM141.73 83.5272C141.811 83.6674 141.832 83.7999 141.768 83.9996L143.674 84.6059C143.9 83.8988 143.84 83.1827 143.467 82.5325L141.73 83.5272ZM141.768 83.9996C141.7 84.2132 141.595 84.3273 141.438 84.4087L142.355 86.1844C143.007 85.8475 143.452 85.2991 143.674 84.6059L141.768 83.9996ZM141.458 84.3987C141.305 84.4731 141.146 84.4933 140.919 84.4212L140.31 86.3263C140.991 86.5428 141.686 86.5115 142.335 86.1944L141.458 84.3987ZM151.183 105.373L150.23 105.07L149.926 106.022L150.879 106.325L151.183 105.373ZM157.449 85.7701L157.754 84.8176L156.801 84.5145L156.496 85.467L157.449 85.7701ZM159.911 86.553L160.864 86.8561L161.168 85.9036L160.215 85.6005L159.911 86.553ZM153.645 106.156L153.34 107.108L154.293 107.411L154.598 106.459L153.645 106.156ZM148.565 113.84L149.454 113.38L149.454 113.38L148.565 113.84ZM149.287 111.579L148.848 110.682L148.838 110.687L148.829 110.691L149.287 111.579ZM151.549 112.299L152.438 111.839L152.438 111.839L151.549 112.299ZM150.826 114.559L150.368 113.671L150.358 113.676L150.349 113.681L150.826 114.559ZM152.136 105.676L158.402 86.0732L156.496 85.467L150.23 105.07L152.136 105.676ZM157.145 86.7226L159.606 87.5055L160.215 85.6005L157.754 84.8176L157.145 86.7226ZM158.958 86.2499L152.692 105.853L154.598 106.459L160.864 86.8561L158.958 86.2499ZM153.949 105.203L151.488 104.42L150.879 106.325L153.34 107.108L153.949 105.203ZM149.877 113.736C149.675 113.672 149.55 113.566 149.454 113.38L147.676 114.299C148.015 114.957 148.562 115.417 149.268 115.641L149.877 113.736ZM149.454 113.38C149.373 113.223 149.354 113.07 149.422 112.856L147.516 112.25C147.294 112.943 147.339 113.647 147.676 114.299L149.454 113.38ZM149.422 112.856C149.483 112.665 149.581 112.552 149.746 112.467L148.829 110.691C148.184 111.024 147.736 111.561 147.516 112.25L149.422 112.856ZM149.727 112.477C149.908 112.388 150.077 112.373 150.291 112.441L150.9 110.536C150.207 110.315 149.504 110.361 148.848 110.682L149.727 112.477ZM150.291 112.441C150.46 112.495 150.57 112.585 150.66 112.758L152.438 111.839C152.11 111.204 151.584 110.754 150.9 110.536L150.291 112.441ZM150.66 112.758C150.745 112.923 150.759 113.07 150.698 113.262L152.604 113.868C152.824 113.18 152.77 112.483 152.438 111.839L150.66 112.758ZM150.698 113.262C150.63 113.476 150.525 113.59 150.368 113.671L151.285 115.447C151.937 115.11 152.382 114.561 152.604 113.868L150.698 113.262ZM150.349 113.681C150.169 113.779 150.033 113.786 149.877 113.736L149.268 115.641C149.965 115.863 150.665 115.784 151.304 115.437L150.349 113.681Z" fill="#1E1E1E" mask="url(#path-6-outside-3_336_52)"/>
</svg>
