<svg width="44" height="51" viewBox="0 0 44 51" fill="none" xmlns="http://www.w3.org/2000/svg">
<path fill-rule="evenodd" clip-rule="evenodd" d="M27.1844 14.1723V10.8692C27.1499 10.0778 27.1499 9.28645 27.1499 8.48649V8.48636C27.1499 7.68642 27.1499 6.87789 27.1155 6.05216C26.9779 4.19416 26.4274 2.4738 25.3952 0.959882C24.5694 -0.14115 23.7436 -0.347594 22.7802 0.615809C21.9545 1.5104 21.1287 2.54262 20.7158 3.71246C19.2019 7.77252 19.2019 12.039 19.8212 16.2367C20.0965 18.2323 21.8856 19.4022 23.7436 19.2645C25.5328 19.1269 26.9091 17.7506 27.1155 15.8238C27.1844 15.2733 27.1844 14.7228 27.1844 14.1723V14.1723ZM23.95 48.9236C25.1199 46.7215 25.6016 44.313 25.6704 41.7669L25.627 41.4191C25.3658 39.3265 25.0982 37.1818 24.707 35.1607C24.6382 34.4725 24.3629 33.8532 24.0189 33.3027C23.1931 31.9952 21.9544 31.3759 20.3717 31.5823C18.8578 31.7888 17.7567 32.7522 17.4127 34.2661C17.275 34.9542 17.275 35.78 17.3439 36.537C17.4815 37.9821 17.6879 39.4272 17.9632 40.8035C18.011 41.0328 18.0574 41.2621 18.1038 41.4912C18.3916 42.9123 18.6781 44.3263 19.2707 45.6893C19.8212 46.9968 20.7158 48.2354 21.6792 49.3365C22.6426 50.3687 23.2619 50.2311 23.95 48.9236ZM11.7011 20.9161C13.2838 20.9161 14.8665 21.1225 16.3116 21.9483C18.032 22.9805 18.2384 24.0816 16.7933 25.5267C16.0364 26.3524 15.0042 27.0406 13.9719 27.4535C10.8065 28.7609 7.36575 29.105 3.99383 29.1738C3.71858 29.1738 3.44333 29.105 3.16808 29.0362L3.16806 29.0362C1.24125 28.5545 -0.066222 26.9718 0.0025925 25.1138C0.071407 23.2558 1.4477 21.8107 3.51213 21.6042C6.05827 21.329 8.53559 21.1225 11.0817 20.9161H11.7011ZM43.0805 24.288C40.9472 23.3934 38.7452 22.7741 36.3367 22.6365C35.5675 22.7647 34.7984 22.8779 34.0362 22.9902C33.1617 23.1189 32.2965 23.2464 31.4508 23.3934C30.6939 23.5999 29.8681 24.0816 29.2488 24.7009C28.1477 25.8019 28.0101 27.1782 28.5606 28.5545C29.1799 30.0684 30.4186 30.8942 32.0702 30.8254C34.8227 30.7566 37.5065 30.0684 39.915 28.6233C41.1537 27.9352 42.3235 27.0406 43.3557 26.0772C44.3191 25.2514 44.1815 24.7697 43.0805 24.288Z" fill="black"/>
</svg>
