<svg width="214" height="324" viewBox="0 0 214 324" fill="none" xmlns="http://www.w3.org/2000/svg">
<g clip-path="url(#clip0_324_210)">
<path d="M65.8503 69.646C62.3813 84.1779 52.8906 93.7793 41.5632 101.882C35.2425 106.431 28.4762 110.193 20.9106 112.338C17.7188 113.267 14.5405 113.972 11.2317 113.864C9.2228 113.743 7.26661 113.492 5.33715 112.794C1.74075 111.503 -0.133581 108.389 -0.037521 104.542C0.0176046 102.126 0.8736 99.8027 1.93943 97.7161C3.86044 94.0678 6.42432 90.9061 9.32929 88.0336C16.9533 80.4261 26.0979 75.1049 36.1079 71.0452C42.8073 68.4 49.7426 66.3066 56.769 64.9354C57.268 64.8309 57.6359 64.6737 58.2269 64.5299C58.4141 61.4051 57.5112 58.5285 56.3851 55.6385C51.868 43.5403 45.1699 32.7003 36.514 23.1319C33.6549 20.0037 30.6512 17.0461 27.4109 14.2983C21.2847 8.8687 14.1194 5.07936 6.26955 2.99626C4.90439 2.60087 3.53923 2.20547 2.13478 1.71813C2.00353 1.66546 1.92494 1.48155 1.72848 1.02176C2.45076 0.930625 2.94984 0.826117 3.48821 0.813567C12.6531 1.13858 21.0539 3.74751 28.8219 8.693C38.4399 14.9142 46.244 22.9979 52.6285 32.3407C57.8594 40.0015 62.1707 48.0552 64.7741 56.9475C65.3761 58.8652 65.7414 60.9928 66.238 63.173C66.7764 63.1604 67.4068 63.1086 68.0371 63.0567C77.4661 61.9639 86.8156 61.4488 96.2555 62.4175C103.87 63.1873 111.261 64.7053 118.388 67.6411C122.234 69.2603 125.921 71.2732 129.122 73.9291C137.269 80.7789 139.308 89.3686 134.965 99.0543C134.754 99.5793 134.543 100.104 134.227 100.892C135.396 100.827 136.25 100.789 137.234 100.803C144.877 100.365 152.545 100.242 160.252 100.972C166.843 101.636 173.355 102.877 179.563 105.444C182.581 106.656 185.311 108.208 187.83 110.285C193.799 115.347 195.971 121.705 194.256 129.397C193.992 130.815 193.465 132.128 193.057 133.716C194.225 133.652 195.079 133.613 196.024 133.536C204.442 132.875 213.003 132.805 221.419 133.668C223.559 133.841 225.686 134.237 227.76 134.765C228.823 134.963 229.768 135.647 230.765 136.199C231.539 136.738 231.893 137.566 231.432 138.524C230.972 139.482 230.118 139.52 229.147 139.283C227.112 138.848 225.025 138.543 222.976 138.331C212.644 137.309 202.323 137.587 192.093 138.587C191.147 138.664 190.241 138.834 189.689 139.831C183.783 149.424 175.555 156.637 166.265 162.89C153.374 171.66 139.357 178.303 124.396 182.738C119.287 184.268 114.204 185.353 108.834 185.255C106.864 185.227 104.816 185.014 102.965 184.5C98.3839 183.196 96.589 179.504 98.117 174.936C99.0917 172.127 100.709 169.805 102.721 167.64C106.52 163.298 111.12 159.81 116.007 156.743C125.323 150.805 135.347 146.522 145.894 143.211C158.727 139.142 171.887 136.346 185.164 134.587C186.701 134.366 187.712 133.934 188.121 132.345C188.688 130.363 189.478 128.394 189.821 126.399C190.535 121.962 189.147 118.205 185.881 115.142C183.677 113.038 181.118 111.631 178.362 110.525C173.69 108.498 168.78 107.442 163.765 106.649C153.105 105.114 142.39 105.234 131.674 106.115C130.729 106.193 130.046 106.376 129.415 107.189C122.815 114.903 114.589 120.593 105.786 125.442C96.287 130.697 86.3164 134.849 75.7697 137.398C71.7244 138.365 67.6006 139.148 63.4382 139.078C61.6919 139.063 59.8669 138.864 58.2393 138.364C54.2357 137.138 52.8346 133.604 54.8868 130.009C55.8866 128.277 57.1882 126.742 58.6603 125.352C62.7875 121.522 67.7013 118.77 72.6937 116.202C88.7611 108.249 106.032 104.131 123.722 102.01C124.352 101.958 124.943 101.814 125.613 101.854C126.689 101.829 127.438 101.292 127.938 100.425C129.043 98.4308 130.372 96.4495 131.083 94.2968C132.953 89.2567 131.934 84.5811 128.13 80.7691C126.189 78.7711 123.735 77.1009 121.268 75.6539C116.938 73.1544 112.186 71.7049 107.368 70.6099C97.2471 68.3011 86.9136 68.0405 76.5658 68.7646C73.2437 68.8792 69.6322 69.3349 65.8503 69.646ZM183.964 139.668C183.294 139.628 183.071 139.614 182.756 139.64C182.217 139.653 181.626 139.796 181.088 139.809C167.588 141.554 154.283 144.52 141.463 149.128C132.123 152.467 123.098 156.541 114.951 162.414C111.298 165.063 107.776 167.764 104.962 171.359C103.792 172.946 102.792 174.678 102.055 176.516C101.37 178.222 102.051 179.562 103.955 179.945C105.635 180.315 107.46 180.513 109.167 180.437C115.089 180.298 120.737 178.755 126.359 176.897C138.614 172.747 150.11 167.074 161.016 160.022C168.755 154.975 176.036 149.363 182.018 142.239C182.465 141.504 183.135 140.783 183.964 139.668ZM57.3267 71.3306C56.1053 71.5263 55.2911 71.6567 54.6081 71.8398C51.8761 72.5722 49.1968 73.1733 46.5042 73.9976C36.7843 76.9547 27.7065 81.1599 19.5851 87.3488C15.4061 90.5482 11.6994 94.0894 8.7928 98.4851C7.75371 100.125 6.97712 101.871 6.33178 103.669C5.60704 106.045 6.48567 107.083 8.92758 107.453C9.85969 107.599 10.8445 107.613 11.7507 107.443C14.0621 106.999 16.5049 106.608 18.7904 105.849C27.0657 103.074 34.4105 98.6308 41.1919 93.1233C46.9876 88.3631 51.9307 82.8798 55.3388 76.0949C56.0494 74.7038 56.5894 73.1681 57.3267 71.3306ZM59.3485 132.561C59.4271 132.745 59.5449 133.021 59.7155 133.165C60.7396 133.272 61.7503 133.601 62.7351 133.615C64.7573 133.512 66.9108 133.462 68.9464 133.136C78.7173 131.571 87.8862 128.088 96.7935 123.738C104.912 119.834 112.717 115.194 119.696 109.385C120.261 108.926 120.787 108.375 121.312 107.824C120.341 107.587 119.448 107.533 118.673 107.756C112.776 108.97 106.853 109.87 101.074 111.361C90.5276 113.91 80.3605 117.602 71.0319 123.001C67.8787 124.784 64.9611 127.118 62.1356 129.413C60.9268 130.147 60.1769 131.446 59.3485 132.561Z" fill="black"/>
<path d="M161.063 324.018C155.852 323.728 151.22 321.991 147.456 318.228C145.14 315.912 142.969 313.306 141.087 310.411C134.573 300.423 127.769 290.724 119.518 282.039C119.374 281.894 119.374 281.894 119.229 281.749C104.03 262.497 88.2511 243.678 74.2098 223.557C69.2881 216.464 65.9587 208.792 63.0636 200.541C61.1818 195.04 61.7608 189.684 65.0902 184.908C67.1168 182.012 69.5776 179.262 72.328 177.091C91.291 161.891 108.806 145.1 126.756 128.598C139.06 117.451 151.654 106.739 164.248 96.0274C167.288 93.4218 170.617 90.961 174.091 88.9344C183.645 83.1442 193.199 83.7232 201.74 90.8162C205.503 93.8561 208.833 97.475 211.728 101.383C223.308 116.583 233.731 132.506 243.429 149.008C249.22 158.851 255.299 168.695 261.379 178.249C268.038 188.671 274.118 199.528 279.329 210.674C281.645 215.596 283.672 220.662 284.685 226.018C285.843 232.243 284.685 238.033 280.776 243.099C278.171 246.284 275.276 249.469 272.091 251.93C264.419 258.009 256.313 263.655 248.351 269.59C239.376 276.104 230.257 282.473 221.427 289.132C208.399 299.12 194.502 307.95 180.605 316.78C176.697 319.241 172.354 320.833 168.012 322.57C165.985 323.439 163.379 323.584 161.063 324.018Z" fill="#55BBDA"/>
<mask id="mask0_324_210" style="mask-type:alpha" maskUnits="userSpaceOnUse" x="62" y="85" width="224" height="240">
<path d="M161.063 324.018C155.852 323.728 151.22 321.991 147.456 318.228C145.14 315.912 142.969 313.306 141.087 310.411C134.573 300.423 127.769 290.724 119.518 282.039C119.374 281.894 119.374 281.894 119.229 281.749C104.03 262.497 88.2511 243.678 74.2098 223.557C69.2881 216.464 65.9587 208.792 63.0636 200.541C61.1818 195.04 61.7608 189.684 65.0902 184.908C67.1168 182.012 69.5776 179.262 72.328 177.091C91.291 161.891 108.806 145.1 126.756 128.598C139.06 117.451 151.654 106.739 164.248 96.0274C167.288 93.4218 170.617 90.961 174.091 88.9344C183.645 83.1442 193.199 83.7232 201.74 90.8162C205.503 93.8561 208.833 97.475 211.728 101.383C223.308 116.583 233.731 132.506 243.429 149.008C249.22 158.851 255.299 168.695 261.379 178.249C268.038 188.671 274.118 199.528 279.329 210.674C281.645 215.596 283.672 220.662 284.685 226.018C285.843 232.243 284.685 238.033 280.776 243.099C278.171 246.284 275.276 249.469 272.091 251.93C264.419 258.009 256.313 263.655 248.351 269.59C239.376 276.104 230.257 282.473 221.427 289.132C208.399 299.12 194.502 307.95 180.605 316.78C176.697 319.241 172.354 320.833 168.012 322.57C165.985 323.439 163.379 323.584 161.063 324.018Z" fill="#55BBDA"/>
</mask>
<g mask="url(#mask0_324_210)">
<path d="M298.292 333.571C296.41 332.992 294.962 331.545 293.66 329.952C291.054 326.768 289.462 323.004 288.159 319.241C284.974 309.831 283.237 299.988 282.079 290.145C281.211 282.473 280.632 274.656 279.763 266.984C279.763 266.405 279.618 265.97 279.329 264.668C278.171 266.405 277.592 267.418 276.868 268.431C268.617 281.314 259.642 293.619 248.496 304.331C244.443 308.239 239.955 311.858 235.323 315.043C232.573 316.924 229.243 318.372 225.914 319.241C218.531 321.267 212.307 318.227 208.977 311.424C206.661 306.792 205.793 301.725 205.793 296.659C205.793 290.724 206.227 284.933 206.517 278.998C206.517 278.275 206.661 277.551 206.806 275.959C205.648 277.406 204.924 278.275 204.201 279.143C198.266 287.105 191.896 294.777 184.803 301.725C180.026 306.357 175.105 310.7 169.314 314.029C165.985 316.056 162.511 317.503 158.747 318.227C152.378 319.241 147.022 316.635 144.127 310.845C142.1 306.792 141.377 302.304 141.087 297.817C140.363 286.526 141.811 275.379 143.403 264.233C143.982 260.614 144.561 256.996 144.706 253.087C143.982 254.1 143.258 255.114 142.679 256.127C136.021 266.839 129.217 277.117 120.821 286.526C117.202 290.579 113.294 294.343 109.096 297.817C106.635 299.843 103.595 301.436 100.7 302.449C94.4756 304.62 88.9749 302.594 85.356 297.093C83.0399 293.619 82.0266 289.71 81.3028 285.802C79.8553 277.117 79.7105 268.431 80.579 259.891C81.4476 250.047 82.7504 240.059 83.7637 230.216C83.9084 229.058 84.0532 227.9 83.6189 226.452C82.8951 227.321 82.1714 228.189 81.4476 229.202C73.9203 239.48 65.6692 249.179 55.9705 257.575C52.3517 260.614 48.4432 263.365 44.5348 265.97C43.3768 266.694 41.9292 267.707 40.3369 265.97C40.7712 265.391 41.0607 264.812 41.6397 264.523C48.1537 260.325 53.7992 254.824 59.1552 249.323C68.7091 239.48 77.1049 228.768 84.6322 217.332C85.6455 215.74 86.3693 213.858 86.8035 211.976C93.028 180.709 101.279 150.021 113.873 120.635C117.637 111.95 121.69 103.554 127.046 95.8822C129.217 92.6976 131.678 89.8025 134.283 87.0521C135.876 85.0255 138.047 83.4332 140.508 84.5913C143.114 85.8941 143.258 88.6444 142.824 90.9605C141.521 97.6193 140.363 104.423 138.337 110.937C127.769 146.402 112.715 179.841 93.1728 211.253C91.1462 214.437 89.8434 217.767 89.2644 221.53C86.9483 235.282 84.777 249.179 84.1979 263.22C83.9084 270.892 83.7637 278.564 85.5007 286.091C86.0798 288.552 86.9483 291.013 88.1063 293.184C90.8567 298.396 95.3441 300.133 100.555 297.382C103.595 295.935 106.635 293.908 109.096 291.447C114.162 286.381 118.939 281.025 123.427 275.379C133.125 262.93 141.087 249.323 148.47 235.427C149.049 234.269 149.628 232.821 149.917 231.518C156.142 204.16 164.827 177.38 173.223 150.6C179.447 130.913 185.817 111.082 193.778 91.9738C195.37 88.0654 197.252 84.157 199.279 80.3933C199.858 79.2353 200.726 78.0772 201.884 77.2087C203.622 75.7612 205.938 76.4849 206.372 78.801C206.661 80.3933 206.661 81.9857 206.661 83.578C205.938 93.5661 203.477 103.265 201.161 112.963C191.028 155.956 174.67 196.777 154.26 235.861C152.957 238.322 151.944 240.928 151.509 243.678C149.338 255.114 147.311 266.405 145.574 277.84C144.561 284.933 144.127 292.171 145.14 299.264C145.574 302.015 146.153 304.765 147.167 307.371C149.338 312.871 153.536 314.898 159.181 313.45C162.077 312.727 164.972 311.424 167.433 309.831C171.63 306.936 175.684 303.896 179.447 300.567C190.449 290.579 199.424 278.998 207.675 266.839C208.398 265.826 208.833 264.523 209.122 263.365C216.071 227.755 226.203 193.013 238.073 158.706C244.443 140.178 251.246 121.938 259.208 103.989C260.8 100.514 262.537 97.0403 264.419 93.7109C265.432 91.8291 266.735 89.9472 269.341 90.671C271.946 91.3948 272.091 93.7109 271.946 95.7375C271.512 102.251 271.223 108.765 270.209 115.135C263.695 158.272 250.378 199.238 230.112 237.888C225.48 246.863 219.979 255.258 215.057 264.089C214.333 265.536 213.465 266.984 213.175 268.431C211.583 277.84 210.136 287.249 210.859 296.803C211.149 300.278 211.728 303.896 212.886 307.371C215.202 314.029 219.979 316.201 226.638 313.74C229.533 312.727 232.428 311.279 234.889 309.397C239.521 305.778 244.008 302.015 248.206 297.817C260.076 285.657 269.775 271.905 278.316 257.14C279.184 255.548 279.474 253.956 279.474 252.219C279.329 233.979 283.382 216.609 290.041 199.817C291.488 196.343 293.37 192.869 295.397 189.684C296.41 187.947 298.002 186.499 299.739 185.341C302.635 183.46 305.819 184.618 306.543 187.947C307.122 190.697 307.267 193.737 306.977 196.488C306.253 204.304 304.082 211.976 301.476 219.359C297.279 231.808 291.633 243.533 285.409 255.114C284.685 256.416 283.961 258.154 283.961 259.601C284.685 279.577 285.988 299.409 290.909 318.806C291.488 321.412 292.357 324.017 293.515 326.334C294.528 328.65 296.41 330.966 298.292 333.571ZM267.314 97.6193C255.444 114.845 215.926 235.861 216.36 252.074C225.769 239.77 244.587 196.488 253.707 165.799C260.366 143.507 265.288 120.925 267.314 97.6193ZM139.639 88.4997C139.35 88.3549 138.916 88.2102 138.626 88.0654C137.758 88.9339 136.6 89.513 135.876 90.5263C133.704 93.2766 131.388 95.8822 129.651 98.9221C126.177 104.857 122.848 110.792 120.097 117.017C109.82 139.454 102.437 163.194 96.5022 187.368C95.1994 192.434 94.1861 197.356 93.0281 202.423C93.1728 202.567 93.4623 202.567 93.6071 202.712C94.3309 201.554 95.0546 200.396 95.7784 199.238C109.096 176.511 120.097 152.771 129.072 128.018C133.125 116.872 137.034 105.87 139.06 94.1451C139.495 92.4081 139.495 90.3815 139.639 88.4997ZM158.892 214.727C160.919 210.529 162.8 206.331 164.827 202.278C180.895 167.536 193.199 131.492 201.016 94.0004C201.74 90.8158 202.174 87.6311 202.753 84.4465C195.805 92.6976 163.09 190.408 158.892 214.727ZM302.345 189.539C294.528 193.737 283.961 230.505 284.395 243.967C284.685 243.678 284.974 243.533 285.119 243.244C292.067 229.202 297.858 214.872 301.042 199.527C301.766 196.343 301.911 193.303 302.345 189.539Z" fill="black"/>
</g>
</g>
<defs>
<clipPath id="clip0_324_210">
<rect width="214" height="324" fill="white"/>
</clipPath>
</defs>
</svg>
