<svg width="178" height="383" viewBox="0 0 178 383" fill="none" xmlns="http://www.w3.org/2000/svg">
<g clip-path="url(#clip0_324_208)">
<path d="M27.4959 40.1041C22.664 40.1041 19.2579 37.0148 18.941 32.4206C18.7034 29.7273 19.4955 27.2718 21.0006 25.0539C22.5848 22.8359 26.0701 21.1725 28.8425 22.8359C29.0802 22.9943 29.397 23.0736 29.7139 23.1528C33.3576 23.5488 36.6053 27.5886 36.5261 31.7869C36.4469 35.8267 33.12 39.312 28.8425 39.9457C28.3673 40.0249 27.8128 40.1041 27.4959 40.1041Z" fill="black"/>
<path d="M65.7552 16.0232C60.2896 16.0232 56.7251 11.5873 57.9924 6.20093C58.3885 4.37906 59.2598 2.71561 60.6064 1.44822C62.1115 0.0224103 63.8541 -0.690496 65.9928 -0.136013C66.9434 0.101622 67.8939 0.101622 68.7653 0.339258C71.9337 0.972952 74.1517 2.87404 74.9438 6.04251C75.8151 9.21098 74.6269 11.7458 72.2506 13.8053C70.4287 15.3895 68.2108 16.0232 65.7552 16.0232Z" fill="black"/>
<path d="M12.8418 62.6787C12.7626 67.9859 7.77224 71.3921 2.94032 69.3325C-3.71348 66.5601 -4.34718 59.3518 -1.41634 54.7576C-0.70343 53.6486 0.326324 52.9357 1.59371 52.5396C2.70268 52.2228 3.89086 52.1436 4.68298 52.8565C5.95037 54.0447 7.5346 54.4407 8.88121 55.312C11.3368 56.8963 12.8418 59.6687 12.8418 62.6787Z" fill="black"/>
<path d="M23.9314 144.267C18.149 144.267 13.8715 139.673 14.1884 134.366C14.426 130.643 16.8024 128.821 20.4461 129.692C21.0006 129.851 21.5551 129.772 22.1096 129.851C23.1393 129.93 24.2483 129.93 25.2781 130.089C28.9218 130.722 31.5358 133.653 31.5358 137.138C31.5358 140.386 28.9218 143.396 25.4365 144.188C24.882 144.188 24.2483 144.188 23.9314 144.267Z" fill="black"/>
<path d="M9.43569 98.4831C9.43569 101.335 8.56436 103.711 6.66328 105.612C4.04929 108.226 0.247117 108.464 -2.60451 106.087C-6.16904 103.236 -6.96116 97.2949 -4.26796 93.7304C-2.28766 91.1164 0.563965 90.6411 3.57402 91.2748C6.66328 91.9085 8.48515 93.968 9.19806 97.0573C9.35648 97.6118 9.43569 98.1662 9.43569 98.4831Z" fill="black"/>
<path d="M93.717 156.466C93.717 152.347 96.8063 149.337 101.163 149.337C106.233 149.337 109.876 152.664 109.876 157.337C109.876 161.456 106.312 164.783 101.955 164.862C97.2816 164.862 93.717 161.219 93.717 156.466Z" fill="black"/>
<path d="M59.9728 163.437C54.9824 163.437 50.1505 158.605 50.2297 153.614C50.2297 150.129 52.9229 148.228 56.2498 149.258C57.0419 149.495 57.9925 149.495 58.8638 149.495C62.5076 149.337 65.2008 151 66.3889 154.09C68.2108 158.763 65.0423 163.516 59.9728 163.437Z" fill="black"/>
<path d="M154.631 141.258C154.631 144.743 151.7 147.832 148.056 148.228C144.888 148.545 141.561 146.644 140.373 143.713C139.581 141.812 139.66 139.99 140.848 138.327C140.927 138.168 141.086 138.01 141.165 137.851C143.858 134.128 147.898 133.416 151.779 135.95C153.601 137.218 154.631 139.119 154.631 141.258Z" fill="black"/>
<path d="M92.9248 10.399C92.9248 8.73556 93.3209 7.38896 94.1922 6.12157C95.7764 3.74522 98.3112 3.11152 100.846 4.45812C101.876 5.01261 102.826 5.56709 103.777 6.28C105.836 7.94345 106.708 10.0822 106.074 12.6962C105.44 15.3894 103.618 17.0528 100.846 17.6073C98.232 18.0826 96.0933 17.132 94.509 15.0725C93.4001 13.6467 92.9248 12.0625 92.9248 10.399Z" fill="black"/>
<path d="M170.632 99.5912C174.83 99.512 178.078 102.997 177.999 106.72C177.919 108.938 177.127 110.76 175.464 112.265C171.979 115.434 166.671 113.77 165.642 109.176C165.404 108.146 165.325 106.958 165.642 106.007C166.117 104.423 166.909 102.839 167.701 101.334C168.493 100.066 169.84 99.5912 170.632 99.5912Z" fill="black"/>
<path d="M109.797 62.6794C109.797 62.4417 109.718 62.1249 109.718 61.808C109.56 59.194 110.985 57.4514 113.441 56.8969C116.847 56.184 120.649 58.4811 121.362 61.7288C122.154 65.1349 119.936 68.4618 116.451 69.3331C112.886 70.2045 109.005 67.5113 109.639 63.4715C109.718 63.2338 109.718 62.9962 109.797 62.6794Z" fill="black"/>
<path d="M46.3484 48.6587C46.4276 46.2031 47.0613 44.302 48.6455 42.8762C51.3387 40.4206 55.0617 41.292 56.2499 44.2228C56.5667 44.9357 56.9628 45.5694 57.3588 46.2031C58.4678 48.3418 58.547 50.4805 57.1212 52.4608C55.7746 54.3619 53.8735 55.2332 51.4972 54.8372C48.9624 54.4411 47.4574 52.8569 46.6652 50.5597C46.5068 49.7676 46.4276 49.0547 46.3484 48.6587Z" fill="black"/>
<path d="M76.6864 118.444C78.8251 119.395 81.5976 120.029 83.1026 122.643C84.2908 124.781 83.8155 127.395 81.9936 129.296C80.0925 131.197 77.3201 131.673 75.023 130.564C71.6961 128.9 70.2703 124.306 72.0921 121.058C72.9635 119.395 74.4685 118.444 76.6864 118.444Z" fill="black"/>
<path d="M111.065 125.098C107.659 125.098 104.886 122.246 105.045 118.84C105.124 117.493 105.52 116.067 106.154 114.879C107.104 112.978 108.926 112.265 110.906 112.661C112.253 112.899 113.599 113.453 114.708 114.246C117.085 115.83 117.956 118.444 117.164 120.82C116.372 123.355 113.758 125.098 111.065 125.098Z" fill="black"/>
<path d="M32.3279 73.2145C32.3279 71.4718 32.8032 69.9668 34.0705 68.7786C36.0508 66.9567 38.9025 67.1151 40.5659 69.1746C41.1204 69.8875 41.6749 70.5212 42.3086 71.1549C43.2591 72.1055 43.972 73.2144 44.2889 74.561C45.081 78.284 41.9917 81.4525 38.2688 80.7396C35.0211 80.1851 32.4071 76.8582 32.3279 73.2145Z" fill="black"/>
<path d="M132.372 32.7375C130.075 32.7375 128.095 31.3117 127.54 29.0145C127.303 27.9848 126.907 27.0343 126.194 26.1629C124.53 24.1826 125.164 21.4102 127.461 20.222C127.936 19.9844 128.491 19.7468 129.045 19.6675C132.768 19.1923 137.204 22.5984 137.6 26.3213C137.996 29.7275 135.541 32.7375 132.372 32.7375Z" fill="black"/>
<path d="M79.3798 39.9445C79.3798 41.8456 79.0629 43.2714 78.1124 44.618C76.1321 47.4697 72.2507 47.7073 69.9535 45.0141C68.0525 42.8754 67.894 39.8653 69.3991 37.489C69.7159 36.9345 70.0328 36.38 70.2704 35.8255C71.5378 32.657 75.1023 31.9441 77.3995 34.4789C78.9837 36.1424 79.3798 38.1227 79.3798 39.9445Z" fill="black"/>
<path d="M156.849 49.2916C156.849 52.3016 154.631 54.678 151.7 54.9156C148.532 55.1532 145.759 52.8561 145.442 49.6084C145.284 48.4202 145.363 47.2321 145.442 46.0439C145.68 43.9844 147.343 42.5586 149.482 42.4001C153.047 42.0833 156.928 45.727 156.849 49.2916Z" fill="black"/>
<path d="M173.642 72.5805C173.642 75.5906 171.266 78.2838 168.176 78.6006C165.325 78.9175 162.552 77.0164 161.998 74.1648C161.602 72.2637 162.077 70.3626 162.869 68.6992C163.186 67.9863 164.057 67.3526 164.77 66.9565C168.493 65.1346 173.642 68.3823 173.642 72.5805Z" fill="black"/>
<path d="M136.729 92.5414C136.729 95.1554 135.066 97.3733 132.531 97.9278C130.155 98.4823 127.778 97.2149 126.669 94.8385C126.352 94.2048 125.956 93.4919 125.481 92.9374C123.818 90.6403 124.61 87.6302 127.224 86.4421C131.343 84.6202 136.729 88.1055 136.729 92.5414Z" fill="black"/>
<path d="M98.4697 45.7277C98.4697 45.9653 98.4697 46.2821 98.3905 46.6782C97.9944 49.3714 96.0934 51.2725 93.6378 51.2725C91.2614 51.2725 89.2811 49.5298 88.8059 46.9951C88.5682 45.5692 88.2514 44.1434 88.0138 42.7176C87.6969 41.0542 88.093 39.5491 89.5188 38.5194C91.0238 37.4104 92.608 37.4896 94.1923 38.361C96.331 39.4699 98.4697 43.0345 98.4697 45.7277Z" fill="black"/>
<path d="M55.6163 107.434C55.4579 109.493 54.4281 111.236 52.2894 112.186C50.1507 113.137 48.0912 112.82 46.2693 111.236C44.1306 109.414 43.4177 106.008 44.6058 103.394C45.794 100.78 48.7248 99.75 51.3388 101.097C54.032 102.443 55.6163 104.74 55.6163 107.434Z" fill="black"/>
<path d="M74.1517 73.9269C74.0725 75.115 74.0725 75.9072 73.9933 76.6201C73.6764 78.5212 72.5675 79.7886 70.6664 80.343C68.8445 80.8183 67.2603 80.2638 66.0721 78.9172C63.8542 76.5409 64.0918 72.4218 66.3097 70.2039C67.8148 68.7781 69.9535 68.382 71.7754 69.2534C73.518 70.0455 74.3101 71.7089 74.2309 73.7685C74.1517 74.0061 74.1517 74.1645 74.1517 73.9269Z" fill="black"/>
<path d="M94.1132 102.84C94.1132 104.899 92.6082 106.642 90.4695 107.117C88.41 107.592 86.5881 107.038 85.0831 105.454C83.6573 103.869 83.182 102.047 83.7365 99.9879C84.2118 98.2453 85.3999 97.1363 87.1426 96.7403C88.806 96.3442 90.2319 96.8987 91.42 98.1661C91.8953 98.7206 92.4498 99.275 92.9251 99.8295C93.7964 100.701 94.1924 101.651 94.1132 102.84Z" fill="black"/>
<path d="M73.9143 94.6013C73.8351 97.1361 73.0429 98.6411 71.3003 99.5124C69.5576 100.384 67.815 100.146 66.3099 98.9579C64.0128 97.2153 63.4583 93.6507 64.9633 91.1952C66.7852 88.2643 70.7458 88.2643 72.4885 91.2744C73.2014 92.3833 73.5974 93.8092 73.9143 94.6013Z" fill="black"/>
<path d="M102.668 79.7093C102.668 82.0857 101.321 84.066 99.2619 84.6205C97.2024 85.1749 94.9845 84.2244 93.8755 82.1649C93.1626 80.8975 92.8458 79.4717 93.1626 77.9667C93.5587 76.0656 94.6676 74.7982 96.5687 74.3229C98.3906 73.8476 99.8956 74.4813 101.163 75.8279C102.193 76.8577 102.589 78.2835 102.668 79.7093Z" fill="black"/>
<path d="M90.39 70.4422C87.776 70.4422 85.3997 67.9866 85.3997 65.2934C85.3997 62.917 87.2215 61.0952 89.5979 61.1744C92.6872 61.1744 95.0635 63.2339 95.0635 65.7687C95.0635 68.2242 92.9248 70.4422 90.39 70.4422Z" fill="black"/>
<path d="M128.895 380.15C117.146 383.723 106.305 382.785 95.8091 378.346C90.1119 375.828 84.5122 372.796 79.0569 369.845C70.7455 365.395 62.6759 360.511 55.09 354.76C47.3916 349.042 41.1576 342.057 36.388 333.807C34.5312 330.687 32.755 327.422 31.2357 324.207C27.2855 315.845 25.955 306.863 25.6689 297.707C25.396 289.883 25.8302 281.981 26.0393 274.143C26.2838 264.714 26.5284 255.286 25.5522 245.839C24.9702 239.926 21.9431 235.679 16.921 232.97C12.589 230.552 8.28887 228.246 3.76373 226.003C-2.71923 222.857 -9.78512 221.943 -16.9485 221.543C-24.3687 221.094 -31.3203 219.296 -37.1247 214.256C-42.4639 209.571 -43.5597 203.561 -42.9998 196.96C-42.9325 195.482 -42.7845 193.86 -42.4284 192.544C-41.6842 190.023 -40.8594 187.359 -39.714 184.968C-38.4073 182.288 -35.8665 180.96 -32.8306 180.95C-28.5738 180.959 -25.5131 184.467 -26.4052 188.61C-26.7463 190.408 -27.5693 192.221 -28.3117 193.89C-30.2483 198.207 -29.9293 199.332 -25.5149 200.755C-16.4292 203.649 -7.50474 206.832 2.24452 207.351C10.9174 207.931 19.3618 210.278 27.6767 213.026C31.0316 214.141 33.5653 216.219 35.6639 218.906C39.9738 224.248 42.4667 230.469 43.9788 237.09C46.8606 249.401 47.4771 261.867 48.238 274.414C48.7359 282.174 49.2337 289.933 50.2941 297.533C51.7354 307.335 56.9231 315.345 64.5241 321.577C73.6966 329.066 84.3202 333.955 96.1229 335.715C106.272 337.214 116.452 338.825 126.584 340.694C129.892 341.214 133.135 342.362 136.265 343.541C143.391 346.383 147.363 351.821 147.347 359.483C147.395 367.37 144.153 373.515 136.853 376.921C134.088 378.313 131.082 379.287 128.895 380.15ZM40.9159 311.617C40.6909 311.681 40.5784 311.713 40.3853 311.889C41.0399 313.77 41.5015 315.827 42.3812 317.644C43.9323 320.972 45.6766 324.124 47.421 327.276C51.294 334.079 56.5509 339.76 62.854 344.416C74.0163 352.92 86.3877 359.259 98.9523 365.421C108.291 370.067 117.928 370.617 127.735 366.622C129.246 365.95 130.934 365.472 132.269 364.607C135.631 362.317 135.304 357.305 131.677 355.659C129.463 354.707 127.167 353.899 124.743 353.492C115.156 351.834 105.651 350.031 95.9351 348.774C82.5421 346.979 70.5215 341.878 59.5825 334.161C52.0116 328.892 46.2596 321.893 42.0038 313.74C41.8124 313.065 41.3642 312.341 40.9159 311.617Z" fill="black"/>
<path d="M78.063 222.69C78.9338 228.763 79.9791 235.882 81.1369 242.968C82.6757 252.256 82.3992 261.572 82.6366 270.985C82.8253 280.656 83.9459 290.183 86.0303 299.681C86.7151 302.526 87.6249 305.306 88.8403 307.879C89.72 309.696 91.1623 311.354 92.7338 312.61C96.0533 315.315 99.9051 316.898 103.95 318.303C112.666 321.181 121.302 324.203 129.938 327.225C132.779 328.242 135.539 329.405 138.058 331C145.839 335.723 151.094 342.256 151.926 351.622C153.009 363.592 144.744 375.172 133.124 378.344C125.329 380.432 117.523 380.336 109.898 377.878C100.009 374.725 90.331 371.027 81.2019 365.835C76.116 362.901 71.4163 359.614 67.1516 355.718C66.3021 354.865 65.34 354.044 64.4098 353.335C56.5502 347.905 51.04 340.473 46.0772 332.399C38.8732 320.706 36.1527 308.106 37.4019 294.504C37.8794 288.899 38.8069 283.166 39.6539 277.578C40.81 270.079 41.8536 262.611 41.2752 254.996C40.9182 249.02 39.6293 243.186 37.1833 237.559C33.522 229.359 27.575 223.387 19.5355 219.467C16.7113 218.08 13.694 216.869 10.7404 215.883C-2.50282 211.615 -15.8772 208.599 -29.9806 208.586C-30.575 208.633 -31.0888 208.535 -31.6833 208.582C-40.8567 209.238 -46.4422 199.395 -44.6917 191.849C-43.3628 186.246 -40.9912 181.32 -37.7045 176.62C-33.7897 171.134 -28.5452 167.338 -22.0516 165.376C-19.2389 164.579 -16.4262 163.782 -13.6622 163.241C-3.13686 161.352 7.43185 161.759 17.7383 164.672C21.832 165.821 25.8451 167.115 29.7776 168.552C50.4508 176.306 64.7491 190.728 73.4936 210.858C74.9961 214.443 76.2735 218.092 78.063 222.69Z" fill="#EA552B"/>
<mask id="mask0_324_208" style="mask-type:alpha" maskUnits="userSpaceOnUse" x="-46" y="162" width="199" height="218">
<path d="M78.063 222.69C78.9338 228.763 79.9791 235.882 81.1369 242.968C82.6757 252.256 82.3992 261.572 82.6366 270.985C82.8253 280.656 83.9459 290.183 86.0303 299.681C86.7151 302.526 87.6249 305.306 88.8403 307.879C89.72 309.696 91.1623 311.354 92.7338 312.61C96.0533 315.315 99.9051 316.898 103.95 318.303C112.666 321.181 121.302 324.203 129.938 327.225C132.779 328.242 135.539 329.405 138.058 331C145.839 335.723 151.094 342.256 151.926 351.622C153.009 363.592 144.744 375.172 133.124 378.344C125.329 380.432 117.523 380.336 109.898 377.878C100.009 374.725 90.331 371.027 81.2019 365.835C76.116 362.901 71.4163 359.614 67.1516 355.718C66.3021 354.865 65.34 354.044 64.4098 353.335C56.5502 347.905 51.04 340.473 46.0772 332.399C38.8732 320.706 36.1527 308.106 37.4019 294.504C37.8794 288.899 38.8069 283.166 39.6539 277.578C40.81 270.079 41.8536 262.611 41.2752 254.996C40.9182 249.02 39.6293 243.186 37.1833 237.559C33.522 229.359 27.575 223.387 19.5355 219.467C16.7113 218.08 13.694 216.869 10.7404 215.883C-2.50282 211.615 -15.8772 208.599 -29.9806 208.586C-30.575 208.633 -31.0888 208.535 -31.6833 208.582C-40.8567 209.238 -46.4422 199.395 -44.6917 191.849C-43.3628 186.246 -40.9912 181.32 -37.7045 176.62C-33.7897 171.134 -28.5452 167.338 -22.0516 165.376C-19.2389 164.579 -16.4262 163.782 -13.6622 163.241C-3.13686 161.352 7.43185 161.759 17.7383 164.672C21.832 165.821 25.8451 167.115 29.7776 168.552C50.4508 176.306 64.7491 190.728 73.4936 210.858C74.9961 214.443 76.2735 218.092 78.063 222.69Z" fill="#EA552B"/>
</mask>
<g mask="url(#mask0_324_208)">
<path fill-rule="evenodd" clip-rule="evenodd" d="M16.0747 176.812C15.2774 174 12.9032 172.485 10.3155 173.218C8.06536 173.856 6.66298 176.199 7.25208 178.706C8.00065 181.775 10.4386 183.515 12.9138 182.814C15.4209 182.224 16.8401 179.513 16.0747 176.812ZM66.162 214.151C66.9273 216.851 65.2831 219.626 62.4704 220.424C59.7383 221.077 57.1391 219.626 56.4862 216.893C55.8652 214.274 57.4288 211.643 60.129 210.877C62.6848 210.031 65.3966 211.451 66.162 214.151ZM57.6946 253.746C60.6198 252.917 61.8309 249.9 60.8422 246.412C59.9962 243.856 57.7983 242.534 55.4994 243.429C52.7992 244.194 51.0894 247.596 51.8867 250.409C52.6521 253.109 55.1069 254.48 57.6946 253.746ZM73.5021 268.348C74.427 271.611 72.9271 274.467 70.1631 275.007C67.5435 275.628 64.768 273.984 64.3402 271.188C64.1019 269.919 64.2817 268.409 64.6379 267.093C65.1721 265.118 66.5558 263.997 68.6767 263.76C70.685 263.556 71.7746 264.827 72.5905 266.419L72.5907 266.419C72.9264 267.175 73.2621 267.93 73.5021 268.348ZM66.977 294.887C66.9623 294.483 66.9476 294.075 66.9435 293.664C66.1612 291.334 64.9272 289.982 63.1288 289.641C61.1054 289.363 58.9828 290.451 57.9348 292.328C56.8868 294.206 56.5776 296.116 57.2961 298.222C58.0783 300.553 60.1637 301.907 62.4289 301.751C64.6941 301.595 66.6573 299.944 66.9514 297.552C67.0421 296.685 67.0099 295.795 66.977 294.887ZM103.446 341.892C103.468 342.081 103.491 342.281 103.514 342.494C103.746 342.815 103.994 343.193 104.262 343.602C104.922 344.608 105.706 345.804 106.686 346.822C108.466 348.384 111.1 348.245 112.87 346.77C114.528 345.328 115.047 342.872 113.879 340.893C112.95 339.333 111.684 337.869 110.45 336.517C109.248 335.278 107.707 334.985 106.051 335.576C104.283 336.199 103.332 337.562 103.248 339.409C103.246 340.132 103.326 340.832 103.446 341.892ZM81.3066 331.043C82.1996 334.194 80.7317 337.162 77.9508 338.072C75.1381 338.869 72.3626 337.225 71.6141 334.155C70.8017 330.861 72.2865 327.523 75.0186 326.87C77.7507 326.217 80.4456 328.006 81.3066 331.043ZM129.782 363.124C132.37 362.391 133.902 359.647 133.136 356.947C131.842 353.667 129.775 351.093 126.77 352.066C123.957 352.864 122.328 356.121 123.221 359.271C124.162 362.165 127.082 363.89 129.782 363.124ZM29.6889 195.682C32.1154 195.237 34.634 196.833 35.1106 199.372C35.619 202.023 33.9429 204.686 31.1789 205.227C28.7525 205.671 26.5227 204.237 25.9336 201.73C25.3932 198.966 27.0693 196.303 29.6889 195.682ZM-21.6153 194.789C-19.9277 194.31 -19.1046 192.497 -19.583 190.809C-20.2058 189.041 -22.0511 188.105 -23.5943 188.664C-25.1376 189.223 -26.0093 191.294 -25.4503 192.837C-24.8913 194.38 -23.1904 195.235 -21.6153 194.789Z" fill="#FBE8DE"/>
</g>
</g>
<defs>
<clipPath id="clip0_324_208">
<rect width="178" height="383" fill="white"/>
</clipPath>
</defs>
</svg>
