<svg width="238" height="325" viewBox="0 0 238 325" fill="none" xmlns="http://www.w3.org/2000/svg">
<g clip-path="url(#clip0_327_211)">
<path d="M237.915 185.251C238.015 205.151 236.215 220.151 231.615 234.651C224.715 256.551 212.115 274.651 194.615 289.251C174.015 306.451 150.515 317.751 124.115 322.751C111.715 325.051 99.2154 325.451 86.6154 324.151C69.4154 322.451 52.4154 319.251 35.9154 313.851C28.5154 311.351 21.1154 308.651 13.9154 305.651C4.41543 301.851 -4.18458 296.551 -12.2846 290.351C-19.2846 284.951 -26.0846 279.451 -32.2846 273.151C-40.1846 265.151 -46.7846 256.251 -51.6846 246.251C-58.6846 232.051 -64.4846 217.451 -68.2846 202.051C-69.8846 195.551 -70.7846 188.851 -71.1846 182.151C-71.6846 174.451 -72.0846 166.651 -71.9846 158.951C-71.7846 141.251 -66.4846 124.851 -57.9846 109.351C-47.8846 90.8512 -33.4846 76.2512 -15.9846 64.7512C-11.5846 61.8512 -7.38457 58.7512 -3.28457 55.3512C8.91543 45.0512 21.7154 35.6512 35.3154 27.2512C55.8154 14.7512 77.8154 6.25116 101.515 2.05116C113.215 0.0511563 125.015 -0.748844 136.815 0.851156C156.115 3.55116 171.315 12.7512 181.915 29.3512C186.315 36.3512 189.615 43.8512 192.515 51.6512C194.015 55.7512 195.415 59.7512 196.815 63.8512C200.915 75.6512 205.715 87.1512 211.415 98.2512C215.215 105.651 218.815 113.151 222.515 120.551C233.215 142.451 238.315 165.651 237.915 185.251Z" fill="#4CA96D"/>
<mask id="mask0_327_211" style="mask-type:alpha" maskUnits="userSpaceOnUse" x="-72" y="0" width="310" height="325">
<path d="M237.915 185.251C238.015 205.151 236.215 220.151 231.615 234.651C224.715 256.551 212.115 274.651 194.615 289.251C174.015 306.451 150.515 317.751 124.115 322.751C111.715 325.051 99.2154 325.451 86.6154 324.151C69.4154 322.451 52.4154 319.251 35.9154 313.851C28.5154 311.351 21.1154 308.651 13.9154 305.651C4.41543 301.851 -4.18458 296.551 -12.2846 290.351C-19.2846 284.951 -26.0846 279.451 -32.2846 273.151C-40.1846 265.151 -46.7846 256.251 -51.6846 246.251C-58.6846 232.051 -64.4846 217.451 -68.2846 202.051C-69.8846 195.551 -70.7846 188.851 -71.1846 182.151C-71.6846 174.451 -72.0846 166.651 -71.9846 158.951C-71.7846 141.251 -66.4846 124.851 -57.9846 109.351C-47.8846 90.8512 -33.4846 76.2512 -15.9846 64.7512C-11.5846 61.8512 -7.38457 58.7512 -3.28457 55.3512C8.91543 45.0512 21.7154 35.6512 35.3154 27.2512C55.8154 14.7512 77.8154 6.25116 101.515 2.05116C113.215 0.0511563 125.015 -0.748844 136.815 0.851156C156.115 3.55116 171.315 12.7512 181.915 29.3512C186.315 36.3512 189.615 43.8512 192.515 51.6512C194.015 55.7512 195.415 59.7512 196.815 63.8512C200.915 75.6512 205.715 87.1512 211.415 98.2512C215.215 105.651 218.815 113.151 222.515 120.551C233.215 142.451 238.315 165.651 237.915 185.251Z" fill="black"/>
</mask>
<g mask="url(#mask0_327_211)">
<path d="M73.7546 -149.949C72.3546 -149.549 70.8546 -149.149 69.4546 -148.749C60.7546 -146.649 53.3546 -142.249 46.6546 -136.549C37.4546 -128.649 29.5546 -119.549 22.0546 -110.049C8.4546 -92.5492 -3.54541 -73.8492 -14.7454 -54.7492C-38.4454 -14.1492 -59.2454 27.8508 -76.6454 71.5508C-84.6454 91.5508 -90.5454 112.251 -94.1454 133.551C-97.2454 151.851 -98.5454 170.251 -97.5454 188.751C-96.4454 211.051 -92.3454 232.751 -83.6454 253.351C-77.5454 267.951 -69.4454 281.251 -58.5454 292.851C-57.5454 293.851 -56.5454 294.851 -55.4454 295.851C-55.3454 295.951 -55.1454 295.951 -54.7454 295.951C-55.0454 293.651 -55.2454 291.551 -55.5454 289.351C-56.6454 279.851 -56.5454 270.351 -55.6454 260.851C-54.5454 249.051 -52.0454 237.451 -48.5454 226.151C-48.2454 225.151 -48.2454 223.951 -48.5454 222.851C-52.1454 206.551 -53.4454 190.151 -52.6454 173.551C-51.0454 139.451 -41.7454 107.351 -26.1454 77.2508C-3.4454 33.5508 28.1546 -2.34921 69.1546 -29.8492C84.2546 -39.9492 100.255 -48.5492 117.555 -54.4492C122.855 -56.2492 128.355 -57.4492 133.755 -58.7492C135.455 -59.1492 137.255 -59.1492 138.955 -59.1492C139.655 -59.1492 140.455 -58.8492 141.155 -58.6492C141.155 -58.4492 141.155 -58.3492 141.155 -58.1492C140.755 -57.9492 140.255 -57.5492 139.855 -57.5492C124.155 -55.9492 109.855 -50.0492 95.9546 -42.9492C72.0546 -30.8492 50.9546 -14.8492 31.9546 3.95078C5.05459 30.5508 -16.3454 61.0508 -31.2454 95.8508C-39.8454 115.851 -45.4454 136.551 -48.1454 158.151C-50.4454 177.251 -50.2454 196.251 -46.8454 215.251C-46.6454 216.151 -46.4454 216.951 -46.2454 218.351C-45.8454 217.451 -45.5454 216.951 -45.3454 216.451C-37.8454 196.751 -27.5454 178.751 -14.4454 162.251C-13.5454 161.051 -13.3454 159.951 -13.3454 158.551C-13.5454 151.651 -14.1454 144.751 -13.6454 137.951C-11.2454 102.351 1.65459 71.3508 27.7546 46.4508C40.8546 34.0508 56.1546 25.4508 73.7546 21.4508C92.8546 17.1508 111.255 18.8508 128.655 28.3508C131.255 29.7508 133.755 31.4508 136.355 33.0508C139.255 31.6508 142.255 30.2508 145.355 28.8508C146.355 28.4508 146.255 27.5508 146.255 26.8508C146.355 23.4508 146.455 19.9508 146.455 16.5508C146.255 2.75078 146.355 -11.1492 145.755 -24.9492C145.155 -41.8492 143.655 -58.7492 140.255 -75.4492C138.255 -85.4492 135.155 -95.0492 130.755 -104.349C130.355 -105.149 130.055 -105.949 130.055 -106.849C130.355 -106.349 130.755 -105.849 130.955 -105.349C136.555 -94.4492 140.255 -82.9492 142.555 -70.9492C145.155 -57.5492 146.555 -44.0492 147.455 -30.5492C148.755 -12.3492 148.855 5.85078 148.655 24.1508C148.655 24.9508 148.655 25.7508 148.655 26.5508C148.655 26.6508 148.755 26.8508 148.955 27.1508C149.855 26.8508 150.855 26.5508 151.855 26.1508C162.855 22.1508 174.155 19.8508 185.955 20.2508C214.555 21.0508 236.555 33.8508 252.055 57.8508C260.055 70.3508 264.355 84.1508 265.855 98.8508C268.355 122.751 263.355 145.351 253.155 166.851C250.155 173.151 246.455 179.151 242.855 185.251C242.055 186.751 241.855 187.851 242.355 189.451C246.755 202.851 247.855 216.651 246.355 230.651C243.155 261.351 230.555 288.051 211.155 311.751C198.955 326.551 184.655 338.851 167.655 347.851C156.555 353.751 144.755 357.751 132.155 358.951C117.355 360.351 103.155 357.951 89.8546 350.951C88.1546 350.051 86.9546 350.151 85.3546 351.151C72.0546 359.851 57.7546 365.851 42.0546 368.451C21.9546 371.751 2.65459 369.451 -15.1454 358.951C-30.4454 349.951 -40.9454 336.751 -47.9454 320.551C-50.2454 315.151 -52.0454 309.651 -53.3454 303.951C-53.6454 302.751 -53.9454 301.751 -54.9454 300.851C-69.2454 287.851 -79.4454 272.051 -86.8454 254.351C-92.9454 239.651 -96.7454 224.351 -98.9454 208.551C-101.545 190.151 -101.645 171.751 -99.9454 153.251C-97.1454 123.451 -89.5454 94.9508 -78.2454 67.3508C-58.1454 18.2508 -34.4454 -29.0492 -6.14541 -73.9492C4.05459 -90.1492 15.0546 -105.749 27.6546 -120.249C33.1546 -126.549 39.0546 -132.349 45.4546 -137.749C53.8546 -144.249 63.0546 -148.749 73.7546 -149.949ZM240.055 183.051C240.255 183.051 240.555 183.151 240.755 183.151C241.255 182.451 241.755 181.751 242.155 181.051C245.155 175.551 248.355 170.251 251.055 164.551C261.055 143.051 265.855 120.551 262.855 96.7508C260.855 81.1508 255.655 66.7508 246.155 54.1508C231.555 34.7508 212.155 24.3508 187.855 23.2508C174.955 22.6508 162.555 25.2508 150.555 29.8508C149.255 30.3508 148.855 31.0508 148.855 32.3508C148.855 35.7508 148.755 39.0508 148.555 42.4508C148.455 43.7508 148.955 44.7508 149.755 45.6508C155.355 52.1508 159.655 59.3508 163.055 67.2508C166.455 75.0508 168.755 83.1508 170.155 91.5508C170.355 92.8508 170.855 93.6508 172.255 94.0508C173.855 94.4508 175.455 95.1508 176.955 95.7508C192.455 101.751 206.155 110.551 217.155 123.151C231.055 139.051 237.855 157.851 239.155 178.751C239.355 180.151 239.855 181.651 240.055 183.051ZM133.255 35.0508C133.055 34.7508 132.955 34.6508 132.855 34.5508C132.655 34.3508 132.355 34.1508 132.055 33.9508C121.455 26.9508 109.855 23.1508 97.1546 22.3508C80.8546 21.4508 65.5546 25.3508 51.2546 33.0508C32.9546 42.9508 18.9546 57.2508 8.45459 75.0508C-6.04541 99.5508 -12.1454 126.151 -10.6454 154.551C-10.6454 155.351 -10.4454 156.051 -10.3454 156.851C-10.0454 156.751 -9.84541 156.751 -9.74541 156.651C-9.24541 156.151 -8.74541 155.551 -8.34541 155.051C12.9546 130.651 38.2546 111.651 68.4546 99.5508C69.6546 99.0508 70.3546 98.2508 71.0546 97.2508C74.9546 91.5508 78.7546 85.6508 82.9546 80.1508C96.5546 62.2508 112.655 47.0508 132.155 35.7508C132.555 35.4508 132.855 35.2508 133.255 35.0508ZM239.755 191.351C239.555 191.351 239.455 191.451 239.255 191.451C239.155 192.151 238.955 192.851 238.955 193.551C238.555 199.251 237.655 204.851 236.155 210.351C227.055 244.951 206.955 271.451 176.755 290.351C162.755 299.051 147.455 304.251 130.755 304.151C129.455 304.151 128.955 304.851 128.455 305.851C119.555 322.051 107.455 335.551 92.6546 346.651C92.0546 347.051 91.5546 347.551 90.8546 348.151C91.7546 348.651 92.4546 349.051 93.1546 349.351C107.555 356.451 122.755 358.151 138.455 355.251C152.155 352.751 164.655 347.151 176.255 339.451C196.155 326.251 211.855 309.051 223.955 288.651C236.055 268.151 243.355 246.051 244.055 222.151C244.355 212.451 243.155 202.851 240.455 193.451C240.255 192.651 240.055 191.951 239.755 191.351ZM169.655 142.851C169.455 143.651 169.355 144.051 169.255 144.451C167.355 154.651 164.655 164.751 161.255 174.551C155.455 191.651 147.855 207.951 138.855 223.551C138.155 224.751 137.755 225.751 138.155 227.151C140.755 235.851 142.055 244.751 141.955 253.851C141.955 254.451 142.055 255.051 142.155 255.651C142.455 255.651 142.655 255.751 142.755 255.751C143.455 255.551 144.155 255.451 144.855 255.151C180.655 244.451 209.655 223.951 232.655 194.651C236.155 190.151 236.055 190.151 236.155 184.451C236.155 182.851 236.055 181.351 235.255 179.851C223.255 156.751 204.255 144.351 178.255 142.851C175.555 142.651 172.655 142.851 169.655 142.851ZM97.3546 178.551C98.0546 177.751 98.6546 177.051 99.3546 176.351C108.755 165.951 119.555 157.451 131.955 150.951C133.555 150.151 135.655 149.551 136.555 148.151C137.455 146.751 137.355 144.651 137.555 142.851C139.355 127.151 141.055 111.351 142.755 95.6508C142.955 94.0508 142.955 92.3508 143.055 90.5508C142.455 90.4508 142.055 90.3508 141.755 90.2508C138.355 90.0508 134.855 89.7508 131.455 89.7508C111.855 89.5508 93.0546 93.1508 74.6546 99.7508C73.0546 100.351 71.9546 101.251 71.1546 102.751C57.0546 126.851 47.2546 152.551 41.4546 179.851C41.3546 180.351 41.3546 180.951 41.2546 181.751C59.6546 172.851 78.1546 170.751 97.3546 178.551ZM67.4546 103.251C67.3546 103.151 67.2546 103.051 67.1546 102.951C66.2546 103.351 65.3546 103.651 64.5546 104.051C50.1546 110.351 36.6546 118.351 24.2546 127.951C12.2546 137.151 1.45459 147.551 -8.24541 159.051C-9.4454 160.451 -9.84541 161.851 -9.54541 163.651C-9.24541 165.351 -8.94541 167.151 -8.64541 168.851C-6.14541 182.851 -1.4454 196.051 5.75459 208.251C6.15459 208.951 6.65459 209.651 7.15459 210.551C7.65459 209.951 8.0546 209.651 8.25459 209.251C16.1546 199.451 25.3546 191.151 36.2546 184.651C37.3546 184.051 37.7546 183.151 37.9546 182.051C43.5546 154.751 52.9546 128.851 66.7546 104.651C67.0546 104.151 67.2546 103.651 67.4546 103.251ZM130.855 301.251C131.955 301.251 132.555 301.251 133.155 301.251C143.555 300.951 153.355 298.351 162.855 294.251C177.955 287.651 190.855 277.951 202.055 265.951C218.455 248.351 229.655 228.051 234.355 204.351C234.855 202.051 235.155 199.751 235.455 197.551C210.655 228.051 179.755 249.051 142.055 259.551C141.055 274.051 137.355 287.751 130.855 301.251ZM-49.4454 305.451C-49.3454 306.251 -49.2454 306.651 -49.1454 307.051C-47.8454 310.951 -46.6454 314.851 -45.1454 318.551C-38.4454 334.551 -28.0454 347.551 -12.9454 356.351C3.65459 366.051 21.5546 368.451 40.3546 365.551C55.8546 363.251 70.0546 357.351 83.1546 349.051C83.6546 348.751 84.0546 348.351 84.6546 347.851C82.1546 346.051 79.7546 344.451 77.3546 342.751C73.7546 345.051 69.8546 345.651 65.8546 345.551C63.3546 345.451 60.8546 345.351 58.4546 344.951C42.1546 342.251 27.3546 335.951 14.6546 325.251C13.6546 324.451 12.7546 324.051 11.4546 324.251C4.45459 324.951 -2.64541 324.451 -9.54541 323.351C-23.5454 320.951 -36.0454 315.251 -47.4454 306.851C-47.9454 306.451 -48.5454 306.051 -49.4454 305.451ZM73.2546 257.851C70.5546 243.651 71.8546 230.151 75.9546 216.851C80.0546 203.551 86.8546 191.651 95.4546 180.951C95.2546 180.651 95.1546 180.451 95.0546 180.451C94.7546 180.251 94.4546 180.151 94.1546 180.051C87.9546 177.551 81.4546 176.151 74.7546 175.951C63.1546 175.551 52.2546 178.551 41.9546 183.751C40.7546 184.351 40.1546 185.151 40.0546 186.451C39.1546 193.451 37.8546 200.551 37.1546 207.551C35.9546 218.251 35.5546 228.951 36.1546 239.651C36.2546 241.151 36.7546 241.951 37.9546 242.751C43.4546 246.351 49.1546 249.451 55.2546 252.051C60.9546 254.351 66.7546 256.351 73.2546 257.851ZM-12.4454 279.851C-12.2454 279.751 -12.1454 279.651 -11.9454 279.651C-15.5454 255.151 -8.84541 233.351 5.0546 213.351C-4.34541 198.451 -9.94541 182.251 -12.5454 164.551C-13.3454 165.551 -13.8454 166.051 -14.2454 166.551C-16.5454 169.651 -18.8454 172.751 -20.9454 175.851C-30.6454 190.151 -38.3454 205.451 -44.1454 221.751C-44.6454 223.251 -44.7454 224.651 -44.3454 226.151C-42.5454 232.751 -40.3454 239.351 -37.6454 245.651C-32.9454 256.451 -26.7454 266.351 -18.3454 274.651C-16.3454 276.451 -14.3454 278.051 -12.4454 279.851ZM42.2546 290.351C42.0546 289.551 41.8546 288.951 41.6546 288.351C37.1546 274.251 34.5546 259.851 33.5546 245.051C33.4546 243.551 32.7546 242.751 31.6546 241.951C22.4546 235.051 14.4546 226.851 7.85459 217.451C7.45459 216.851 6.95459 216.351 6.45459 215.751C5.95459 216.451 5.4546 217.051 5.0546 217.651C-0.0454025 225.351 -4.04541 233.651 -6.64541 242.551C-10.3454 255.051 -11.4454 267.651 -9.04541 280.451C-8.74541 282.051 -8.04541 282.951 -6.74541 283.851C3.0546 289.951 13.6546 292.951 25.1546 292.851C30.8546 292.751 36.4546 292.051 42.2546 290.351ZM9.75459 321.251C9.5546 320.851 9.5546 320.751 9.5546 320.651C9.3546 320.451 9.15459 320.151 8.95459 319.951C-0.145409 310.451 -6.74541 299.451 -10.1454 286.651C-10.4454 285.551 -11.0454 284.851 -11.8454 284.251C-19.6454 278.751 -25.9454 271.751 -31.2454 263.851C-37.6454 254.351 -42.1454 244.051 -45.5454 233.151C-45.7454 232.351 -46.0454 231.651 -46.3454 230.851C-47.0454 231.751 -47.2454 232.551 -47.5454 233.351C-50.3454 243.751 -52.2454 254.251 -52.9454 264.951C-53.7454 276.151 -53.2454 287.351 -51.1454 298.351C-50.9454 299.551 -50.4454 300.551 -49.4454 301.351C-32.9454 314.851 -14.1454 322.051 7.35459 321.451C7.95459 321.451 8.75459 321.351 9.75459 321.251ZM98.8546 181.751C98.0546 182.751 97.4546 183.351 96.9546 184.051C92.3546 189.851 88.4546 196.051 85.1546 202.651C77.7546 217.651 73.6546 233.451 75.3546 250.351C75.6546 253.151 76.1546 255.851 76.5546 258.751C80.0546 259.251 83.2546 259.751 86.5546 260.351C87.9546 260.651 88.9546 260.051 89.8546 259.051C104.355 242.851 114.955 224.451 122.755 204.251C123.155 203.151 122.955 202.351 122.255 201.451C117.955 195.951 112.955 191.051 107.255 187.051C104.555 185.251 101.755 183.651 98.8546 181.751ZM125.955 304.051C111.255 302.751 98.7546 297.451 88.4546 287.151C78.0546 296.451 67.0546 304.551 54.7546 311.151C63.0546 325.651 73.4546 337.651 87.5546 346.251C103.555 334.951 116.355 321.251 125.955 304.051ZM75.2546 96.6508C86.3546 93.0508 97.4546 90.3508 108.855 88.7508C120.255 87.1508 131.755 87.0508 143.255 87.8508C143.455 86.0508 143.555 84.5508 143.655 83.0508C144.155 76.1508 144.555 69.3508 145.055 62.4508C145.355 57.5508 145.555 52.5508 145.755 47.5508C145.755 46.7508 145.755 45.8508 145.255 45.3508C142.455 42.1508 139.355 39.3508 135.855 36.7508C110.255 51.2508 90.9546 72.0508 75.2546 96.6508ZM235.355 172.451C233.455 154.251 226.755 138.051 214.555 124.351C202.855 111.051 188.155 102.151 171.055 96.3508C172.955 111.151 172.255 125.451 170.155 139.851C198.055 138.751 219.855 149.151 235.355 172.451ZM136.455 221.251C137.055 220.251 137.455 219.551 137.855 218.851C139.455 215.851 141.155 212.851 142.755 209.751C153.155 189.551 161.155 168.551 165.655 146.151C165.855 145.251 165.855 144.351 166.055 143.351C157.055 144.351 148.755 146.751 140.755 150.051C139.555 150.551 139.355 151.351 139.155 152.451C136.655 169.051 132.755 185.351 127.155 201.251C126.755 202.351 126.855 203.151 127.455 204.151C129.555 207.551 131.555 211.051 133.455 214.551C134.455 216.551 135.355 218.751 136.455 221.251ZM127.555 301.051C133.955 288.351 138.055 274.851 139.055 260.251C138.055 260.451 137.355 260.551 136.755 260.651C128.655 262.451 120.455 263.851 112.155 264.251C110.855 264.351 110.155 264.851 109.355 265.751C103.555 271.951 97.6546 278.051 91.8546 284.151C91.5546 284.451 91.2546 284.851 90.9546 285.151C99.2546 294.651 114.755 301.151 127.555 301.051ZM146.155 90.8508C144.155 109.651 142.255 128.251 140.255 147.051C148.755 143.551 157.555 141.251 166.455 140.151C169.155 128.651 169.755 104.751 167.355 95.1508C160.455 93.1508 153.455 91.6508 146.155 90.8508ZM-6.84541 287.651C-6.84541 288.151 -6.9454 288.451 -6.84541 288.651C-6.4454 289.751 -6.14541 290.951 -5.74541 292.051C-1.84541 302.651 4.25459 311.751 12.2546 319.751C13.2546 320.751 14.2546 321.251 15.6546 320.951C16.1546 320.851 16.6546 320.851 17.0546 320.751C28.2546 319.051 38.9546 315.551 49.0546 310.551C49.5546 310.351 49.9546 309.951 50.3546 309.751C47.9546 304.351 45.5546 299.051 43.2546 293.651C25.7546 298.251 9.0546 296.651 -6.84541 287.651ZM45.1546 289.351C53.9546 287.451 72.7546 276.551 77.2546 270.751C76.1546 267.751 75.0546 264.651 73.9546 261.451C60.8546 258.351 48.4546 253.251 36.5546 245.551C37.6546 260.751 40.3546 275.151 45.1546 289.351ZM76.0546 341.651C66.0546 333.351 58.3546 323.551 52.3546 312.751C46.4546 315.051 40.8546 317.551 35.1546 319.451C29.3546 321.351 23.4546 322.551 17.3546 324.151C18.0546 324.751 18.5546 325.251 19.2546 325.751C29.4546 333.651 40.9546 338.851 53.3546 341.951C58.0546 343.051 62.7546 343.951 67.5546 343.851C70.3546 343.751 73.1546 343.351 76.0546 341.651ZM92.5546 260.751C93.4546 260.851 93.8546 261.051 94.1546 261.051C98.6546 261.151 103.055 261.151 107.555 261.251C108.755 261.251 109.255 260.551 109.855 259.851C118.555 249.251 126.455 237.951 133.555 226.151C134.255 224.951 134.255 224.051 133.855 222.751C131.855 217.451 129.355 212.351 126.355 207.551C126.055 207.151 125.755 206.751 125.255 206.251C117.455 226.351 106.955 244.551 92.5546 260.751ZM136.155 152.551C126.655 155.651 103.955 173.451 100.755 180.051C102.555 181.051 104.355 182.051 106.055 183.251C107.755 184.351 109.355 185.451 110.955 186.651C112.555 187.951 114.155 189.251 115.755 190.651C117.255 191.951 118.655 193.451 120.055 194.851C121.455 196.351 122.755 197.851 124.355 199.551C129.855 184.151 133.555 168.651 136.155 152.551ZM8.45459 212.851C15.1546 223.051 23.1546 231.551 32.7546 238.851C33.0546 229.951 33.0546 221.351 33.6546 212.751C34.2546 204.151 35.5546 195.551 36.6546 186.651C25.4546 193.651 16.2546 202.351 8.45459 212.851ZM86.0546 284.751C83.6546 281.151 81.2546 277.751 78.7546 274.151C69.0546 282.251 58.4546 288.651 46.3546 292.651C48.4546 298.151 50.5546 303.251 53.3546 308.151C61.9546 304.151 79.9546 291.251 86.0546 284.751ZM166.855 91.9508C166.955 81.6508 154.955 53.8508 148.555 49.6508C147.855 62.4508 147.055 75.2508 146.355 87.8508C153.255 89.2508 159.955 90.6508 166.855 91.9508ZM135.655 229.151C128.955 240.151 121.655 250.551 113.555 260.551C118.355 260.851 134.955 258.151 139.055 256.451C139.955 250.351 138.055 234.451 135.655 229.151ZM88.3546 282.551C92.0546 280.051 104.455 266.851 105.255 264.551C103.555 264.551 101.855 264.551 100.155 264.551C98.4546 264.551 96.7546 264.351 95.1546 264.351C93.3546 264.251 91.3546 263.751 89.7546 264.351C88.2546 264.851 87.1546 266.551 85.8546 267.851C84.3546 269.251 82.9546 270.751 81.4546 272.251C83.3546 275.951 85.6546 279.351 88.3546 282.551ZM146.055 41.2508C146.055 37.8508 146.055 34.9508 146.055 31.7508C143.755 32.8508 141.555 33.8508 139.055 35.0508C141.455 37.1508 143.555 39.0508 146.055 41.2508ZM77.3546 262.151C78.2546 264.551 78.9546 266.551 79.8546 268.851C81.7546 266.951 83.7546 265.551 85.1546 263.451C82.5546 263.051 80.2546 262.651 77.3546 262.151Z" fill="black"/>
</g>
</g>
<defs>
<clipPath id="clip0_327_211">
<rect width="238" height="325" fill="white"/>
</clipPath>
</defs>
</svg>
