<svg width="293" height="292" viewBox="0 0 293 292" fill="none" xmlns="http://www.w3.org/2000/svg">
<path fill-rule="evenodd" clip-rule="evenodd" d="M153.774 1.46889C153.826 1.10989 153.877 0.904718 153.928 0.699575L153.928 0.699454C154.903 0.853341 155.364 1.21241 155.262 2.18703C155.211 2.90518 154.954 3.62332 154.698 4.29016C154.508 4.7649 154.259 5.20058 154.012 5.63334C153.859 5.902 153.707 6.16953 153.569 6.44459C152.954 7.5218 152.133 8.44513 150.953 8.95808C149.004 9.83011 147.157 8.85549 146.747 6.80366C146.336 4.85442 146.593 3.05906 148.029 1.57148C149.876 -0.480351 151.722 -0.531647 153.774 1.46889ZM53.5421 6.9575C54.0551 4.18752 52.3623 2.08439 49.3358 2.08439C49.182 2.08439 48.9255 2.08439 48.6177 2.13569C43.129 3.11031 40.7181 7.57305 40 11.9332V12.0358C40 13.113 40.5643 13.626 41.6928 13.7798C41.9492 13.7798 42.257 13.8824 42.4622 14.0363C43.7446 15.1135 45.1809 15.1135 46.6172 14.5493C48.669 13.7798 50.4131 12.4462 51.7467 10.7021C52.5675 9.57359 53.2856 8.34249 53.5421 6.9575ZM107.46 2.46473C107.3 2.47886 107.119 2.49486 106.89 2.49486C105.761 2.39227 104.581 2.75134 103.504 3.57207C101.606 4.90577 100.016 6.59853 98.9389 8.65036C98.6312 9.26591 98.3747 9.93276 98.2721 10.5996C98.0156 12.1385 99.0415 12.9592 100.58 12.5488C100.734 12.5069 100.887 12.4621 101.039 12.4175C102.005 12.1343 102.954 11.8563 104.017 12.3437C104.428 12.4975 104.992 12.395 105.453 12.2411C106.018 12.0359 106.582 11.7794 107.095 11.4203C109.506 9.83017 110.224 7.41926 110.224 4.70058C110.224 3.36689 109.198 2.49486 107.813 2.44357C107.7 2.44357 107.587 2.45356 107.46 2.46473ZM73.7204 14.5588L73.7203 14.5589C73.4599 14.6429 73.1793 14.7335 72.9319 14.8572C72.0086 15.3189 71.2904 14.9598 71.1879 13.9339C71.1366 13.5748 71.1879 13.1644 71.2904 12.8567C71.8547 10.7535 72.6241 8.7017 73.8552 6.90635C74.1117 6.49598 74.4195 6.08561 74.7786 5.77784C75.0863 5.47006 75.4967 5.16229 75.8558 5.0084C76.3174 4.85451 76.8304 4.70063 77.2921 4.75192C77.4933 4.77707 77.6945 4.80086 77.8955 4.82461C78.9242 4.9462 79.9471 5.06709 80.9341 5.36747C81.5496 5.52136 81.9087 6.2395 82.0113 6.90635C82.0626 7.4193 82.1139 7.98356 82.0113 8.49652C81.6522 10.7535 78.8822 13.78 76.5739 13.8826C76.3687 13.8826 76.1636 13.9738 75.9584 14.065C75.8558 14.1106 75.7532 14.1562 75.6506 14.1904C75.0863 14.3955 74.5221 14.6007 73.9578 14.7546C73.9578 14.7334 73.949 14.7033 73.9387 14.6681C73.9241 14.6183 73.9065 14.5582 73.9065 14.4981C73.8462 14.5182 73.7839 14.5383 73.7204 14.5588ZM122.022 25.5267C122.894 22.9106 121.663 20.4484 119.047 19.8841C118.483 18.2939 117.354 17.8836 116.072 18.8582C115.507 19.2686 115.046 19.8841 114.635 20.4997C113.25 22.6028 113.558 24.9111 113.969 27.1681C114.071 27.7837 114.533 28.194 115.097 28.3992C115.251 28.4505 115.405 28.489 115.559 28.5275C115.713 28.5659 115.867 28.6044 116.02 28.6557C118.739 29.4251 121.099 28.194 122.022 25.5267ZM51.6441 29.9381C51.6441 27.0656 53.4908 24.2443 55.953 23.1671C56.3121 23.0132 56.6198 22.7567 56.9276 22.4489C58.4152 21.1665 60.2105 21.6795 60.6722 23.6287C60.7748 24.193 60.7748 24.7572 60.6722 25.3215C60.2105 27.7837 58.9794 29.9381 57.2354 31.7335C56.8763 32.0925 56.4146 32.4516 55.953 32.7081C53.9524 33.7853 51.9006 32.7081 51.6441 30.3998V29.9381ZM127.972 3.00767C126.177 3.46933 124.074 6.08542 124.125 8.23985C124.125 10.1378 125.305 11.4715 126.946 11.3689C127.562 11.3347 128.177 11.2549 128.793 11.1751C129.101 11.1352 129.409 11.0953 129.716 11.0611C129.955 11.0611 130.163 10.9687 130.363 10.8793C130.422 10.8534 130.479 10.8277 130.537 10.8046C132.332 9.98391 134.076 7.11134 133.974 5.1621C133.923 3.57193 132.794 2.49471 131.204 2.54601C130.127 2.54601 129.049 2.75119 127.972 3.00767ZM90.7029 19.1901L90.7029 19.1902C90.7925 19.6427 90.8855 20.1124 90.8855 20.551C90.8855 21.1153 90.9881 21.6283 91.2959 22.1925C91.5524 22.6542 91.655 23.2184 91.7063 23.7314C91.8089 26.1936 89.2441 28.861 86.7306 28.861C85.0378 28.861 83.6015 27.6299 83.2425 25.9371C82.7808 23.8853 83.9093 21.1666 85.756 20.0381C86.4741 19.5764 87.2435 19.4225 88.013 19.9868C88.6285 20.4485 88.8337 20.3459 89.2954 19.7303L90.2187 18.6531C90.3726 18.7557 90.5265 18.807 90.6291 18.807C90.6519 18.9325 90.6772 19.0605 90.7029 19.1899L90.7029 19.1901ZM161.149 35.5461C160.317 36.1274 159.54 36.6701 158.391 36.5552C157.929 35.2728 157.16 34.5547 155.877 34.6573C155.672 34.6573 155.416 34.4521 155.262 34.2982C154.595 33.6313 153.877 33.6826 153.107 33.9904C150.85 34.965 149.568 38.1967 150.594 40.4537C151.466 42.4029 153.672 43.0698 155.416 41.8387C155.877 41.5309 156.288 41.1205 156.647 40.6589C157.16 40.0433 157.673 39.633 158.493 39.3765C160.237 38.8635 161.469 37.6324 162.033 35.8884C162.065 35.726 162.057 35.5637 162.046 35.3623V35.3621V35.3619C162.04 35.2452 162.033 35.1155 162.033 34.965C161.721 35.147 161.432 35.3488 161.149 35.5461ZM107.377 38.8122C107.595 38.7609 107.813 38.7096 108.018 38.6583C108.018 38.5557 108.018 38.4531 108.07 38.2992C106.633 37.3759 105.043 37.222 103.402 37.6837L103.318 37.7048C102.739 37.8506 102.245 37.975 101.658 37.6324C100.888 37.222 100.067 37.3759 99.298 37.8376C97.4001 38.9148 96.3229 41.8899 97.1436 43.9418C97.4001 44.6599 97.8617 45.2242 98.5799 45.3268C99.7084 45.5319 100.888 45.5319 101.863 44.7625C103.094 43.7879 104.017 42.5568 104.12 40.9666C104.222 40.1459 104.581 39.6842 105.248 39.4277C105.71 39.2738 106.223 39.12 106.736 38.9661C106.941 38.9148 107.159 38.8635 107.377 38.8122ZM74.7273 46.2501C74.558 46.1749 74.3955 46.1066 74.2375 46.04C73.9646 45.9252 73.7047 45.8158 73.4449 45.6859C73.1371 46.1732 72.8293 46.6477 72.5215 47.1222L72.5213 47.1225C72.2136 47.5969 71.9059 48.0713 71.5982 48.5585C71.034 49.4305 70.2645 50.046 69.136 49.8409C68.0075 49.6357 67.1868 48.9175 66.9816 47.7377C66.879 47.0709 66.879 46.3527 66.9816 45.6859C67.2381 44.1983 67.9049 42.8646 68.9821 41.7874C70.521 40.2485 72.1112 40.3511 73.3936 42.0439C73.4962 42.1978 73.65 42.3517 73.8039 42.5056C75.2402 43.6854 75.3941 44.3522 74.7273 46.2501ZM48.5581 45.9342C48.6263 45.81 48.6989 45.6775 48.7716 45.5321C48.7012 45.4758 48.6269 45.4194 48.5498 45.3609L48.5496 45.3608L48.5495 45.3607C48.3459 45.2064 48.1228 45.0371 47.8996 44.814C46.7711 43.5829 45.8478 43.3777 44.3602 44.1471C42.5648 45.1217 41.3337 46.5067 40.9747 48.5586C40.8208 49.4819 40.8208 50.4052 41.4363 51.2259C42.77 52.97 46.1042 52.8674 47.0276 50.7643C47.284 50.1487 47.5405 49.4819 47.7457 48.815C47.8533 48.4386 47.9326 48.0481 48.0133 47.6509C48.0866 47.2903 48.161 46.9241 48.2587 46.558C48.3249 46.3593 48.4339 46.1606 48.5581 45.9342L48.5581 45.9342L48.5581 45.9342ZM143.874 14.7032C145.105 15.0623 145.772 16.3447 145.413 17.4219C145.156 18.2426 144.951 19.0634 144.849 19.8841C144.592 21.7308 143.669 23.1157 142.13 24.0391C140.694 24.9111 139.155 24.2442 138.539 22.6541C138.18 21.6795 138.232 20.7048 138.539 19.7815C139.257 17.7297 140.694 16.2934 142.746 15.6778C143.361 15.524 143.772 15.3188 143.874 14.7032ZM133.923 41.7362C134.59 40.0947 134.384 38.6071 132.948 37.2221C133.307 36.6066 133.359 35.991 132.897 35.5294C132.333 34.9651 131.666 34.9651 130.948 35.1703C130.742 35.2216 130.537 35.3242 130.383 35.4268C128.537 36.4527 127.357 38.9149 127.665 40.9667C127.87 42.5056 128.896 43.5828 130.178 43.7367C131.768 43.9419 133.359 43.0699 133.923 41.7362Z" fill="black"/>
<path d="M77.3834 70.8113C98.9185 51.6757 125.16 41.6888 155.654 43.7357C167.512 44.571 179.014 47.5166 190.198 51.4417C200.89 55.279 210.081 61.6114 218.082 69.6006C230.669 82.0647 240.005 96.468 244.861 113.546C254.009 145.631 248.863 175.735 230.153 203.176C209.576 233.453 174.234 250.837 137.721 248.935C114.839 247.718 94.5997 239.659 77.1445 224.762C47.6626 199.614 35.7528 159.438 46.1983 121.381C51.6063 102.111 61.7998 85.6249 77.3834 70.8113Z" fill="#F7D046"/>
<mask id="mask0_291_154" style="mask-type:alpha" maskUnits="userSpaceOnUse" x="42" y="43" width="208" height="207">
<path d="M77.3834 70.8113C98.9185 51.6757 125.16 41.6888 155.654 43.7357C167.512 44.571 179.014 47.5166 190.198 51.4417C200.89 55.279 210.081 61.6114 218.082 69.6006C230.669 82.0647 240.005 96.468 244.861 113.546C254.009 145.631 248.863 175.735 230.153 203.176C209.576 233.453 174.234 250.837 137.721 248.935C114.839 247.718 94.5997 239.659 77.1445 224.762C47.6626 199.614 35.7528 159.438 46.1983 121.381C51.6063 102.111 61.7998 85.6249 77.3834 70.8113Z" fill="black"/>
</mask>
<g mask="url(#mask0_291_154)">
<path d="M29.4052 128.817C28.6352 128.578 27.9334 128.413 27.1634 128.174C23.7276 127.276 20.36 126.452 16.9242 125.555C16.0128 125.311 15.0332 124.994 14.273 124.473C13.7906 124.102 13.396 123.239 13.4156 122.674C13.5765 122.114 14.2394 121.358 14.8097 121.236C15.8088 120.988 16.8664 121.095 17.8508 121.271C23.0558 122.159 28.2608 123.047 33.3877 124.144C56.0741 128.963 78.5946 134.484 100.866 141.057C127.198 148.903 153.597 156.822 179.773 165.087C207.001 173.601 233.517 184.283 259.653 195.731C265.579 198.271 271.578 200.743 277.504 203.283C278.688 203.819 279.877 204.214 280.983 204.96C284.453 206.92 285.554 209.859 284.155 213.49C283.306 215.512 282.175 217.525 280.84 219.318C274.741 227.88 267.483 235.199 259.538 241.929C238.983 259.329 215.149 269.258 188.757 273.367C161.23 277.579 134.308 274.524 108.006 265.83C87.2305 258.954 68.1223 248.882 51.047 235.272C41.1303 227.429 32.2372 218.63 25.3182 207.99C19.5394 199.158 15.4811 189.678 13.504 179.35C10.9182 166.171 12.7771 153.359 17.3798 140.995C19.1741 136.175 22.4059 132.749 26.9437 130.43C27.592 130.099 28.2402 129.768 28.8203 129.363C29.3223 129.168 29.3272 129.027 29.4052 128.817Z" fill="#4CA96D"/>
<mask id="mask1_291_154" style="mask-type:alpha" maskUnits="userSpaceOnUse" x="12" y="121" width="273" height="155">
<path d="M29.4052 128.817C28.6352 128.578 27.9334 128.413 27.1634 128.174C23.7276 127.276 20.36 126.452 16.9242 125.555C16.0128 125.311 15.0332 124.994 14.273 124.473C13.7906 124.102 13.396 123.239 13.4156 122.674C13.5765 122.114 14.2394 121.358 14.8097 121.236C15.8088 120.988 16.8664 121.095 17.8508 121.271C23.0558 122.159 28.2608 123.047 33.3877 124.144C56.0741 128.963 78.5946 134.484 100.866 141.057C127.198 148.903 153.597 156.822 179.773 165.087C207.001 173.601 233.517 184.283 259.653 195.731C265.579 198.271 271.578 200.743 277.504 203.283C278.688 203.819 279.877 204.214 280.983 204.96C284.453 206.92 285.554 209.859 284.155 213.49C283.306 215.512 282.175 217.525 280.84 219.318C274.741 227.88 267.483 235.199 259.538 241.929C238.983 259.329 215.149 269.258 188.757 273.367C161.23 277.579 134.308 274.524 108.006 265.83C87.2305 258.954 68.1223 248.882 51.047 235.272C41.1303 227.429 32.2372 218.63 25.3182 207.99C19.5394 199.158 15.4811 189.678 13.504 179.35C10.9182 166.171 12.7771 153.359 17.3798 140.995C19.1741 136.175 22.4059 132.749 26.9437 130.43C27.592 130.099 28.2402 129.768 28.8203 129.363C29.3223 129.168 29.3272 129.027 29.4052 128.817Z" fill="#4CA96D"/>
</mask>
<g mask="url(#mask1_291_154)">
<path d="M147.887 280.207C148.823 279.744 149.832 279.213 150.7 278.677C155.194 275.578 158.659 271.523 162.194 267.542C171.031 257.518 178.421 246.383 186.09 235.399C191.676 227.314 197.263 219.23 204.16 212.111C209 207.184 214.05 202.335 219.305 197.706C228.284 189.739 237.803 182.498 248.005 175.989C253.864 172.3 259.859 168.758 266.39 166.083C270.123 164.515 274.057 163.307 278.17 163.025C280.583 162.825 282.907 163.118 285.641 163.849C285.139 164.044 284.92 164.249 284.71 164.171C278.726 163.327 273.15 164.973 267.827 167.478C261.286 170.435 255.286 174.118 249.413 178.231C234.556 188.4 220.859 199.812 208.244 212.677C202.521 218.563 197.695 225.117 193.006 231.818C186.162 241.486 179.459 251.16 172.405 260.75C167.876 266.89 163.007 272.665 157.382 277.776C155.919 279.141 154.32 280.359 152.653 281.504C151.64 282.176 150.416 282.771 149.203 283.082C146.702 283.774 144.699 282.36 144.788 279.816C144.783 277.906 145.134 275.937 145.831 274.192C147.46 270.074 149.23 265.961 151.141 261.853C156.782 250.162 163.392 239.07 170.076 227.911C179.845 211.41 188.991 194.534 197.44 177.35C199.039 174.08 200.355 170.8 201.677 167.379C202.145 166.122 202.476 164.718 202.662 163.451C202.877 161.336 202.058 160.459 199.933 160.527C198.515 160.619 197.018 160.921 195.727 161.442C191.862 162.723 188.318 164.935 185.121 167.372C177.059 173.39 169.952 180.431 162.981 187.619C150.873 200.147 139.861 213.704 128.645 227.041C121.781 235.223 114.922 243.264 107.235 250.709C101.747 255.967 96.1218 261.079 89.5465 265.026C87.9576 265.961 86.3004 266.823 84.5798 267.471C79.5645 269.279 76.3239 266.832 76.8657 261.402C77.0903 259.005 77.8071 256.695 78.5239 254.385C80.1817 249.418 82.6096 244.691 85.3152 240.115C91.6333 229.297 98.6384 219.068 106.063 208.995C117.791 193.128 129.588 177.335 141.526 161.546C146.05 155.547 150.779 149.767 155.444 143.773C156.409 142.463 157.379 141.01 158.139 139.48C158.593 138.647 158.773 137.521 159.085 136.683C157.848 135.649 156.503 135.674 155.362 135.917C152.867 136.467 150.376 136.876 147.944 137.641C140.073 140.199 133.2 144.559 126.732 149.5C115.102 158.437 105.046 168.914 95.467 179.902C88.0966 188.421 80.7944 197.012 73.0098 205.232C65.9564 212.771 58.4254 219.798 49.3984 225.074C47.595 226.073 45.6551 226.926 43.7202 227.637C42.2872 228.153 40.7958 228.314 39.2411 228.26C36.1317 228.152 34.0753 226.242 34.1148 223.059C34.1883 220.939 34.408 218.683 35.1832 216.728C36.8897 212.401 38.8106 208.01 40.9362 203.838C46.6938 192.859 53.8403 182.635 61.0501 172.625C69.0739 161.583 77.5753 151.052 87.0416 141.262C94.4557 133.524 102.347 126.298 109.966 118.779C111.136 117.687 112.243 116.381 113.642 114.802C111.741 114.524 110.313 114.899 108.958 115.206C102.675 116.828 96.583 119.093 90.6903 121.719C74.3037 129.076 59.3302 138.534 46.101 150.74C39.3792 156.875 32.6574 163.01 25.726 169.067C20.3983 173.764 14.7295 178.096 8.12032 180.98C6.3949 181.77 4.53795 182.271 2.68099 182.773C1.89629 182.958 0.906939 182.924 0.0638157 182.753C-1.33976 182.421 -1.45172 181.568 -0.408503 180.048C-0.345179 180.262 -0.140516 180.482 -0.145413 180.623C-0.0820886 180.838 -0.160101 181.047 -0.101673 181.403C1.44324 181.74 2.73485 181.218 4.09468 180.77C7.89151 179.416 11.357 177.413 14.5546 174.977C18.6977 171.795 22.8458 168.472 26.7892 164.929C34.2372 158.253 41.4806 151.358 48.9969 144.756C59.6524 135.361 71.7257 127.926 84.603 121.792C91.7971 118.362 99.113 115.502 106.755 113.432C108.754 112.935 110.82 112.511 112.877 112.37C114.012 112.268 115.138 112.449 115.733 113.672C116.259 114.822 115.801 115.797 115.064 116.621C112.929 119.023 110.726 121.352 108.455 123.608C102.737 129.354 96.7462 134.806 91.238 140.629C73.0268 159.809 57.0182 180.764 43.8409 203.727C41.4327 207.888 39.5117 212.279 37.659 216.743C36.8887 218.556 36.5375 220.525 36.3958 222.572C36.1761 224.829 37.3408 225.93 39.5388 225.794C41.1715 225.638 43.0187 225.419 44.3883 224.689C47.7759 222.896 51.0951 221.029 54.2147 218.803C60.3124 214.344 65.8643 209.301 70.8705 203.672C79.4108 194.063 87.8146 184.307 96.3548 174.697C105.558 164.333 115.375 154.626 126.557 146.381C132.947 141.65 139.805 137.713 147.389 135.287C149.392 134.649 151.39 134.152 153.384 133.797C154.524 133.553 155.801 133.456 157 133.568C160.387 133.827 161.942 135.933 160.698 139.144C159.923 141.099 158.865 143.043 157.603 144.768C152.708 151.249 147.751 157.516 142.788 163.924C125.381 186.457 107.837 208.844 92.2907 232.786C88.7759 238.254 85.5339 244.014 82.5016 249.853C80.9854 252.772 80.093 256.066 79.1323 259.288C78.8056 260.55 78.7566 261.963 78.9221 263.313C79.068 265.229 80.0378 265.828 81.8899 265.468C83.1035 265.156 84.3902 264.776 85.404 264.104C89.318 261.409 93.2271 258.856 96.8683 255.869C105.101 249.008 112.169 241.046 119.028 233.005C130.234 219.95 141.163 206.744 152.507 193.836C160.905 184.221 169.918 175.265 179.886 167.332C184.108 163.941 188.528 160.91 193.612 159.176C195.474 158.533 197.472 158.036 199.456 157.963C203.355 157.744 205.465 160.152 205.05 163.958C204.84 165.932 204.347 167.896 203.504 169.777C200.588 176.327 197.6 182.945 194.407 189.344C186.952 204.368 177.968 218.632 169.402 233.052C162.636 244.563 156.079 256.151 150.56 268.413C149.409 270.991 148.4 273.574 147.6 276.235C147.205 277.424 147.156 278.837 146.971 280.104C147.473 279.909 147.751 280.06 147.887 280.207Z" fill="black"/>
</g>
</g>
</svg>
