<svg xmlns="http://www.w3.org/2000/svg" version="1.1" xmlns:xlink="http://www.w3.org/1999/xlink" xmlns:svgjs="http://svgjs.dev/svgjs" width="16" height="16"><svg width="16" height="16" viewBox="0 0 16 16" fill="none" xmlns="http://www.w3.org/2000/svg">
<path d="M7.7152 5.14551C8.52176 5.16834 9.19927 5.36237 9.77999 5.81892C10.6403 6.48092 11.0705 7.38262 11.0167 8.524C10.9952 8.95772 10.8231 9.33438 10.5543 9.65396C10.0919 10.2132 9.48963 10.4872 8.79061 10.5785C8.72609 10.5899 8.67231 10.5899 8.60779 10.5785C7.90877 10.4529 7.22051 10.316 6.59677 9.93931C5.79021 9.42569 5.3708 8.66096 5.38155 7.65655C5.40306 6.50375 6.25263 5.41944 7.28503 5.19116C7.4571 5.15692 7.62916 5.15692 7.7152 5.14551ZM7.79048 6.38961C7.63992 6.42385 7.47861 6.43527 7.3388 6.49234C6.6828 6.77768 6.38168 7.7022 6.73657 8.35279C6.85487 8.58107 7.03769 8.75227 7.25277 8.86641C7.66143 9.08327 8.10235 9.22024 8.55402 9.26589C8.7691 9.28872 9.00569 9.24307 9.21002 9.15176C9.70471 8.94631 9.90904 8.54682 9.8015 8.02179C9.70471 7.54241 9.47888 7.13151 9.09173 6.84617C8.71533 6.57223 8.27441 6.43527 7.79048 6.38961Z" fill="#EA552B"></path>
<path d="M8.81301 2.40625C9.25392 2.45191 9.7056 2.46332 10.1465 2.5318C11.1682 2.70301 11.9962 3.26229 12.62 4.12974C13.4373 5.24829 13.8782 6.52664 13.9212 7.95336C13.9427 8.50123 13.8352 9.02626 13.6309 9.52847C13.4373 9.99644 13.2007 10.4416 12.8888 10.8411C11.8457 12.1651 10.5767 13.101 8.9313 13.3407C7.82362 13.5005 6.7267 13.432 5.68355 13.0211C4.96302 12.7243 4.30702 12.302 3.7263 11.7656C3.53272 11.583 3.37141 11.3433 3.23161 11.1036C2.85521 10.4302 2.62938 9.68826 2.42505 8.94636C2.36052 8.71809 2.37128 8.45557 2.37128 8.21588C2.37128 6.68643 2.88748 5.38526 3.96289 4.3466C5.18886 3.17098 6.61916 2.49756 8.29681 2.44049C8.46887 2.44049 8.64094 2.44049 8.81301 2.44049C8.81301 2.42908 8.81301 2.41766 8.81301 2.40625ZM8.7915 3.6846C7.3827 3.63894 6.13523 4.10691 5.0383 5.03143C4.58663 5.4195 4.19948 5.86464 3.94138 6.43533C3.3499 7.74791 3.4682 9.01485 4.15646 10.2475C4.26401 10.4416 4.42532 10.6014 4.59738 10.7383C4.87699 10.9666 5.16735 11.1721 5.46847 11.3661C6.27503 11.8911 7.13536 12.1879 8.10323 12.1422C9.97445 12.0509 11.3402 11.1036 12.3189 9.4714C12.4371 9.27737 12.5232 9.07192 12.5877 8.85505C12.663 8.61536 12.7168 8.35285 12.7275 8.11316C12.7275 6.86905 12.3404 5.76191 11.6091 4.81456C11.1359 4.20963 10.5229 3.84439 9.77012 3.76449C9.4475 3.71884 9.11412 3.70742 8.7915 3.6846Z" fill="#F7D046"></path>
<path d="M7.20972 16C6.31713 16 5.57509 15.8744 4.86532 15.5663C4.40289 15.3608 3.98348 15.0755 3.61784 14.6988C3.12315 14.1852 2.60695 13.6716 2.1015 13.1694C2.05849 13.1237 2.00472 13.0895 1.9617 13.0438C1.78963 12.8726 1.58531 12.7128 1.4455 12.5074C0.724975 11.4687 0.176514 10.3387 0.0367107 9.02616C-0.0815848 7.91902 0.0904813 6.85754 0.488384 5.84171C0.800254 5.03133 1.19816 4.27801 1.72511 3.61601C2.26282 2.9426 2.8758 2.39473 3.60708 1.97242C4.47817 1.49304 5.36001 1.03649 6.28486 0.671248C7.60762 0.157627 8.98415 -0.0478221 10.3929 0.00924692C10.9091 0.0320746 11.4038 0.157626 11.8555 0.420144C12.3932 0.728317 12.9309 1.0479 13.4256 1.41315C14.4688 2.16646 15.1033 3.26218 15.5119 4.49488C16.0926 6.2526 16.1572 8.05599 15.6947 9.85937C15.5979 10.236 15.4689 10.6127 15.3076 10.9551C14.5548 12.5302 13.4901 13.7971 11.9846 14.6189C10.436 15.4636 8.81209 15.9201 7.20972 16ZM7.18821 14.7331C8.66153 14.6418 10.1348 14.2194 11.5221 13.4547C12.6513 12.827 13.4579 11.8682 14.0816 10.7154C14.2644 10.373 14.4257 9.99633 14.5225 9.60826C14.9419 7.9875 14.8882 6.36674 14.329 4.79164C13.9956 3.8557 13.5116 3.02249 12.7051 2.44039C12.2749 2.13222 11.8125 1.85828 11.3501 1.58435C10.9952 1.3789 10.608 1.28759 10.2101 1.27618C8.9734 1.25335 7.75818 1.43597 6.59673 1.90394C5.77942 2.23494 4.98361 2.64584 4.20932 3.07956C3.60708 3.42198 3.10164 3.86712 2.66072 4.41498C2.2198 4.96284 1.89718 5.57919 1.62832 6.24119C1.21967 7.24561 1.07986 8.27285 1.29494 9.34575C1.39173 9.82513 1.52078 10.2703 1.88642 10.6241C2.05849 10.7953 2.18754 11.0236 2.31659 11.229C2.43488 11.4116 2.54242 11.5943 2.63921 11.7883C2.80052 12.0851 3.00485 12.3362 3.24144 12.5644C3.61784 12.9297 4.00499 13.3063 4.35987 13.6944C4.73627 14.0939 5.17719 14.3564 5.67188 14.5162C6.14506 14.676 6.61824 14.7331 7.18821 14.7331Z" fill="#4CA96D"></path>
</svg><style>@media (prefers-color-scheme: light) { :root { filter: none; } }
@media (prefers-color-scheme: dark) { :root { filter: none; } }
</style></svg>